
<svg width="292px" height="111px" viewBox="0 0 292 111" version="1.1" xmlns="http://www.w3.org/2000/svg" xmlns:xlink="http://www.w3.org/1999/xlink">
    <!-- Generator: Sketch 47.1 (45422) - http://www.bohemiancoding.com/sketch -->
    <desc>Created with Sketch.</desc>
    <defs></defs>
    <g id="Page-1" stroke="none" stroke-width="1" fill="none" fill-rule="evenodd">
        <g id="Artboard" transform="translate(-89.000000, -128.000000)" fill="#FFFFFF">
            <g id="Group" transform="translate(89.000000, 124.000000)">
                <g id="logo-white" transform="translate(0.000000, 38.000000)" fill-rule="nonzero">
                    <g id="ROBOTICS" transform="translate(1.000000, 33.000000)">
                        <g id="path0_fill-link">
                            <path d="M17.78,1 C22.7,1 26.48,2.16 29.12,4.48 C31.76,6.8 33.08,10.02 33.08,14.14 C33.08,17.06 32.4,19.56 31.04,21.64 C29.68,23.68 27.72,25.2 25.16,26.2 L33.44,41.02 C33.56,41.26 33.62,41.48 33.62,41.68 C33.62,42.04 33.48,42.36 33.2,42.64 C32.96,42.88 32.66,43 32.3,43 L27.2,43 C26.04,43 25.18,42.46 24.62,41.38 L16.76,27.4 L8.78,27.4 L8.78,41.38 C8.78,41.82 8.62,42.2 8.3,42.52 C7.98,42.84 7.6,43 7.16,43 L2.3,43 C1.86,43 1.48,42.84 1.16,42.52 C0.84,42.2 0.68,41.82 0.68,41.38 L0.68,2.62 C0.68,2.18 0.84,1.8 1.16,1.48 C1.48,1.16 1.86,1 2.3,1 L17.78,1 Z M17.48,19.9 C19.92,19.9 21.78,19.48 23.06,18.64 C24.34,17.76 24.98,16.26 24.98,14.14 C24.98,12.02 24.34,10.56 23.06,9.76 C21.82,8.92 19.96,8.5 17.48,8.5 L8.78,8.5 L8.78,19.9 L17.48,19.9 Z M57.0753,0.4 C62.6753,0.4 66.9553,1.9 69.9153,4.9 C72.8753,7.9 74.4753,11.82 74.7153,16.66 C74.7953,18.5 74.8353,20.1 74.8353,21.46 C74.8353,23.26 74.7953,25.24 74.7153,27.4 C74.4753,32.2 72.8753,36.1 69.9153,39.1 C66.9553,42.1 62.6753,43.6 57.0753,43.6 C51.4753,43.6 47.1953,42.1 44.2353,39.1 C41.2753,36.1 39.6753,32.2 39.4353,27.4 C39.3553,25.24 39.3153,23.26 39.3153,21.46 C39.3153,20.1 39.3553,18.5 39.4353,16.66 C39.6753,11.86 41.2753,7.96 44.2353,4.96 C47.1953,1.92 51.4753,0.4 57.0753,0.4 Z M57.0753,7.9 C54.2753,7.9 52.0153,8.7 50.2953,10.3 C48.6153,11.9 47.6953,14.12 47.5353,16.96 C47.4553,18.96 47.4153,20.64 47.4153,22 C47.4153,23.4 47.4553,25.1 47.5353,27.1 C47.6953,29.94 48.6153,32.16 50.2953,33.76 C52.0153,35.32 54.2753,36.1 57.0753,36.1 C59.8753,36.1 62.1153,35.32 63.7953,33.76 C65.5153,32.16 66.4553,29.94 66.6153,27.1 C66.6953,26.1 66.7353,24.4 66.7353,22 C66.7353,19.64 66.6953,17.96 66.6153,16.96 C66.4553,14.12 65.5153,11.9 63.7953,10.3 C62.1153,8.7 59.8753,7.9 57.0753,7.9 Z M84.2727,43 C83.8327,43 83.4527,42.84 83.1327,42.52 C82.8127,42.2 82.6527,41.82 82.6527,41.38 L82.6527,2.62 C82.6527,2.18 82.8127,1.8 83.1327,1.48 C83.4527,1.16 83.8327,1 84.2727,1 L101.973,1 C105.133,1 107.713,1.62 109.713,2.86 C111.753,4.1 113.213,5.62 114.093,7.42 C115.013,9.22 115.473,11.02 115.473,12.82 C115.473,14.9 115.013,16.64 114.093,18.04 C113.173,19.4 112.253,20.38 111.333,20.98 C112.773,21.94 113.953,23.22 114.873,24.82 C115.833,26.38 116.313,28.24 116.313,30.4 C116.313,32.48 115.793,34.5 114.753,36.46 C113.753,38.38 112.273,39.96 110.313,41.2 C108.353,42.4 106.033,43 103.353,43 L84.2727,43 Z M90.7527,8.5 L90.7527,17.74 L101.373,17.74 C103.413,17.74 104.913,17.36 105.873,16.6 C106.873,15.84 107.373,14.68 107.373,13.12 C107.373,11.56 106.873,10.4 105.873,9.64 C104.913,8.88 103.413,8.5 101.373,8.5 L90.7527,8.5 Z M101.853,35.5 C103.973,35.5 105.553,35.04 106.593,34.12 C107.673,33.2 108.213,31.96 108.213,30.4 C108.213,28.84 107.653,27.6 106.533,26.68 C105.453,25.72 103.893,25.24 101.853,25.24 L90.7527,25.24 L90.7527,35.5 L101.853,35.5 Z M139.985,0.4 C145.585,0.4 149.865,1.9 152.825,4.9 C155.785,7.9 157.385,11.82 157.625,16.66 C157.705,18.5 157.745,20.1 157.745,21.46 C157.745,23.26 157.705,25.24 157.625,27.4 C157.385,32.2 155.785,36.1 152.825,39.1 C149.865,42.1 145.585,43.6 139.985,43.6 C134.385,43.6 130.105,42.1 127.145,39.1 C124.185,36.1 122.585,32.2 122.345,27.4 C122.265,25.24 122.225,23.26 122.225,21.46 C122.225,20.1 122.265,18.5 122.345,16.66 C122.585,11.86 124.185,7.96 127.145,4.96 C130.105,1.92 134.385,0.4 139.985,0.4 Z M139.985,7.9 C137.185,7.9 134.925,8.7 133.205,10.3 C131.525,11.9 130.605,14.12 130.445,16.96 C130.365,18.96 130.325,20.64 130.325,22 C130.325,23.4 130.365,25.1 130.445,27.1 C130.605,29.94 131.525,32.16 133.205,33.76 C134.925,35.32 137.185,36.1 139.985,36.1 C142.785,36.1 145.025,35.32 146.705,33.76 C148.425,32.16 149.365,29.94 149.525,27.1 C149.605,26.1 149.645,24.4 149.645,22 C149.645,19.64 149.605,17.96 149.525,16.96 C149.365,14.12 148.425,11.9 146.705,10.3 C145.025,8.7 142.785,7.9 139.985,7.9 Z M192.703,1 C193.142,1 193.522,1.16 193.843,1.48 C194.162,1.8 194.322,2.18 194.322,2.62 L194.322,6.88 C194.322,7.32 194.162,7.7 193.843,8.02 C193.522,8.34 193.142,8.5 192.703,8.5 L181.902,8.5 L181.902,41.38 C181.902,41.82 181.743,42.2 181.423,42.52 C181.103,42.84 180.722,43 180.283,43 L175.423,43 C174.983,43 174.603,42.84 174.283,42.52 C173.963,42.2 173.803,41.82 173.803,41.38 L173.803,8.5 L163.002,8.5 C162.563,8.5 162.182,8.34 161.862,8.02 C161.543,7.7 161.382,7.32 161.382,6.88 L161.382,2.62 C161.382,2.18 161.543,1.8 161.862,1.48 C162.182,1.16 162.563,1 163.002,1 L192.703,1 Z M201.929,43 C201.489,43 201.109,42.84 200.789,42.52 C200.469,42.2 200.309,41.82 200.309,41.38 L200.309,2.62 C200.309,2.18 200.469,1.8 200.789,1.48 C201.109,1.16 201.489,1 201.929,1 L206.789,1 C207.229,1 207.609,1.16 207.929,1.48 C208.249,1.8 208.409,2.18 208.409,2.62 L208.409,41.38 C208.409,41.82 208.249,42.2 207.929,42.52 C207.609,42.84 207.229,43 206.789,43 L201.929,43 Z M250.17,28.12 C250.65,28.12 251.05,28.28 251.37,28.6 C251.69,28.88 251.83,29.26 251.79,29.74 C251.63,32.06 250.89,34.28 249.57,36.4 C248.29,38.52 246.33,40.26 243.69,41.62 C241.09,42.94 237.83,43.6 233.91,43.6 C228.55,43.6 224.35,42.1 221.31,39.1 C218.27,36.06 216.59,32.04 216.27,27.04 C216.19,25.04 216.15,23.36 216.15,22 C216.15,20.64 216.19,18.96 216.27,16.96 C216.59,11.96 218.27,7.96 221.31,4.96 C224.35,1.92 228.55,0.4 233.91,0.4 C237.83,0.4 241.09,1.08 243.69,2.44 C246.33,3.76 248.29,5.48 249.57,7.6 C250.89,9.72 251.63,11.94 251.79,14.26 C251.83,14.74 251.69,15.14 251.37,15.46 C251.05,15.74 250.65,15.88 250.17,15.88 L245.31,15.88 C244.91,15.88 244.53,15.74 244.17,15.46 C243.81,15.18 243.59,14.8 243.51,14.32 C243.19,12.52 242.23,11 240.63,9.76 C239.07,8.52 236.83,7.9 233.91,7.9 C230.95,7.9 228.65,8.74 227.01,10.42 C225.41,12.1 224.53,14.28 224.37,16.96 C224.29,18.96 224.25,20.64 224.25,22 C224.25,23.36 224.29,25.04 224.37,27.04 C224.53,29.72 225.41,31.9 227.01,33.58 C228.65,35.26 230.95,36.1 233.91,36.1 C236.83,36.1 239.09,35.48 240.69,34.24 C242.29,33 243.25,31.48 243.57,29.68 C243.65,29.2 243.85,28.82 244.17,28.54 C244.53,28.26 244.91,28.12 245.31,28.12 L250.17,28.12 Z M289.625,11.44 C289.665,11.92 289.525,12.32 289.205,12.64 C288.885,12.92 288.485,13.06 288.005,13.06 L283.805,13.06 C283.165,13.06 282.665,12.94 282.305,12.7 C281.945,12.46 281.625,12.1 281.345,11.62 C280.665,10.5 279.685,9.6 278.405,8.92 C277.125,8.24 275.385,7.9 273.185,7.9 C271.025,7.9 269.205,8.34 267.725,9.22 C266.245,10.1 265.505,11.28 265.505,12.76 C265.505,13.96 265.845,14.9 266.525,15.58 C267.245,16.22 268.345,16.76 269.825,17.2 C271.305,17.64 273.725,18.22 277.085,18.94 C281.925,19.98 285.425,21.44 287.585,23.32 C289.745,25.2 290.825,27.78 290.825,31.06 C290.825,33.46 290.125,35.62 288.725,37.54 C287.325,39.42 285.305,40.9 282.665,41.98 C280.065,43.06 277.005,43.6 273.485,43.6 C270.485,43.6 267.685,43.12 265.085,42.16 C262.485,41.2 260.385,39.84 258.785,38.08 C257.185,36.28 256.325,34.24 256.205,31.96 C256.165,31.48 256.305,31.1 256.625,30.82 C256.945,30.5 257.345,30.34 257.825,30.34 L262.025,30.34 C262.665,30.34 263.165,30.46 263.525,30.7 C263.925,30.94 264.245,31.3 264.485,31.78 C265.165,33.1 266.145,34.16 267.425,34.96 C268.745,35.72 270.765,36.1 273.485,36.1 C276.125,36.1 278.325,35.68 280.085,34.84 C281.845,34 282.725,32.74 282.725,31.06 C282.725,30.1 282.385,29.34 281.705,28.78 C281.025,28.18 280.065,27.7 278.825,27.34 C277.585,26.94 275.705,26.44 273.185,25.84 C272.185,25.64 270.885,25.34 269.285,24.94 C265.085,23.9 262.045,22.48 260.165,20.68 C258.325,18.88 257.405,16.24 257.405,12.76 C257.405,10.4 258.085,8.28 259.445,6.4 C260.845,4.52 262.745,3.06 265.145,2.02 C267.545,0.94 270.225,0.4 273.185,0.4 C276.545,0.4 279.445,0.98 281.885,2.14 C284.365,3.26 286.245,4.68 287.525,6.4 C288.805,8.12 289.505,9.8 289.625,11.44 Z" id="path0_fill"></path>
                        </g>
                    </g>
                    <g id="IRVINGTON">
                        <g id="path1_fill-link">
                            <path d="M0.955,25 C0.69833,25 0.47667,24.9067 0.29,24.72 C0.10333,24.5333 0.01,24.3117 0.01,24.055 L0.01,1.445 C0.01,1.18833 0.10333,0.96667 0.29,0.78 C0.47667,0.59333 0.69833,0.5 0.955,0.5 L2.39,0.5 C2.64667,0.5 2.86833,0.59333 3.055,0.78 C3.24167,0.96667 3.335,1.18833 3.335,1.445 L3.335,24.055 C3.335,24.3117 3.24167,24.5333 3.055,24.72 C2.86833,24.9067 2.64667,25 2.39,25 L0.955,25 Z M18.7561,0.5 C21.2061,0.5 23.2244,1.10667 24.8111,2.32 C26.3977,3.51 27.1911,5.3183 27.1911,7.745 C27.1911,9.565 26.7361,11.0467 25.8261,12.19 C24.9161,13.3333 23.6911,14.15 22.1511,14.64 L27.4361,23.845 C27.5061,23.985 27.5411,24.1133 27.5411,24.23 C27.5411,24.44 27.4594,24.6267 27.2961,24.79 C27.1561,24.93 26.9811,25 26.7711,25 L25.2661,25 C24.6127,25 24.1111,24.685 23.7611,24.055 L18.6861,15.13 L12.6661,15.13 L12.6661,24.055 C12.6661,24.3117 12.5727,24.5333 12.3861,24.72 C12.1994,24.9067 11.9777,25 11.7211,25 L10.2861,25 C10.0294,25 9.8077,24.9067 9.6211,24.72 C9.4344,24.5333 9.3411,24.3117 9.3411,24.055 L9.3411,1.445 C9.3411,1.18833 9.4344,0.96667 9.6211,0.78 C9.8077,0.59333 10.0294,0.5 10.2861,0.5 L18.7561,0.5 Z M18.5811,11.98 C22.1044,11.98 23.8661,10.5683 23.8661,7.745 C23.8661,6.2983 23.4227,5.26 22.5361,4.63 C21.6494,3.9767 20.3311,3.65 18.5811,3.65 L12.6661,3.65 L12.6661,11.98 L18.5811,11.98 Z M46.4028,1.375 C46.6128,0.79167 47.0678,0.5 47.7678,0.5 L49.0628,0.5 C49.2728,0.5 49.4478,0.58167 49.5878,0.745 C49.7511,0.885 49.8328,1.06 49.8328,1.27 C49.8328,1.38667 49.8094,1.50333 49.7628,1.62 L42.2028,23.6 C42.0628,24.0433 41.8294,24.3933 41.5028,24.65 C41.1994,24.8833 40.8144,25 40.3478,25 L38.9478,25 C38.0378,25 37.4311,24.5333 37.1278,23.6 L29.5328,1.62 C29.4861,1.50333 29.4628,1.38667 29.4628,1.27 C29.4628,1.06 29.5328,0.885 29.6728,0.745 C29.8361,0.58167 30.0228,0.5 30.2328,0.5 L31.5278,0.5 C32.2278,0.5 32.6828,0.79167 32.8928,1.375 L39.6478,21.5 L46.4028,1.375 Z M54.9589,25 C54.7022,25 54.4806,24.9067 54.2939,24.72 C54.1072,24.5333 54.0139,24.3117 54.0139,24.055 L54.0139,1.445 C54.0139,1.18833 54.1072,0.96667 54.2939,0.78 C54.4806,0.59333 54.7022,0.5 54.9589,0.5 L56.3939,0.5 C56.6506,0.5 56.8722,0.59333 57.0589,0.78 C57.2456,0.96667 57.3389,1.18833 57.3389,1.445 L57.3389,24.055 C57.3389,24.3117 57.2456,24.5333 57.0589,24.72 C56.8722,24.9067 56.6506,25 56.3939,25 L54.9589,25 Z M79.445,25 C79.1416,25 78.885,24.9067 78.675,24.72 C78.465,24.5333 78.255,24.2767 78.045,23.95 L66.67,6.835 L66.67,24.055 C66.67,24.3117 66.5766,24.5333 66.39,24.72 C66.2033,24.9067 65.9816,25 65.725,25 L64.29,25 C64.0333,25 63.8116,24.9067 63.625,24.72 C63.4383,24.5333 63.345,24.3117 63.345,24.055 L63.345,1.445 C63.345,1.18833 63.4383,0.96667 63.625,0.78 C63.8116,0.59333 64.0333,0.5 64.29,0.5 L65.515,0.5 C65.8183,0.5 66.075,0.59333 66.285,0.78 C66.495,0.96667 66.705,1.22333 66.915,1.55 L78.29,18.665 L78.29,1.445 C78.29,1.18833 78.3833,0.96667 78.57,0.78 C78.7566,0.59333 78.9783,0.5 79.235,0.5 L80.67,0.5 C80.9266,0.5 81.1483,0.59333 81.335,0.78 C81.5216,0.96667 81.615,1.18833 81.615,1.445 L81.615,24.055 C81.615,24.3117 81.5216,24.5333 81.335,24.72 C81.1483,24.9067 80.9266,25 80.67,25 L79.445,25 Z M96.7467,0.15 C98.73,0.15 100.445,0.52333 101.892,1.27 C103.338,1.99333 104.435,2.8917 105.182,3.965 C105.952,5.015 106.36,5.995 106.407,6.905 C106.43,7.115 106.36,7.3017 106.197,7.465 C106.033,7.605 105.847,7.675 105.637,7.675 L104.202,7.675 C103.665,7.675 103.327,7.5467 103.187,7.29 C102.51,5.9833 101.693,4.9917 100.737,4.315 C99.803,3.6383 98.473,3.3 96.7467,3.3 C94.7867,3.3 93.2001,3.86 91.9867,4.98 C90.7734,6.0767 90.1317,7.6633 90.0617,9.74 C90.0384,10.44 90.0267,11.4083 90.0267,12.645 C90.0267,13.8817 90.0384,14.85 90.0617,15.55 C90.1317,17.7433 90.7617,19.4 91.9517,20.52 C93.1651,21.64 94.7634,22.2 96.7467,22.2 C98.777,22.2 100.398,21.675 101.612,20.625 C102.825,19.5517 103.432,17.8717 103.432,15.585 L103.432,14.605 L98.392,14.605 C98.135,14.605 97.913,14.5117 97.727,14.325 C97.54,14.1383 97.447,13.9167 97.447,13.66 L97.447,12.4 C97.447,12.1433 97.54,11.9217 97.727,11.735 C97.913,11.5483 98.135,11.455 98.392,11.455 L105.812,11.455 C106.068,11.455 106.29,11.5483 106.477,11.735 C106.663,11.9217 106.757,12.1433 106.757,12.4 L106.757,15.725 C106.757,17.5917 106.36,19.26 105.567,20.73 C104.773,22.1767 103.618,23.3083 102.102,24.125 C100.608,24.9417 98.823,25.35 96.7467,25.35 C93.5267,25.35 91.0767,24.4633 89.3967,22.69 C87.7167,20.8933 86.8301,18.5717 86.7367,15.725 C86.7134,15.025 86.7017,13.9983 86.7017,12.645 C86.7017,11.2917 86.7134,10.265 86.7367,9.565 C86.8067,7.7683 87.2034,6.17 87.9267,4.77 C88.6734,3.3467 89.7817,2.2267 91.2517,1.41 C92.7451,0.57 94.5767,0.15 96.7467,0.15 Z M126.386,0.5 C126.642,0.5 126.864,0.59333 127.051,0.78 C127.237,0.96667 127.331,1.18833 127.331,1.445 L127.331,2.705 C127.331,2.9617 127.237,3.1833 127.051,3.37 C126.864,3.5567 126.642,3.65 126.386,3.65 L119.841,3.65 L119.841,24.055 C119.841,24.3117 119.747,24.5333 119.561,24.72 C119.374,24.9067 119.152,25 118.896,25 L117.461,25 C117.204,25 116.982,24.9067 116.796,24.72 C116.609,24.5333 116.516,24.3117 116.516,24.055 L116.516,3.65 L109.971,3.65 C109.714,3.65 109.492,3.5567 109.306,3.37 C109.119,3.1833 109.026,2.9617 109.026,2.705 L109.026,1.445 C109.026,1.18833 109.119,0.96667 109.306,0.78 C109.492,0.59333 109.714,0.5 109.971,0.5 L126.386,0.5 Z M139.326,0.15 C141.31,0.15 143.025,0.57 144.471,1.41 C145.918,2.25 147.015,3.3933 147.761,4.84 C148.531,6.2633 148.94,7.8617 148.986,9.635 C149.033,11.035 149.056,12.0733 149.056,12.75 C149.056,13.4267 149.033,14.465 148.986,15.865 C148.916,17.6383 148.496,19.2483 147.726,20.695 C146.98,22.1183 145.883,23.25 144.436,24.09 C143.013,24.93 141.31,25.35 139.326,25.35 C137.343,25.35 135.628,24.93 134.181,24.09 C132.758,23.25 131.661,22.1183 130.891,20.695 C130.145,19.2483 129.736,17.6383 129.666,15.865 C129.643,15.165 129.631,14.1267 129.631,12.75 C129.631,11.3733 129.643,10.335 129.666,9.635 C129.713,7.8617 130.11,6.2633 130.856,4.84 C131.626,3.3933 132.735,2.25 134.181,1.41 C135.628,0.57 137.343,0.15 139.326,0.15 Z M139.326,3.3 C137.46,3.3 135.955,3.8483 134.811,4.945 C133.668,6.0417 133.061,7.6633 132.991,9.81 C132.968,10.51 132.956,11.49 132.956,12.75 C132.956,14.01 132.968,14.99 132.991,15.69 C133.061,17.8367 133.668,19.4583 134.811,20.555 C135.955,21.6517 137.46,22.2 139.326,22.2 C141.193,22.2 142.698,21.6517 143.841,20.555 C144.985,19.4583 145.591,17.8367 145.661,15.69 C145.708,14.29 145.731,13.31 145.731,12.75 C145.731,12.19 145.708,11.21 145.661,9.81 C145.591,7.6633 144.985,6.0417 143.841,4.945 C142.698,3.8483 141.193,3.3 139.326,3.3 Z M170.192,25 C169.889,25 169.632,24.9067 169.422,24.72 C169.212,24.5333 169.002,24.2767 168.792,23.95 L157.417,6.835 L157.417,24.055 C157.417,24.3117 157.324,24.5333 157.137,24.72 C156.95,24.9067 156.729,25 156.472,25 L155.037,25 C154.78,25 154.559,24.9067 154.372,24.72 C154.185,24.5333 154.092,24.3117 154.092,24.055 L154.092,1.445 C154.092,1.18833 154.185,0.96667 154.372,0.78 C154.559,0.59333 154.78,0.5 155.037,0.5 L156.262,0.5 C156.565,0.5 156.822,0.59333 157.032,0.78 C157.242,0.96667 157.452,1.22333 157.662,1.55 L169.037,18.665 L169.037,1.445 C169.037,1.18833 169.13,0.96667 169.317,0.78 C169.504,0.59333 169.725,0.5 169.982,0.5 L171.417,0.5 C171.674,0.5 171.895,0.59333 172.082,0.78 C172.269,0.96667 172.362,1.18833 172.362,1.445 L172.362,24.055 C172.362,24.3117 172.269,24.5333 172.082,24.72 C171.895,24.9067 171.674,25 171.417,25 L170.192,25 Z" id="path1_fill"></path>
                        </g>
                    </g>
                </g>
                <path d="M2.08,22.8 C1.946666,22.8 1.8400004,22.7600004 1.76,22.68 C1.6799996,22.5999996 1.64,22.493334 1.64,22.36 L1.64,9.04 C1.64,8.906666 1.6799996,8.8000004 1.76,8.72 C1.8400004,8.6399996 1.946666,8.6 2.08,8.6 L2.42,8.6 C2.553334,8.6 2.6599996,8.6399996 2.74,8.72 C2.8200004,8.8000004 2.86,8.906666 2.86,9.04 L2.86,9.98 C3.6333372,8.9266614 4.753326,8.4 6.22,8.4 C7.6600072,8.4 8.7233299,8.8566621 9.41,9.77 C10.0966701,10.6833379 10.4599998,11.80666 10.5,13.14 C10.5133334,13.273334 10.52,13.4933318 10.52,13.8 C10.52,14.1066682 10.5133334,14.326666 10.5,14.46 C10.4599998,15.79334 10.0966701,16.9166621 9.41,17.83 C8.7233299,18.7433379 7.6600072,19.2 6.22,19.2 C4.7666594,19.2 3.6466706,18.6733386 2.86,17.62 L2.86,22.36 C2.86,22.493334 2.8200004,22.5999996 2.74,22.68 C2.6599996,22.7600004 2.553334,22.8 2.42,22.8 L2.08,22.8 Z M6.1,18.04 C7.1800054,18.04 7.9699975,17.6966701 8.47,17.01 C8.9700025,16.3233299 9.2399998,15.4400054 9.28,14.36 C9.2933334,14.226666 9.3,14.0400012 9.3,13.8 C9.3,12.5599938 9.0600024,11.5433373 8.58,10.75 C8.0999976,9.9566627 7.2733392,9.56 6.1,9.56 C5.0466614,9.56 4.253336,9.9099965 3.72,10.61 C3.186664,11.3100035 2.9000002,12.1333286 2.86,13.08 L2.84,13.86 L2.86,14.64 C2.8733334,15.2133362 2.9999988,15.7566641 3.24,16.27 C3.4800012,16.7833359 3.8399976,17.206665 4.32,17.54 C4.8000024,17.873335 5.3933298,18.04 6.1,18.04 Z M13.68,19 C13.546666,19 13.4400004,18.9600004 13.36,18.88 C13.2799996,18.7999996 13.24,18.693334 13.24,18.56 L13.24,9.06 C13.24,8.926666 13.2799996,8.8166671 13.36,8.73 C13.4400004,8.6433329 13.546666,8.6 13.68,8.6 L14,8.6 C14.133334,8.6 14.2433329,8.6433329 14.33,8.73 C14.4166671,8.8166671 14.46,8.926666 14.46,9.06 L14.46,9.98 C14.9400024,9.0599954 15.84666,8.6 17.18,8.6 L17.92,8.6 C18.053334,8.6 18.1599996,8.6399996 18.24,8.72 C18.3200004,8.8000004 18.36,8.906666 18.36,9.04 L18.36,9.32 C18.36,9.453334 18.3200004,9.5599996 18.24,9.64 C18.1599996,9.7200004 18.053334,9.76 17.92,9.76 L17.06,9.76 C16.259996,9.76 15.626669,9.993331 15.16,10.46 C14.693331,10.926669 14.46,11.559996 14.46,12.36 L14.46,18.56 C14.46,18.693334 14.4166671,18.7999996 14.33,18.88 C14.2433329,18.9600004 14.133334,19 14,19 L13.68,19 Z M23.82,19.2 C22.553327,19.2 21.5333372,18.7833375 20.76,17.95 C19.9866628,17.1166625 19.5466672,16.000007 19.44,14.6 L19.42,13.8 L19.44,13 C19.5466672,11.6133264 19.9833295,10.5000042 20.75,9.66 C21.5166705,8.8199958 22.5399936,8.4 23.82,8.4 C25.2066736,8.4 26.2899961,8.8599954 27.07,9.78 C27.8500039,10.7000046 28.24,11.959992 28.24,13.56 L28.24,13.86 C28.24,13.993334 28.1966671,14.0999996 28.11,14.18 C28.0233329,14.2600004 27.913334,14.3 27.78,14.3 L20.66,14.3 L20.66,14.5 C20.6866668,15.1266698 20.8299987,15.7099973 21.09,16.25 C21.3500013,16.7900027 21.713331,17.2233317 22.18,17.55 C22.646669,17.8766683 23.1933302,18.04 23.82,18.04 C24.553337,18.04 25.1499977,17.8966681 25.61,17.61 C26.0700023,17.3233319 26.399999,17.0333348 26.6,16.74 C26.7200006,16.5799992 26.8099997,16.4800002 26.87,16.44 C26.9300003,16.3999998 27.0399992,16.38 27.2,16.38 L27.52,16.38 C27.6400006,16.38 27.7399996,16.413333 27.82,16.48 C27.9000004,16.546667 27.94,16.6333328 27.94,16.74 C27.94,17.0200014 27.7633351,17.3566647 27.41,17.75 C27.0566649,18.1433353 26.5666698,18.4833319 25.94,18.77 C25.3133302,19.0566681 24.6066706,19.2 23.82,19.2 Z M27.02,13.18 L27.02,13.1 C27.02,12.0733282 26.7300029,11.22667 26.15,10.56 C25.5699971,9.89333 24.7933382,9.56 23.82,9.56 C22.8466618,9.56 22.0766695,9.89333 21.51,10.56 C20.9433305,11.22667 20.66,12.0733282 20.66,13.1 L20.66,13.18 L27.02,13.18 Z M34.18,19.2 C33.313329,19.2 32.5833363,19.0533348 31.99,18.76 C31.3966637,18.4666652 30.9500015,18.1333352 30.65,17.76 C30.3499985,17.3866648 30.2,17.0866678 30.2,16.86 C30.2,16.7399994 30.2466662,16.6433337 30.34,16.57 C30.4333338,16.4966663 30.5333328,16.46 30.64,16.46 L30.94,16.46 C31.0333338,16.46 31.1099997,16.4766665 31.17,16.51 C31.2300003,16.5433335 31.2999996,16.6133328 31.38,16.72 C31.6733348,17.1333354 32.0299979,17.4566655 32.45,17.69 C32.8700021,17.9233345 33.446663,18.04 34.18,18.04 C35.0066708,18.04 35.6733308,17.8833349 36.18,17.57 C36.6866692,17.2566651 36.94,16.8066696 36.94,16.22 C36.94,15.8599982 36.8366677,15.5666678 36.63,15.34 C36.4233323,15.1133322 36.0900023,14.9166675 35.63,14.75 C35.1699977,14.5833325 34.4866712,14.3933344 33.58,14.18 C32.3933274,13.913332 31.5833355,13.546669 31.15,13.08 C30.7166645,12.613331 30.5,12.0200036 30.5,11.3 C30.5,10.8066642 30.6366653,10.3400022 30.91,9.9 C31.1833347,9.4599978 31.5899973,9.1000014 32.13,8.82 C32.6700027,8.5399986 33.3199962,8.4 34.08,8.4 C34.880004,8.4 35.5566639,8.5366653 36.11,8.81 C36.6633361,9.0833347 37.0766653,9.3999982 37.35,9.76 C37.6233347,10.1200018 37.76,10.4133322 37.76,10.64 C37.76,10.7600006 37.7166671,10.8566663 37.63,10.93 C37.5433329,11.0033337 37.4400006,11.04 37.32,11.04 L37.02,11.04 C36.8333324,11.04 36.6866672,10.9533342 36.58,10.78 C36.313332,10.379998 36.0100017,10.0766677 35.67,9.87 C35.3299983,9.6633323 34.8000036,9.56 34.08,9.56 C33.3066628,9.56 32.720002,9.7199984 32.32,10.04 C31.919998,10.3600016 31.72,10.7799974 31.72,11.3 C31.72,11.6200016 31.7999992,11.8866656 31.96,12.1 C32.1200008,12.3133344 32.4199978,12.5099991 32.86,12.69 C33.3000022,12.8700009 33.9399958,13.0533324 34.78,13.24 C36.0200062,13.5200014 36.8933308,13.893331 37.4,14.36 C37.9066692,14.826669 38.16,15.4466628 38.16,16.22 C38.16,16.7666694 38.0066682,17.2666644 37.7,17.72 C37.3933318,18.1733356 36.940003,18.533332 36.34,18.8 C35.739997,19.066668 35.0200042,19.2 34.18,19.2 Z M44.58,19.2 C43.313327,19.2 42.2933372,18.7833375 41.52,17.95 C40.7466628,17.1166625 40.3066672,16.000007 40.2,14.6 L40.18,13.8 L40.2,13 C40.3066672,11.6133264 40.7433295,10.5000042 41.51,9.66 C42.2766705,8.8199958 43.2999936,8.4 44.58,8.4 C45.9666736,8.4 47.0499961,8.8599954 47.83,9.78 C48.6100039,10.7000046 49,11.959992 49,13.56 L49,13.86 C49,13.993334 48.9566671,14.0999996 48.87,14.18 C48.7833329,14.2600004 48.673334,14.3 48.54,14.3 L41.42,14.3 L41.42,14.5 C41.4466668,15.1266698 41.5899987,15.7099973 41.85,16.25 C42.1100013,16.7900027 42.473331,17.2233317 42.94,17.55 C43.406669,17.8766683 43.9533302,18.04 44.58,18.04 C45.313337,18.04 45.9099977,17.8966681 46.37,17.61 C46.8300023,17.3233319 47.159999,17.0333348 47.36,16.74 C47.4800006,16.5799992 47.5699997,16.4800002 47.63,16.44 C47.6900003,16.3999998 47.7999992,16.38 47.96,16.38 L48.28,16.38 C48.4000006,16.38 48.4999996,16.413333 48.58,16.48 C48.6600004,16.546667 48.7,16.6333328 48.7,16.74 C48.7,17.0200014 48.5233351,17.3566647 48.17,17.75 C47.8166649,18.1433353 47.3266698,18.4833319 46.7,18.77 C46.0733302,19.0566681 45.3666706,19.2 44.58,19.2 Z M47.78,13.18 L47.78,13.1 C47.78,12.0733282 47.4900029,11.22667 46.91,10.56 C46.3299971,9.89333 45.5533382,9.56 44.58,9.56 C43.6066618,9.56 42.8366695,9.89333 42.27,10.56 C41.7033305,11.22667 41.42,12.0733282 41.42,13.1 L41.42,13.18 L47.78,13.18 Z M52.08,19 C51.946666,19 51.8400004,18.9600004 51.76,18.88 C51.6799996,18.7999996 51.64,18.693334 51.64,18.56 L51.64,9.04 C51.64,8.906666 51.6799996,8.8000004 51.76,8.72 C51.8400004,8.6399996 51.946666,8.6 52.08,8.6 L52.42,8.6 C52.553334,8.6 52.6599996,8.6399996 52.74,8.72 C52.8200004,8.8000004 52.86,8.906666 52.86,9.04 L52.86,9.98 C53.260002,9.4599974 53.7166641,9.066668 54.23,8.8 C54.7433359,8.533332 55.4066626,8.4 56.22,8.4 C57.5266732,8.4 58.5333298,8.8166625 59.24,9.65 C59.9466702,10.4833375 60.3,11.5599934 60.3,12.88 L60.3,18.56 C60.3,18.693334 60.2600004,18.7999996 60.18,18.88 C60.0999996,18.9600004 59.993334,19 59.86,19 L59.52,19 C59.386666,19 59.2800004,18.9600004 59.2,18.88 C59.1199996,18.7999996 59.08,18.693334 59.08,18.56 L59.08,12.98 C59.08,11.8999946 58.8166693,11.060003 58.29,10.46 C57.7633307,9.859997 57.0066716,9.56 56.02,9.56 C55.0599952,9.56 54.2933362,9.8633303 53.72,10.47 C53.1466638,11.0766697 52.86,11.913328 52.86,12.98 L52.86,18.56 C52.86,18.693334 52.8200004,18.7999996 52.74,18.88 C52.6599996,18.9600004 52.553334,19 52.42,19 L52.08,19 Z M66.78,19 C65.7933284,19 65.0933354,18.7033363 64.68,18.11 C64.2666646,17.5166637 64.06,16.7000052 64.06,15.66 L64.06,9.76 L62.5,9.76 C62.366666,9.76 62.2600004,9.7200004 62.18,9.64 C62.0999996,9.5599996 62.06,9.453334 62.06,9.32 L62.06,9.04 C62.06,8.906666 62.0999996,8.8000004 62.18,8.72 C62.2600004,8.6399996 62.366666,8.6 62.5,8.6 L64.06,8.6 L64.06,5.24 C64.06,5.106666 64.0999996,5.0000004 64.18,4.92 C64.2600004,4.8399996 64.366666,4.8 64.5,4.8 L64.84,4.8 C64.973334,4.8 65.0799996,4.8399996 65.16,4.92 C65.2400004,5.0000004 65.28,5.106666 65.28,5.24 L65.28,8.6 L67.76,8.6 C67.893334,8.6 67.9999996,8.6399996 68.08,8.72 C68.1600004,8.8000004 68.2,8.906666 68.2,9.04 L68.2,9.32 C68.2,9.453334 68.1600004,9.5599996 68.08,9.64 C67.9999996,9.7200004 67.893334,9.76 67.76,9.76 L65.28,9.76 L65.28,15.58 C65.28,16.3266704 65.4033321,16.8899981 65.65,17.27 C65.8966679,17.6500019 66.3066638,17.84 66.88,17.84 L67.96,17.84 C68.093334,17.84 68.1999996,17.8799996 68.28,17.96 C68.3600004,18.0400004 68.4,18.146666 68.4,18.28 L68.4,18.56 C68.4,18.693334 68.3600004,18.7999996 68.28,18.88 C68.1999996,18.9600004 68.093334,19 67.96,19 L66.78,19 Z M74.32,19.2 C73.053327,19.2 72.0333372,18.7833375 71.26,17.95 C70.4866628,17.1166625 70.0466672,16.000007 69.94,14.6 L69.92,13.8 L69.94,13 C70.0466672,11.6133264 70.4833295,10.5000042 71.25,9.66 C72.0166705,8.8199958 73.0399936,8.4 74.32,8.4 C75.7066736,8.4 76.7899961,8.8599954 77.57,9.78 C78.3500039,10.7000046 78.74,11.959992 78.74,13.56 L78.74,13.86 C78.74,13.993334 78.6966671,14.0999996 78.61,14.18 C78.5233329,14.2600004 78.413334,14.3 78.28,14.3 L71.16,14.3 L71.16,14.5 C71.1866668,15.1266698 71.3299987,15.7099973 71.59,16.25 C71.8500013,16.7900027 72.213331,17.2233317 72.68,17.55 C73.146669,17.8766683 73.6933302,18.04 74.32,18.04 C75.053337,18.04 75.6499977,17.8966681 76.11,17.61 C76.5700023,17.3233319 76.899999,17.0333348 77.1,16.74 C77.2200006,16.5799992 77.3099997,16.4800002 77.37,16.44 C77.4300003,16.3999998 77.5399992,16.38 77.7,16.38 L78.02,16.38 C78.1400006,16.38 78.2399996,16.413333 78.32,16.48 C78.4000004,16.546667 78.44,16.6333328 78.44,16.74 C78.44,17.0200014 78.2633351,17.3566647 77.91,17.75 C77.5566649,18.1433353 77.0666698,18.4833319 76.44,18.77 C75.8133302,19.0566681 75.1066706,19.2 74.32,19.2 Z M77.52,13.18 L77.52,13.1 C77.52,12.0733282 77.2300029,11.22667 76.65,10.56 C76.0699971,9.89333 75.2933382,9.56 74.32,9.56 C73.3466618,9.56 72.5766695,9.89333 72.01,10.56 C71.4433305,11.22667 71.16,12.0733282 71.16,13.1 L71.16,13.18 L77.52,13.18 Z M85.14,19.2 C83.6999928,19.2 82.6366701,18.7300047 81.95,17.79 C81.2633299,16.8499953 80.9000002,15.7066734 80.86,14.36 L80.84,13.8 L80.86,13.24 C80.9000002,11.8933266 81.2633299,10.7500047 81.95,9.81 C82.6366701,8.8699953 83.6999928,8.4 85.14,8.4 C86.5933406,8.4 87.7133294,8.9266614 88.5,9.98 L88.5,5.24 C88.5,5.106666 88.5399996,5.0000004 88.62,4.92 C88.7000004,4.8399996 88.806666,4.8 88.94,4.8 L89.28,4.8 C89.413334,4.8 89.5199996,4.8399996 89.6,4.92 C89.6800004,5.0000004 89.72,5.106666 89.72,5.24 L89.72,18.56 C89.72,18.693334 89.6800004,18.7999996 89.6,18.88 C89.5199996,18.9600004 89.413334,19 89.28,19 L88.94,19 C88.806666,19 88.7000004,18.9600004 88.62,18.88 C88.5399996,18.7999996 88.5,18.693334 88.5,18.56 L88.5,17.62 C87.7266628,18.6733386 86.606674,19.2 85.14,19.2 Z M85.26,18.04 C86.3133386,18.04 87.106664,17.6900035 87.64,16.99 C88.173336,16.2899965 88.4599998,15.4666714 88.5,14.52 C88.5133334,14.386666 88.52,14.1266686 88.52,13.74 C88.52,13.3533314 88.5133334,13.093334 88.5,12.96 C88.4866666,12.3866638 88.3600012,11.8433359 88.12,11.33 C87.8799988,10.8166641 87.5200024,10.393335 87.04,10.06 C86.5599976,9.726665 85.9666702,9.56 85.26,9.56 C84.1799946,9.56 83.3900025,9.9033299 82.89,10.59 C82.3899975,11.2766701 82.1200002,12.1599946 82.08,13.24 L82.06,13.8 C82.06,15.0400062 82.2999976,16.0566627 82.78,16.85 C83.2600024,17.6433373 84.0866608,18.04 85.26,18.04 Z M102.74,19.2 C101.273326,19.2 100.153337,18.6733386 99.38,17.62 L99.38,18.56 C99.38,18.693334 99.3400004,18.7999996 99.26,18.88 C99.1799996,18.9600004 99.073334,19 98.94,19 L98.6,19 C98.466666,19 98.3600004,18.9600004 98.28,18.88 C98.1999996,18.7999996 98.16,18.693334 98.16,18.56 L98.16,5.24 C98.16,5.106666 98.1999996,5.0000004 98.28,4.92 C98.3600004,4.8399996 98.466666,4.8 98.6,4.8 L98.94,4.8 C99.073334,4.8 99.1799996,4.8399996 99.26,4.92 C99.3400004,5.0000004 99.38,5.106666 99.38,5.24 L99.38,9.98 C100.166671,8.9266614 101.286659,8.4 102.74,8.4 C104.180007,8.4 105.24333,8.8699953 105.93,9.81 C106.61667,10.7500047 106.98,11.8933266 107.02,13.24 C107.033333,13.373334 107.04,13.5599988 107.04,13.8 C107.04,14.0400012 107.033333,14.226666 107.02,14.36 C106.98,15.7066734 106.61667,16.8499953 105.93,17.79 C105.24333,18.7300047 104.180007,19.2 102.74,19.2 Z M102.62,18.04 C103.700005,18.04 104.489998,17.6966701 104.99,17.01 C105.490003,16.3233299 105.76,15.4400054 105.8,14.36 C105.813333,14.226666 105.82,14.0400012 105.82,13.8 C105.82,12.5599938 105.580002,11.5433373 105.1,10.75 C104.619998,9.9566627 103.793339,9.56 102.62,9.56 C101.91333,9.56 101.320002,9.726665 100.84,10.06 C100.359998,10.393335 100.000001,10.8166641 99.76,11.33 C99.5199988,11.8433359 99.3933334,12.3866638 99.38,12.96 L99.36,13.74 L99.38,14.52 C99.4200002,15.4666714 99.706664,16.2899965 100.24,16.99 C100.773336,17.6900035 101.566661,18.04 102.62,18.04 Z M111.12,22.8 C111.013333,22.8 110.92,22.7600004 110.84,22.68 C110.76,22.5999996 110.72,22.5066672 110.72,22.4 C110.72,22.333333 110.76,22.200001 110.84,22 L112.38,18.4 L108.56,9.4 C108.48,9.199999 108.44,9.066667 108.44,9 C108.44,8.8933328 108.48,8.8000004 108.56,8.72 C108.64,8.6399996 108.733333,8.6 108.84,8.6 L109.26,8.6 C109.473334,8.6 109.626666,8.699999 109.72,8.9 L113.08,16.82 L116.52,8.9 C116.626667,8.699999 116.779999,8.6 116.98,8.6 L117.38,8.6 C117.486667,8.6 117.58,8.6399996 117.66,8.72 C117.74,8.8000004 117.78,8.8933328 117.78,9 C117.78,9.066667 117.74,9.199999 117.66,9.4 L111.98,22.5 C111.886666,22.700001 111.733334,22.8 111.52,22.8 L111.12,22.8 Z" id="presented-by"></path>
            </g>
        </g>
    </g>
</svg>