
<svg width="675px" height="119px" viewBox="0 0 675 119" version="1.1" xmlns="http://www.w3.org/2000/svg" xmlns:xlink="http://www.w3.org/1999/xlink">
    <!-- Generator: Sketch 47.1 (45422) - http://www.bohemiancoding.com/sketch -->
    <desc>Created with Sketch.</desc>
    <defs></defs>
    <g id="Page-1" stroke="none" stroke-width="1" fill="none" fill-rule="evenodd">
        <path d="M2.035,44.4354167 C1.62527573,44.4354167 1.27701532,44.2920153 0.990208333,44.0052083 C0.703401344,43.7184013 0.56,43.3701409 0.56,42.9604167 L0.56,2.88958333 C0.56,2.43888664 0.703401344,2.08038328 0.990208333,1.8140625 C1.27701532,1.54774172 1.62527573,1.41458333 2.035,1.41458333 L7.935,1.41458333 C8.3856967,1.41458333 8.74420006,1.54774172 9.01052083,1.8140625 C9.27684161,2.08038328 9.41,2.43888664 9.41,2.88958333 L9.41,42.9604167 C9.41,43.3701409 9.27684161,43.7184013 9.01052083,44.0052083 C8.74420006,44.2920153 8.3856967,44.4354167 7.935,44.4354167 L2.035,44.4354167 Z M20.4725,44.4354167 C20.0627757,44.4354167 19.7145153,44.2920153 19.4277083,44.0052083 C19.1409013,43.7184013 18.9975,43.3701409 18.9975,42.9604167 L18.9975,2.95104167 C18.9975,2.50034497 19.1306584,2.13159866 19.3969792,1.84479167 C19.6632999,1.55798468 20.0218033,1.41458333 20.4725,1.41458333 L36.3902083,1.41458333 C41.4298169,1.41458333 45.3733538,2.58227999 48.2209375,4.91770833 C51.0685212,7.25313668 52.4922917,10.5718535 52.4922917,14.8739583 C52.4922917,17.8649455 51.7752849,20.374469 50.34125,22.4026042 C48.9072151,24.4307393 46.8995962,25.8954816 44.3183333,26.796875 L53.2297917,42.46875 C53.3527089,42.7145846 53.4141667,42.9399295 53.4141667,43.1447917 C53.4141667,43.5135435 53.2810083,43.8208321 53.0146875,44.0666667 C52.7483667,44.3125012 52.4513211,44.4354167 52.1235417,44.4354167 L46.469375,44.4354167 C45.8138162,44.4354167 45.3016685,44.2817724 44.9329167,43.9744792 C44.5641648,43.667186 44.2363903,43.2677108 43.9495833,42.7760417 L36.0829167,28.2104167 L27.663125,28.2104167 L27.663125,42.9604167 C27.663125,43.3701409 27.5197237,43.7184013 27.2329167,44.0052083 C26.9461097,44.2920153 26.5773634,44.4354167 26.1266667,44.4354167 L20.4725,44.4354167 Z M36.2058333,21.2041667 C38.664179,21.2041667 40.5079105,20.6612902 41.7370833,19.5755208 C42.9662561,18.4897515 43.5808333,16.9020938 43.5808333,14.8125 C43.5808333,12.7229062 42.9662561,11.1147626 41.7370833,9.98802083 C40.5079105,8.86127909 38.664179,8.29791667 36.2058333,8.29791667 L27.663125,8.29791667 L27.663125,21.2041667 L36.2058333,21.2041667 Z M71.6058333,44.4354167 C70.3766605,44.4354167 69.5777102,43.8618113 69.2089583,42.7145833 L56.056875,3.25833333 C56.0159026,3.13541605 55.9954167,2.9510429 55.9954167,2.70520833 C55.9954167,2.33645649 56.1183321,2.0291679 56.3641667,1.78333333 C56.6100012,1.53749877 56.9172898,1.41458333 57.2860417,1.41458333 L62.7558333,1.41458333 C63.2884749,1.41458333 63.7186789,1.55798468 64.0464583,1.84479167 C64.3742378,2.13159866 64.5995827,2.43888725 64.7225,2.76666667 L74.9860417,34.2333333 L85.3110417,2.76666667 C85.3929865,2.43888725 85.5978456,2.13159866 85.925625,1.84479167 C86.2534044,1.55798468 86.6836084,1.41458333 87.21625,1.41458333 L92.7475,1.41458333 C93.0752794,1.41458333 93.3723251,1.53749877 93.6386458,1.78333333 C93.9049666,2.0291679 94.038125,2.33645649 94.038125,2.70520833 L93.9152083,3.25833333 L80.8245833,42.7145833 C80.4148591,43.8618113 79.6159087,44.4354167 78.4277083,44.4354167 L71.6058333,44.4354167 Z M102.027708,44.4354167 C101.617984,44.4354167 101.269724,44.2920153 100.982917,44.0052083 C100.69611,43.7184013 100.552708,43.3701409 100.552708,42.9604167 L100.552708,2.88958333 C100.552708,2.43888664 100.69611,2.08038328 100.982917,1.8140625 C101.269724,1.54774172 101.617984,1.41458333 102.027708,1.41458333 L107.927708,1.41458333 C108.378405,1.41458333 108.736908,1.54774172 109.003229,1.8140625 C109.26955,2.08038328 109.402708,2.43888664 109.402708,2.88958333 L109.402708,42.9604167 C109.402708,43.3701409 109.26955,43.7184013 109.003229,44.0052083 C108.736908,44.2920153 108.378405,44.4354167 107.927708,44.4354167 L102.027708,44.4354167 Z M120.465208,44.4354167 C120.055484,44.4354167 119.707224,44.2920153 119.420417,44.0052083 C119.13361,43.7184013 118.990208,43.3701409 118.990208,42.9604167 L118.990208,2.95104167 C118.990208,2.50034497 119.123367,2.13159866 119.389688,1.84479167 C119.656008,1.55798468 120.014512,1.41458333 120.465208,1.41458333 L125.258958,1.41458333 C126.037434,1.41458333 126.631526,1.76284374 127.04125,2.459375 L144.618333,29.746875 L144.618333,2.95104167 C144.618333,2.50034497 144.751492,2.13159866 145.017813,1.84479167 C145.284133,1.55798468 145.642637,1.41458333 146.093333,1.41458333 L151.37875,1.41458333 C151.829447,1.41458333 152.198193,1.55798468 152.485,1.84479167 C152.771807,2.13159866 152.915208,2.50034497 152.915208,2.95104167 L152.915208,42.8989583 C152.915208,43.349655 152.771807,43.7184013 152.485,44.0052083 C152.198193,44.2920153 151.849933,44.4354167 151.440208,44.4354167 L146.585,44.4354167 C145.765551,44.4354167 145.150974,44.0871563 144.74125,43.390625 L127.225625,16.7177083 L127.225625,42.9604167 C127.225625,43.3701409 127.092467,43.7184013 126.826146,44.0052083 C126.559825,44.2920153 126.201322,44.4354167 125.750625,44.4354167 L120.465208,44.4354167 Z M179.219375,45.05 C173.56518,45.05 169.170953,43.5955007 166.036563,40.6864583 C162.902172,37.777416 161.23257,33.7212066 161.027708,28.5177083 C160.986736,27.3295079 160.96625,25.4243187 160.96625,22.8020833 C160.96625,20.179848 160.986736,18.2746587 161.027708,17.0864583 C161.191598,12.0058774 162.871442,8.02136861 166.067292,5.1328125 C169.263141,2.24425639 173.647125,0.8 179.219375,0.8 C182.988838,0.8 186.235854,1.44530605 188.960521,2.7359375 C191.685187,4.02656895 193.744021,5.62446964 195.137083,7.5296875 C196.530146,9.43490536 197.267638,11.3093658 197.349583,13.153125 C197.349583,13.5218768 197.226668,13.8291654 196.980833,14.075 C196.734999,14.3208346 196.407224,14.44375 195.9975,14.44375 L189.544375,14.44375 C189.134651,14.44375 188.827362,14.3618064 188.6225,14.1979167 C188.417638,14.034027 188.233265,13.7677102 188.069375,13.3989583 C187.495761,11.8829785 186.491952,10.5923664 185.057917,9.52708333 C183.623882,8.46180023 181.677721,7.92916667 179.219375,7.92916667 C176.351305,7.92916667 174.108098,8.69738815 172.489688,10.2338542 C170.871277,11.7703202 170.021112,14.1569283 169.939167,17.39375 C169.898194,18.5819504 169.877708,20.3847101 169.877708,22.8020833 C169.877708,25.1784841 169.898194,26.9812439 169.939167,28.2104167 C170.021112,31.5291833 170.88152,33.9772491 172.520417,35.5546875 C174.159314,37.1321259 176.412763,37.9208333 179.280833,37.9208333 C182.189876,37.9208333 184.525269,37.1423689 186.287083,35.5854167 C188.048898,34.0284644 188.929792,31.6930711 188.929792,28.5791667 L188.929792,26.6739583 L181.431875,26.6739583 C181.022151,26.6739583 180.67389,26.530557 180.387083,26.24375 C180.100276,25.956943 179.956875,25.6086826 179.956875,25.1989583 L179.956875,21.81875 C179.956875,21.4090257 180.100276,21.0607653 180.387083,20.7739583 C180.67389,20.4871513 181.022151,20.34375 181.431875,20.34375 L196.181875,20.34375 C196.632572,20.34375 197.001318,20.4871513 197.288125,20.7739583 C197.574932,21.0607653 197.718333,21.4090257 197.718333,21.81875 L197.718333,28.3333333 C197.718333,31.7340448 196.960355,34.6942582 195.444375,37.2140625 C193.928395,39.7338668 191.777375,41.6697849 188.99125,43.021875 C186.205125,44.3739651 182.947866,45.05 179.219375,45.05 Z M216.032917,44.4354167 C215.623192,44.4354167 215.274932,44.2920153 214.988125,44.0052083 C214.701318,43.7184013 214.557917,43.3701409 214.557917,42.9604167 L214.557917,9.096875 L203.188125,9.096875 C202.778401,9.096875 202.43014,8.95347366 202.143333,8.66666667 C201.856526,8.37985968 201.713125,8.01111336 201.713125,7.56041667 L201.713125,2.95104167 C201.713125,2.50034497 201.846283,2.13159866 202.112604,1.84479167 C202.378925,1.55798468 202.737428,1.41458333 203.188125,1.41458333 L234.593333,1.41458333 C235.04403,1.41458333 235.412776,1.55798468 235.699583,1.84479167 C235.98639,2.13159866 236.129792,2.50034497 236.129792,2.95104167 L236.129792,7.56041667 C236.129792,8.01111336 235.98639,8.37985968 235.699583,8.66666667 C235.412776,8.95347366 235.04403,9.096875 234.593333,9.096875 L223.285,9.096875 L223.285,42.9604167 C223.285,43.3701409 223.151842,43.7184013 222.885521,44.0052083 C222.6192,44.2920153 222.260697,44.4354167 221.81,44.4354167 L216.032917,44.4354167 Z M258.131875,45.05 C252.518652,45.05 248.155154,43.6364725 245.04125,40.809375 C241.927346,37.9822775 240.288473,33.7826668 240.124583,28.2104167 C240.083611,27.0222163 240.063125,25.2809143 240.063125,22.9864583 C240.063125,20.65103 240.083611,18.8892421 240.124583,17.7010417 C240.288473,12.2517089 241.968317,8.07258399 245.164167,5.16354167 C248.360016,2.25449934 252.682542,0.8 258.131875,0.8 C263.540235,0.8 267.852519,2.25449934 271.068854,5.16354167 C274.28519,8.07258399 275.975277,12.2517089 276.139167,17.7010417 C276.221112,20.0774424 276.262083,21.8392304 276.262083,22.9864583 C276.262083,24.0927139 276.221112,25.8340159 276.139167,28.2104167 C275.975277,33.7826668 274.326162,37.9822775 271.191771,40.809375 C268.05738,43.6364725 263.704125,45.05 258.131875,45.05 Z M258.131875,37.9208333 C260.877028,37.9208333 263.048534,37.1013971 264.646458,35.4625 C266.244383,33.8236029 267.104791,31.3038364 267.227708,27.903125 C267.309653,25.4447794 267.350625,23.785421 267.350625,22.925 C267.350625,21.9826342 267.309653,20.3232758 267.227708,17.946875 C267.104791,14.587136 266.223897,12.0776125 264.585,10.4182292 C262.946103,8.75884587 260.795083,7.92916667 258.131875,7.92916667 C255.427695,7.92916667 253.256189,8.75884587 251.617292,10.4182292 C249.978395,12.0776125 249.117987,14.587136 249.036042,17.946875 C248.995069,19.1350754 248.974583,20.7944338 248.974583,22.925 C248.974583,25.0145938 248.995069,26.6739522 249.036042,27.903125 C249.117987,31.262864 249.968152,33.7723875 251.586563,35.4317708 C253.204973,37.0911541 255.386722,37.9208333 258.131875,37.9208333 Z M285.726667,44.4354167 C285.316942,44.4354167 284.968682,44.2920153 284.681875,44.0052083 C284.395068,43.7184013 284.251667,43.3701409 284.251667,42.9604167 L284.251667,2.95104167 C284.251667,2.50034497 284.384825,2.13159866 284.651146,1.84479167 C284.917467,1.55798468 285.27597,1.41458333 285.726667,1.41458333 L290.520417,1.41458333 C291.298893,1.41458333 291.892984,1.76284374 292.302708,2.459375 L309.879792,29.746875 L309.879792,2.95104167 C309.879792,2.50034497 310.01295,2.13159866 310.279271,1.84479167 C310.545592,1.55798468 310.904095,1.41458333 311.354792,1.41458333 L316.640208,1.41458333 C317.090905,1.41458333 317.459651,1.55798468 317.746458,1.84479167 C318.033265,2.13159866 318.176667,2.50034497 318.176667,2.95104167 L318.176667,42.8989583 C318.176667,43.349655 318.033265,43.7184013 317.746458,44.0052083 C317.459651,44.2920153 317.111391,44.4354167 316.701667,44.4354167 L311.846458,44.4354167 C311.02701,44.4354167 310.412433,44.0871563 310.002708,43.390625 L292.487083,16.7177083 L292.487083,42.9604167 C292.487083,43.3701409 292.353925,43.7184013 292.087604,44.0052083 C291.821283,44.2920153 291.46278,44.4354167 291.012083,44.4354167 L285.726667,44.4354167 Z M352.654792,44.4354167 C351.425619,44.4354167 350.626669,43.8618113 350.257917,42.7145833 L337.105833,3.25833333 C337.064861,3.13541605 337.044375,2.9510429 337.044375,2.70520833 C337.044375,2.33645649 337.16729,2.0291679 337.413125,1.78333333 C337.65896,1.53749877 337.966248,1.41458333 338.335,1.41458333 L343.804792,1.41458333 C344.337433,1.41458333 344.767637,1.55798468 345.095417,1.84479167 C345.423196,2.13159866 345.648541,2.43888725 345.771458,2.76666667 L356.035,34.2333333 L366.36,2.76666667 C366.441945,2.43888725 366.646804,2.13159866 366.974583,1.84479167 C367.302363,1.55798468 367.732567,1.41458333 368.265208,1.41458333 L373.796458,1.41458333 C374.124238,1.41458333 374.421283,1.53749877 374.687604,1.78333333 C374.953925,2.0291679 375.087083,2.33645649 375.087083,2.70520833 L374.964167,3.25833333 L361.873542,42.7145833 C361.463817,43.8618113 360.664867,44.4354167 359.476667,44.4354167 L352.654792,44.4354167 Z M383.076667,44.4354167 C382.666942,44.4354167 382.318682,44.2920153 382.031875,44.0052083 C381.745068,43.7184013 381.601667,43.3701409 381.601667,42.9604167 L381.601667,2.95104167 C381.601667,2.50034497 381.734825,2.13159866 382.001146,1.84479167 C382.267467,1.55798468 382.62597,1.41458333 383.076667,1.41458333 L410.179792,1.41458333 C410.630488,1.41458333 410.999235,1.55798468 411.286042,1.84479167 C411.572849,2.13159866 411.71625,2.50034497 411.71625,2.95104167 L411.71625,7.06875 C411.71625,7.5194467 411.572849,7.87795006 411.286042,8.14427083 C410.999235,8.41059161 410.630488,8.54375 410.179792,8.54375 L390.021458,8.54375 L390.021458,19.2989583 L408.827708,19.2989583 C409.278405,19.2989583 409.647151,19.4423597 409.933958,19.7291667 C410.220765,20.0159737 410.364167,20.38472 410.364167,20.8354167 L410.364167,24.7072917 C410.364167,25.1579884 410.220765,25.5164917 409.933958,25.7828125 C409.647151,26.0491333 409.278405,26.1822917 408.827708,26.1822917 L390.021458,26.1822917 L390.021458,37.30625 L410.671458,37.30625 C411.122155,37.30625 411.490901,37.4394084 411.777708,37.7057292 C412.064515,37.9720499 412.207917,38.3305533 412.207917,38.78125 L412.207917,42.9604167 C412.207917,43.4111134 412.064515,43.7696167 411.777708,44.0359375 C411.490901,44.3022583 411.122155,44.4354167 410.671458,44.4354167 L383.076667,44.4354167 Z M417.431875,44.4354167 C417.104096,44.4354167 416.80705,44.3125012 416.540729,44.0666667 C416.274408,43.8208321 416.14125,43.5135435 416.14125,43.1447917 C416.14125,42.980902 416.223194,42.7350711 416.387083,42.4072917 L430.092292,22.4947917 L417.2475,3.44270833 C417.08361,3.19687377 417.001667,2.9510429 417.001667,2.70520833 C417.001667,2.33645649 417.134825,2.0291679 417.401146,1.78333333 C417.667467,1.53749877 417.964512,1.41458333 418.292292,1.41458333 L424.745417,1.41458333 C425.48292,1.41458333 426.117983,1.80381555 426.650625,2.58229167 L435.623542,15.734375 L444.657917,2.58229167 C445.108613,1.80381555 445.743676,1.41458333 446.563125,1.41458333 L452.6475,1.41458333 C452.975279,1.41458333 453.272325,1.53749877 453.538646,1.78333333 C453.804967,2.0291679 453.938125,2.33645649 453.938125,2.70520833 C453.938125,2.86909804 453.856181,3.11492892 453.692292,3.44270833 L440.8475,22.4947917 L454.614167,42.4072917 C454.737084,42.6531262 454.798542,42.8989571 454.798542,43.1447917 C454.798542,43.5135435 454.675626,43.8208321 454.429792,44.0666667 C454.183957,44.3125012 453.876669,44.4354167 453.507917,44.4354167 L446.931875,44.4354167 C446.194371,44.4354167 445.559308,44.0666704 445.026667,43.3291667 L435.31625,29.5010417 L425.72875,43.3291667 C425.196108,44.0666704 424.561045,44.4354167 423.823542,44.4354167 L417.431875,44.4354167 Z M2.035,118.185417 C1.62527573,118.185417 1.27701532,118.042015 0.990208333,117.755208 C0.703401344,117.468401 0.56,117.120141 0.56,116.710417 L0.56,76.7010417 C0.56,76.250345 0.693158391,75.8815987 0.959479167,75.5947917 C1.22579994,75.3079847 1.5843033,75.1645833 2.035,75.1645833 L17.9527083,75.1645833 C22.9923169,75.1645833 26.9358538,76.33228 29.7834375,78.6677083 C32.6310212,81.0031367 34.0547917,84.3218535 34.0547917,88.6239583 C34.0547917,91.6149455 33.3377849,94.124469 31.90375,96.1526042 C30.4697151,98.1807393 28.4620962,99.6454816 25.8808333,100.546875 L34.7922917,116.21875 C34.9152089,116.464585 34.9766667,116.68993 34.9766667,116.894792 C34.9766667,117.263544 34.8435083,117.570832 34.5771875,117.816667 C34.3108667,118.062501 34.0138211,118.185417 33.6860417,118.185417 L28.031875,118.185417 C27.3763162,118.185417 26.8641685,118.031772 26.4954167,117.724479 C26.1266648,117.417186 25.7988903,117.017711 25.5120833,116.526042 L17.6454167,101.960417 L9.225625,101.960417 L9.225625,116.710417 C9.225625,117.120141 9.08222366,117.468401 8.79541667,117.755208 C8.50860968,118.042015 8.13986336,118.185417 7.68916667,118.185417 L2.035,118.185417 Z M17.7683333,94.9541667 C20.226679,94.9541667 22.0704105,94.4112902 23.2995833,93.3255208 C24.5287561,92.2397515 25.1433333,90.6520938 25.1433333,88.5625 C25.1433333,86.4729062 24.5287561,84.8647626 23.2995833,83.7380208 C22.0704105,82.6112791 20.226679,82.0479167 17.7683333,82.0479167 L9.225625,82.0479167 L9.225625,94.9541667 L17.7683333,94.9541667 Z M55.9954167,118.8 C50.3821942,118.8 46.0186961,117.386472 42.9047917,114.559375 C39.7908872,111.732278 38.1520147,107.532667 37.988125,101.960417 C37.9471526,100.772216 37.9266667,99.0309143 37.9266667,96.7364583 C37.9266667,94.40103 37.9471526,92.6392421 37.988125,91.4510417 C38.1520147,86.0017089 39.831859,81.822584 43.0277083,78.9135417 C46.2235576,76.0044993 50.5460839,74.55 55.9954167,74.55 C61.403777,74.55 65.7160603,76.0044993 68.9323958,78.9135417 C72.1487314,81.822584 73.8388186,86.0017089 74.0027083,91.4510417 C74.0846532,93.8274424 74.125625,95.5892304 74.125625,96.7364583 C74.125625,97.8427139 74.0846532,99.5840159 74.0027083,101.960417 C73.8388186,107.532667 72.1897032,111.732278 69.0553125,114.559375 C65.9209218,117.386472 61.5676668,118.8 55.9954167,118.8 Z M55.9954167,111.670833 C58.7405693,111.670833 60.9120753,110.851397 62.51,109.2125 C64.1079247,107.573603 64.9683327,105.053836 65.09125,101.653125 C65.1731949,99.1947794 65.2141667,97.535421 65.2141667,96.675 C65.2141667,95.7326342 65.1731949,94.0732758 65.09125,91.696875 C64.9683327,88.337136 64.0874388,85.8276125 62.4485417,84.1682292 C60.8096446,82.5088459 58.6586244,81.6791667 55.9954167,81.6791667 C53.2912365,81.6791667 51.1197304,82.5088459 49.4808333,84.1682292 C47.8419363,85.8276125 46.9815282,88.337136 46.8995833,91.696875 C46.8586109,92.8850754 46.838125,94.5444338 46.838125,96.675 C46.838125,98.7645938 46.8586109,100.423952 46.8995833,101.653125 C46.9815282,105.012864 47.8316933,107.522388 49.4501042,109.181771 C51.068515,110.841154 53.2502641,111.670833 55.9954167,111.670833 Z M81.131875,118.185417 C80.7221507,118.185417 80.3738903,118.042015 80.0870833,117.755208 C79.8002763,117.468401 79.656875,117.120141 79.656875,116.710417 L79.656875,76.7010417 C79.656875,76.250345 79.7900334,75.8815987 80.0563542,75.5947917 C80.3226749,75.3079847 80.6811783,75.1645833 81.131875,75.1645833 L98.9547917,75.1645833 C103.748566,75.1645833 107.333599,76.2196075 109.71,78.3296875 C112.086401,80.4397675 113.274583,83.3180373 113.274583,86.9645833 C113.274583,89.0951495 112.752193,90.9081522 111.707396,92.4036458 C110.662599,93.8991394 109.443688,94.9746495 108.050625,95.6302083 C109.771467,96.4086844 111.225966,97.6788106 112.414167,99.440625 C113.602367,101.202439 114.196458,103.210058 114.196458,105.463542 C114.196458,109.273977 112.905846,112.346863 110.324583,114.682292 C107.74332,117.01772 104.137801,118.185417 99.5079167,118.185417 L81.131875,118.185417 Z M97.8485417,92.803125 C99.9381354,92.803125 101.546279,92.2909773 102.673021,91.2666667 C103.799763,90.242356 104.363125,88.8698003 104.363125,87.1489583 C104.363125,85.4281164 103.810006,84.0965325 102.70375,83.1541667 C101.597494,82.2118008 99.9791079,81.740625 97.8485417,81.740625 L88.3225,81.740625 L88.3225,92.803125 L97.8485417,92.803125 Z M98.463125,111.609375 C100.593691,111.609375 102.25305,111.025527 103.44125,109.857813 C104.62945,108.690098 105.223542,107.20487 105.223542,105.402083 C105.223542,103.599297 104.619207,102.114068 103.410521,100.946354 C102.201834,99.77864 100.552719,99.1947917 98.463125,99.1947917 L88.3225,99.1947917 L88.3225,111.609375 L98.463125,111.609375 Z M136.014167,118.8 C130.400944,118.8 126.037446,117.386472 122.923542,114.559375 C119.809637,111.732278 118.170765,107.532667 118.006875,101.960417 C117.965903,100.772216 117.945417,99.0309143 117.945417,96.7364583 C117.945417,94.40103 117.965903,92.6392421 118.006875,91.4510417 C118.170765,86.0017089 119.850609,81.822584 123.046458,78.9135417 C126.242308,76.0044993 130.564834,74.55 136.014167,74.55 C141.422527,74.55 145.73481,76.0044993 148.951146,78.9135417 C152.167481,81.822584 153.857569,86.0017089 154.021458,91.4510417 C154.103403,93.8274424 154.144375,95.5892304 154.144375,96.7364583 C154.144375,97.8427139 154.103403,99.5840159 154.021458,101.960417 C153.857569,107.532667 152.208453,111.732278 149.074063,114.559375 C145.939672,117.386472 141.586417,118.8 136.014167,118.8 Z M136.014167,111.670833 C138.759319,111.670833 140.930825,110.851397 142.52875,109.2125 C144.126675,107.573603 144.987083,105.053836 145.11,101.653125 C145.191945,99.1947794 145.232917,97.535421 145.232917,96.675 C145.232917,95.7326342 145.191945,94.0732758 145.11,91.696875 C144.987083,88.337136 144.106189,85.8276125 142.467292,84.1682292 C140.828395,82.5088459 138.677374,81.6791667 136.014167,81.6791667 C133.309986,81.6791667 131.13848,82.5088459 129.499583,84.1682292 C127.860686,85.8276125 127.000278,88.337136 126.918333,91.696875 C126.877361,92.8850754 126.856875,94.5444338 126.856875,96.675 C126.856875,98.7645938 126.877361,100.423952 126.918333,101.653125 C127.000278,105.012864 127.850443,107.522388 129.468854,109.181771 C131.087265,110.841154 133.269014,111.670833 136.014167,111.670833 Z M169.81625,118.185417 C169.406526,118.185417 169.058265,118.042015 168.771458,117.755208 C168.484651,117.468401 168.34125,117.120141 168.34125,116.710417 L168.34125,82.846875 L156.971458,82.846875 C156.561734,82.846875 156.213474,82.7034737 155.926667,82.4166667 C155.63986,82.1298597 155.496458,81.7611134 155.496458,81.3104167 L155.496458,76.7010417 C155.496458,76.250345 155.629617,75.8815987 155.895938,75.5947917 C156.162258,75.3079847 156.520762,75.1645833 156.971458,75.1645833 L188.376667,75.1645833 C188.827363,75.1645833 189.19611,75.3079847 189.482917,75.5947917 C189.769724,75.8815987 189.913125,76.250345 189.913125,76.7010417 L189.913125,81.3104167 C189.913125,81.7611134 189.769724,82.1298597 189.482917,82.4166667 C189.19611,82.7034737 188.827363,82.846875 188.376667,82.846875 L177.068333,82.846875 L177.068333,116.710417 C177.068333,117.120141 176.935175,117.468401 176.668854,117.755208 C176.402533,118.042015 176.04403,118.185417 175.593333,118.185417 L169.81625,118.185417 Z M195.137083,118.185417 C194.727359,118.185417 194.379099,118.042015 194.092292,117.755208 C193.805485,117.468401 193.662083,117.120141 193.662083,116.710417 L193.662083,76.6395833 C193.662083,76.1888866 193.805485,75.8303833 194.092292,75.5640625 C194.379099,75.2977417 194.727359,75.1645833 195.137083,75.1645833 L201.037083,75.1645833 C201.48778,75.1645833 201.846283,75.2977417 202.112604,75.5640625 C202.378925,75.8303833 202.512083,76.1888866 202.512083,76.6395833 L202.512083,116.710417 C202.512083,117.120141 202.378925,117.468401 202.112604,117.755208 C201.846283,118.042015 201.48778,118.185417 201.037083,118.185417 L195.137083,118.185417 Z M226.235,118.8 C220.580805,118.8 216.207064,117.355744 213.113646,114.467188 C210.020228,111.578631 208.371112,107.471207 208.16625,102.144792 C208.125278,101.038536 208.104792,99.2357764 208.104792,96.7364583 C208.104792,94.1961679 208.125278,92.3524363 208.16625,91.2052083 C208.371112,85.9607377 210.030471,81.8737994 213.144375,78.9442708 C216.258279,76.0147423 220.621777,74.55 226.235,74.55 C229.881546,74.55 233.056861,75.1748201 235.761042,76.4244792 C238.465222,77.6741382 240.565027,79.3847114 242.060521,81.55625 C243.556014,83.7277886 244.344722,86.1656115 244.426667,88.8697917 L244.426667,88.9927083 C244.426667,89.3204878 244.293508,89.5970475 244.027188,89.8223958 C243.760867,90.0477442 243.463821,90.1604167 243.136042,90.1604167 L237.174583,90.1604167 C236.682914,90.1604167 236.314168,90.0477442 236.068333,89.8223958 C235.822499,89.5970475 235.61764,89.1975723 235.45375,88.6239583 C234.839164,86.0836679 233.773896,84.2911511 232.257917,83.2463542 C230.741937,82.2015573 228.734318,81.6791667 226.235,81.6791667 C220.375943,81.6791667 217.323543,84.9569117 217.077708,91.5125 C217.036736,92.6187555 217.01625,94.3190857 217.01625,96.6135417 C217.01625,98.9079976 217.036736,100.6493 217.077708,101.8375 C217.323543,108.393088 220.375943,111.670833 226.235,111.670833 C228.693346,111.670833 230.690721,111.148443 232.227188,110.103646 C233.763654,109.058849 234.839164,107.266332 235.45375,104.726042 C235.61764,104.152428 235.822499,103.752953 236.068333,103.527604 C236.314168,103.302256 236.682914,103.189583 237.174583,103.189583 L243.136042,103.189583 C243.504794,103.189583 243.822325,103.312499 244.088646,103.558333 C244.354967,103.804168 244.467639,104.111456 244.426667,104.480208 C244.344722,107.184389 243.556014,109.622211 242.060521,111.79375 C240.565027,113.965289 238.465222,115.675862 235.761042,116.925521 C233.056861,118.17518 229.881546,118.8 226.235,118.8 Z M264.277708,118.8 C260.59019,118.8 257.43536,118.246881 254.813125,117.140625 C252.19089,116.034369 250.203757,114.57987 248.851667,112.777083 C247.499577,110.974297 246.78257,109.00765 246.700625,106.877083 C246.700625,106.549304 246.82354,106.252258 247.069375,105.985938 C247.31521,105.719617 247.622498,105.586458 247.99125,105.586458 L253.583958,105.586458 C254.034655,105.586458 254.403401,105.688888 254.690208,105.89375 C254.977015,106.098612 255.243332,106.385415 255.489167,106.754167 C255.898891,108.147229 256.831,109.314926 258.285521,110.257292 C259.740042,111.199657 261.737418,111.670833 264.277708,111.670833 C267.145778,111.670833 269.307041,111.189415 270.761563,110.226563 C272.216084,109.26371 272.943333,107.94237 272.943333,106.2625 C272.943333,105.156244 272.574587,104.234379 271.837083,103.496875 C271.09958,102.759371 269.983098,102.114065 268.487604,101.560938 C266.992111,101.00781 264.76939,100.342018 261.819375,99.5635417 C256.984629,98.4163137 253.440567,96.9003566 251.187083,95.015625 C248.9336,93.1308934 247.806875,90.4267537 247.806875,86.903125 C247.806875,84.5267242 248.462424,82.4064329 249.773542,80.5421875 C251.084659,78.6779421 252.95912,77.2131998 255.396979,76.1479167 C257.834839,75.0826336 260.672137,74.55 263.908958,74.55 C267.30967,74.55 270.249397,75.1440913 272.728229,76.3322917 C275.207061,77.5204921 277.091764,79.0057203 278.382396,80.7880208 C279.673027,82.5703214 280.359305,84.3423523 280.44125,86.1041667 C280.44125,86.4319461 280.318335,86.7289917 280.0725,86.9953125 C279.826665,87.2616333 279.519377,87.3947917 279.150625,87.3947917 L273.312083,87.3947917 C272.41069,87.3947917 271.796113,87.0260454 271.468333,86.2885417 C271.263471,84.977424 270.464521,83.881428 269.071458,83.0005208 C267.678396,82.1196137 265.95758,81.6791667 263.908958,81.6791667 C261.655475,81.6791667 259.883444,82.1093707 258.592813,82.9697917 C257.302181,83.8302126 256.656875,85.0798529 256.656875,86.71875 C256.656875,87.8250055 256.98465,88.7468713 257.640208,89.484375 C258.295767,90.2218787 259.320062,90.8671847 260.713125,91.4203125 C262.106188,91.9734403 264.134292,92.5982604 266.7975,93.2947917 C270.444046,94.1142402 273.342802,95.036106 275.493854,96.0604167 C277.644907,97.0847273 279.232564,98.3753394 280.256875,99.9322917 C281.281186,101.489244 281.793333,103.476377 281.793333,105.89375 C281.793333,108.556958 281.066084,110.861622 279.611563,112.807813 C278.157041,114.754003 276.108451,116.239231 273.465729,117.263542 C270.823008,118.287852 267.760365,118.8 264.277708,118.8 Z M314.489167,118.8 C308.834972,118.8 304.461231,117.355744 301.367813,114.467188 C298.274394,111.578631 296.625279,107.471207 296.420417,102.144792 C296.379444,101.038536 296.358958,99.2357764 296.358958,96.7364583 C296.358958,94.1961679 296.379444,92.3524363 296.420417,91.2052083 C296.625279,85.9607377 298.284637,81.8737994 301.398542,78.9442708 C304.512446,76.0147423 308.875944,74.55 314.489167,74.55 C318.135713,74.55 321.311028,75.1748201 324.015208,76.4244792 C326.719389,77.6741382 328.819194,79.3847114 330.314688,81.55625 C331.810181,83.7277886 332.598888,86.1656115 332.680833,88.8697917 L332.680833,88.9927083 C332.680833,89.3204878 332.547675,89.5970475 332.281354,89.8223958 C332.015033,90.0477442 331.717988,90.1604167 331.390208,90.1604167 L325.42875,90.1604167 C324.937081,90.1604167 324.568335,90.0477442 324.3225,89.8223958 C324.076665,89.5970475 323.871806,89.1975723 323.707917,88.6239583 C323.09333,86.0836679 322.028063,84.2911511 320.512083,83.2463542 C318.996104,82.2015573 316.988485,81.6791667 314.489167,81.6791667 C308.63011,81.6791667 305.57771,84.9569117 305.331875,91.5125 C305.290903,92.6187555 305.270417,94.3190857 305.270417,96.6135417 C305.270417,98.9079976 305.290903,100.6493 305.331875,101.8375 C305.57771,108.393088 308.63011,111.670833 314.489167,111.670833 C316.947512,111.670833 318.944888,111.148443 320.481354,110.103646 C322.01782,109.058849 323.09333,107.266332 323.707917,104.726042 C323.871806,104.152428 324.076665,103.752953 324.3225,103.527604 C324.568335,103.302256 324.937081,103.189583 325.42875,103.189583 L331.390208,103.189583 C331.75896,103.189583 332.076492,103.312499 332.342813,103.558333 C332.609133,103.804168 332.721806,104.111456 332.680833,104.480208 C332.598888,107.184389 331.810181,109.622211 330.314688,111.79375 C328.819194,113.965289 326.719389,115.675862 324.015208,116.925521 C321.311028,118.17518 318.135713,118.8 314.489167,118.8 Z M354.129792,118.8 C348.516569,118.8 344.153071,117.386472 341.039167,114.559375 C337.925262,111.732278 336.28639,107.532667 336.1225,101.960417 C336.081528,100.772216 336.061042,99.0309143 336.061042,96.7364583 C336.061042,94.40103 336.081528,92.6392421 336.1225,91.4510417 C336.28639,86.0017089 337.966234,81.822584 341.162083,78.9135417 C344.357933,76.0044993 348.680459,74.55 354.129792,74.55 C359.538152,74.55 363.850435,76.0044993 367.066771,78.9135417 C370.283106,81.822584 371.973194,86.0017089 372.137083,91.4510417 C372.219028,93.8274424 372.26,95.5892304 372.26,96.7364583 C372.26,97.8427139 372.219028,99.5840159 372.137083,101.960417 C371.973194,107.532667 370.324078,111.732278 367.189688,114.559375 C364.055297,117.386472 359.702042,118.8 354.129792,118.8 Z M354.129792,111.670833 C356.874944,111.670833 359.04645,110.851397 360.644375,109.2125 C362.2423,107.573603 363.102708,105.053836 363.225625,101.653125 C363.30757,99.1947794 363.348542,97.535421 363.348542,96.675 C363.348542,95.7326342 363.30757,94.0732758 363.225625,91.696875 C363.102708,88.337136 362.221814,85.8276125 360.582917,84.1682292 C358.94402,82.5088459 356.792999,81.6791667 354.129792,81.6791667 C351.425611,81.6791667 349.254105,82.5088459 347.615208,84.1682292 C345.976311,85.8276125 345.115903,88.337136 345.033958,91.696875 C344.992986,92.8850754 344.9725,94.5444338 344.9725,96.675 C344.9725,98.7645938 344.992986,100.423952 345.033958,101.653125 C345.115903,105.012864 345.966068,107.522388 347.584479,109.181771 C349.20289,110.841154 351.384639,111.670833 354.129792,111.670833 Z M379.26625,118.185417 C378.856526,118.185417 378.508265,118.042015 378.221458,117.755208 C377.934651,117.468401 377.79125,117.120141 377.79125,116.710417 L377.79125,76.7010417 C377.79125,76.250345 377.924408,75.8815987 378.190729,75.5947917 C378.45705,75.3079847 378.815553,75.1645833 379.26625,75.1645833 L384.244375,75.1645833 C385.022851,75.1645833 385.637428,75.5538156 386.088125,76.3322917 L397.949583,98.334375 L409.811042,76.3322917 C410.261738,75.5538156 410.876316,75.1645833 411.654792,75.1645833 L416.571458,75.1645833 C417.022155,75.1645833 417.390901,75.3079847 417.677708,75.5947917 C417.964515,75.8815987 418.107917,76.250345 418.107917,76.7010417 L418.107917,116.710417 C418.107917,117.161113 417.964515,117.519617 417.677708,117.785938 C417.390901,118.052258 417.022155,118.185417 416.571458,118.185417 L411.286042,118.185417 C410.876317,118.185417 410.528057,118.042015 410.24125,117.755208 C409.954443,117.468401 409.811042,117.120141 409.811042,116.710417 L409.811042,90.2833333 L401.268333,106.508333 C400.817637,107.409727 400.141602,107.860417 399.240208,107.860417 L396.658958,107.860417 C395.798537,107.860417 395.102017,107.409727 394.569375,106.508333 L386.026667,90.2833333 L386.026667,116.710417 C386.026667,117.120141 385.893508,117.468401 385.627188,117.755208 C385.360867,118.042015 385.002363,118.185417 384.551667,118.185417 L379.26625,118.185417 Z M426.712083,118.185417 C426.302359,118.185417 425.954099,118.042015 425.667292,117.755208 C425.380485,117.468401 425.237083,117.120141 425.237083,116.710417 L425.237083,76.7010417 C425.237083,76.250345 425.370242,75.8815987 425.636563,75.5947917 C425.902883,75.3079847 426.261387,75.1645833 426.712083,75.1645833 L443.182917,75.1645833 C448.14058,75.1645833 452.032903,76.33228 454.86,78.6677083 C457.687097,81.0031367 459.100625,84.4037971 459.100625,88.8697917 C459.100625,93.2948138 457.687097,96.6442595 454.86,98.9182292 C452.032903,101.192199 448.14058,102.329167 443.182917,102.329167 L434.148542,102.329167 L434.148542,116.710417 C434.148542,117.161113 434.00514,117.519617 433.718333,117.785938 C433.431526,118.052258 433.06278,118.185417 432.612083,118.185417 L426.712083,118.185417 Z M442.875625,95.4458333 C445.252026,95.4458333 447.065028,94.8824709 448.314688,93.7557292 C449.564347,92.6289874 450.189167,90.979872 450.189167,88.8083333 C450.189167,86.6777671 449.584832,85.0184087 448.376146,83.8302083 C447.167459,82.6420079 445.333971,82.0479167 442.875625,82.0479167 L434.025625,82.0479167 L434.025625,95.4458333 L442.875625,95.4458333 Z M464.81625,118.185417 C464.406526,118.185417 464.058265,118.042015 463.771458,117.755208 C463.484651,117.468401 463.34125,117.120141 463.34125,116.710417 L463.34125,76.7010417 C463.34125,76.250345 463.474408,75.8815987 463.740729,75.5947917 C464.00705,75.3079847 464.365553,75.1645833 464.81625,75.1645833 L491.919375,75.1645833 C492.370072,75.1645833 492.738818,75.3079847 493.025625,75.5947917 C493.312432,75.8815987 493.455833,76.250345 493.455833,76.7010417 L493.455833,80.81875 C493.455833,81.2694467 493.312432,81.6279501 493.025625,81.8942708 C492.738818,82.1605916 492.370072,82.29375 491.919375,82.29375 L471.761042,82.29375 L471.761042,93.0489583 L490.567292,93.0489583 C491.017988,93.0489583 491.386735,93.1923597 491.673542,93.4791667 C491.960349,93.7659737 492.10375,94.13472 492.10375,94.5854167 L492.10375,98.4572917 C492.10375,98.9079884 491.960349,99.2664917 491.673542,99.5328125 C491.386735,99.7991333 491.017988,99.9322917 490.567292,99.9322917 L471.761042,99.9322917 L471.761042,111.05625 L492.411042,111.05625 C492.861738,111.05625 493.230485,111.189408 493.517292,111.455729 C493.804099,111.72205 493.9475,112.080553 493.9475,112.53125 L493.9475,116.710417 C493.9475,117.161113 493.804099,117.519617 493.517292,117.785938 C493.230485,118.052258 492.861738,118.185417 492.411042,118.185417 L464.81625,118.185417 Z M510.111042,118.185417 C509.701317,118.185417 509.353057,118.042015 509.06625,117.755208 C508.779443,117.468401 508.636042,117.120141 508.636042,116.710417 L508.636042,82.846875 L497.26625,82.846875 C496.856526,82.846875 496.508265,82.7034737 496.221458,82.4166667 C495.934651,82.1298597 495.79125,81.7611134 495.79125,81.3104167 L495.79125,76.7010417 C495.79125,76.250345 495.924408,75.8815987 496.190729,75.5947917 C496.45705,75.3079847 496.815553,75.1645833 497.26625,75.1645833 L528.671458,75.1645833 C529.122155,75.1645833 529.490901,75.3079847 529.777708,75.5947917 C530.064515,75.8815987 530.207917,76.250345 530.207917,76.7010417 L530.207917,81.3104167 C530.207917,81.7611134 530.064515,82.1298597 529.777708,82.4166667 C529.490901,82.7034737 529.122155,82.846875 528.671458,82.846875 L517.363125,82.846875 L517.363125,116.710417 C517.363125,117.120141 517.229967,117.468401 516.963646,117.755208 C516.697325,118.042015 516.338822,118.185417 515.888125,118.185417 L510.111042,118.185417 Z M535.431875,118.185417 C535.022151,118.185417 534.67389,118.042015 534.387083,117.755208 C534.100276,117.468401 533.956875,117.120141 533.956875,116.710417 L533.956875,76.6395833 C533.956875,76.1888866 534.100276,75.8303833 534.387083,75.5640625 C534.67389,75.2977417 535.022151,75.1645833 535.431875,75.1645833 L541.331875,75.1645833 C541.782572,75.1645833 542.141075,75.2977417 542.407396,75.5640625 C542.673717,75.8303833 542.806875,76.1888866 542.806875,76.6395833 L542.806875,116.710417 C542.806875,117.120141 542.673717,117.468401 542.407396,117.755208 C542.141075,118.042015 541.782572,118.185417 541.331875,118.185417 L535.431875,118.185417 Z M560.875625,118.185417 C560.465901,118.185417 560.11764,118.042015 559.830833,117.755208 C559.544026,117.468401 559.400625,117.120141 559.400625,116.710417 L559.400625,82.846875 L548.030833,82.846875 C547.621109,82.846875 547.272849,82.7034737 546.986042,82.4166667 C546.699235,82.1298597 546.555833,81.7611134 546.555833,81.3104167 L546.555833,76.7010417 C546.555833,76.250345 546.688992,75.8815987 546.955313,75.5947917 C547.221633,75.3079847 547.580137,75.1645833 548.030833,75.1645833 L579.436042,75.1645833 C579.886738,75.1645833 580.255485,75.3079847 580.542292,75.5947917 C580.829099,75.8815987 580.9725,76.250345 580.9725,76.7010417 L580.9725,81.3104167 C580.9725,81.7611134 580.829099,82.1298597 580.542292,82.4166667 C580.255485,82.7034737 579.886738,82.846875 579.436042,82.846875 L568.127708,82.846875 L568.127708,116.710417 C568.127708,117.120141 567.99455,117.468401 567.728229,117.755208 C567.461908,118.042015 567.103405,118.185417 566.652708,118.185417 L560.875625,118.185417 Z M586.196458,118.185417 C585.786734,118.185417 585.438474,118.042015 585.151667,117.755208 C584.86486,117.468401 584.721458,117.120141 584.721458,116.710417 L584.721458,76.6395833 C584.721458,76.1888866 584.86486,75.8303833 585.151667,75.5640625 C585.438474,75.2977417 585.786734,75.1645833 586.196458,75.1645833 L592.096458,75.1645833 C592.547155,75.1645833 592.905658,75.2977417 593.171979,75.5640625 C593.4383,75.8303833 593.571458,76.1888866 593.571458,76.6395833 L593.571458,116.710417 C593.571458,117.120141 593.4383,117.468401 593.171979,117.755208 C592.905658,118.042015 592.547155,118.185417 592.096458,118.185417 L586.196458,118.185417 Z M617.294375,118.8 C611.681152,118.8 607.317654,117.386472 604.20375,114.559375 C601.089846,111.732278 599.450973,107.532667 599.287083,101.960417 C599.246111,100.772216 599.225625,99.0309143 599.225625,96.7364583 C599.225625,94.40103 599.246111,92.6392421 599.287083,91.4510417 C599.450973,86.0017089 601.130817,81.822584 604.326667,78.9135417 C607.522516,76.0044993 611.845042,74.55 617.294375,74.55 C622.702735,74.55 627.015019,76.0044993 630.231354,78.9135417 C633.44769,81.822584 635.137777,86.0017089 635.301667,91.4510417 C635.383612,93.8274424 635.424583,95.5892304 635.424583,96.7364583 C635.424583,97.8427139 635.383612,99.5840159 635.301667,101.960417 C635.137777,107.532667 633.488662,111.732278 630.354271,114.559375 C627.21988,117.386472 622.866625,118.8 617.294375,118.8 Z M617.294375,111.670833 C620.039528,111.670833 622.211034,110.851397 623.808958,109.2125 C625.406883,107.573603 626.267291,105.053836 626.390208,101.653125 C626.472153,99.1947794 626.513125,97.535421 626.513125,96.675 C626.513125,95.7326342 626.472153,94.0732758 626.390208,91.696875 C626.267291,88.337136 625.386397,85.8276125 623.7475,84.1682292 C622.108603,82.5088459 619.957583,81.6791667 617.294375,81.6791667 C614.590195,81.6791667 612.418689,82.5088459 610.779792,84.1682292 C609.140895,85.8276125 608.280487,88.337136 608.198542,91.696875 C608.157569,92.8850754 608.137083,94.5444338 608.137083,96.675 C608.137083,98.7645938 608.157569,100.423952 608.198542,101.653125 C608.280487,105.012864 609.130652,107.522388 610.749063,109.181771 C612.367473,110.841154 614.549222,111.670833 617.294375,111.670833 Z M642.430833,118.185417 C642.021109,118.185417 641.672849,118.042015 641.386042,117.755208 C641.099235,117.468401 640.955833,117.120141 640.955833,116.710417 L640.955833,76.7010417 C640.955833,76.250345 641.088992,75.8815987 641.355313,75.5947917 C641.621633,75.3079847 641.980137,75.1645833 642.430833,75.1645833 L647.224583,75.1645833 C648.003059,75.1645833 648.597151,75.5128437 649.006875,76.209375 L666.583958,103.496875 L666.583958,76.7010417 C666.583958,76.250345 666.717117,75.8815987 666.983438,75.5947917 C667.249758,75.3079847 667.608262,75.1645833 668.058958,75.1645833 L673.344375,75.1645833 C673.795072,75.1645833 674.163818,75.3079847 674.450625,75.5947917 C674.737432,75.8815987 674.880833,76.250345 674.880833,76.7010417 L674.880833,116.648958 C674.880833,117.099655 674.737432,117.468401 674.450625,117.755208 C674.163818,118.042015 673.815558,118.185417 673.405833,118.185417 L668.550625,118.185417 C667.731176,118.185417 667.116599,117.837156 666.706875,117.140625 L649.19125,90.4677083 L649.19125,116.710417 C649.19125,117.120141 649.058092,117.468401 648.791771,117.755208 C648.52545,118.042015 648.166947,118.185417 647.71625,118.185417 L642.430833,118.185417 Z" id="IRVINGTON-VEX-ROBOTI" fill="#000000"></path>
    </g>
</svg>