
<svg width="916px" height="53px" viewBox="0 0 916 53" version="1.1" xmlns="http://www.w3.org/2000/svg" xmlns:xlink="http://www.w3.org/1999/xlink">
    <!-- Generator: Sketch 47.1 (45422) - http://www.bohemiancoding.com/sketch -->
    <desc>Created with Sketch.</desc>
    <defs></defs>
    <g id="Page-1" stroke="none" stroke-width="1" fill="none" fill-rule="evenodd">
        <g id="Artboard" transform="translate(-121.000000, -175.000000)" fill="#FFFFFF">
            <path d="M122.52,227 C122.087998,227 121.728001,226.856001 121.44,226.568 C121.151999,226.279999 121.008,225.920002 121.008,225.488 L121.152,224.84 L138.432,178.4 C138.912002,177.199994 139.775994,176.6 141.024,176.6 L148.944,176.6 C150.192006,176.6 151.055998,177.199994 151.536,178.4 L168.816,224.84 L168.96,225.488 C168.96,225.920002 168.804002,226.279999 168.492,226.568 C168.179998,226.856001 167.832002,227 167.448,227 L161.04,227 C160.031995,227 159.336002,226.544005 158.952,225.632 L155.64,216.92 L134.328,216.92 L131.016,225.632 C130.631998,226.544005 129.936005,227 128.928,227 L122.52,227 Z M136.848,208.568 L153.12,208.568 L144.984,186.392 L136.848,208.568 Z M177.312,227 C176.831998,227 176.424002,226.832002 176.088,226.496 C175.751998,226.159998 175.584,225.752002 175.584,225.272 L175.584,178.4 C175.584,177.871997 175.739998,177.440002 176.052,177.104 C176.364002,176.767998 176.783997,176.6 177.312,176.6 L195.96,176.6 C201.86403,176.6 206.483983,177.967986 209.82,180.704 C213.156017,183.440014 214.824,187.327975 214.824,192.368 C214.824,195.872018 213.984008,198.811988 212.304,201.188 C210.623992,203.564012 208.272015,205.279995 205.248,206.336 L215.688,224.696 C215.832001,224.984001 215.904,225.247999 215.904,225.488 C215.904,225.920002 215.748002,226.279999 215.436,226.568 C215.123998,226.856001 214.776002,227 214.392,227 L207.768,227 C206.999996,227 206.400002,226.820002 205.968,226.46 C205.535998,226.099998 205.152002,225.632003 204.816,225.056 L195.6,207.992 L185.736,207.992 L185.736,225.272 C185.736,225.752002 185.568002,226.159998 185.232,226.496 C184.895998,226.832002 184.464003,227 183.936,227 L177.312,227 Z M195.744,199.784 C198.624014,199.784 200.783993,199.148006 202.224,197.876 C203.664007,196.603994 204.384,194.744012 204.384,192.296 C204.384,189.847988 203.664007,187.964007 202.224,186.644 C200.783993,185.323993 198.624014,184.664 195.744,184.664 L185.736,184.664 L185.736,199.784 L195.744,199.784 Z M225.84,227 C225.359998,227 224.952002,226.832002 224.616,226.496 C224.279998,226.159998 224.112,225.752002 224.112,225.272 L224.112,178.4 C224.112,177.871997 224.267998,177.440002 224.58,177.104 C224.892002,176.767998 225.311997,176.6 225.84,176.6 L243.408,176.6 C257.568071,176.6 264.791999,183.127935 265.08,196.184 C265.176,198.968014 265.224,200.839995 265.224,201.8 C265.224,202.712005 265.176,204.559986 265.08,207.344 C264.887999,214.064034 263.076017,219.019984 259.644,222.212 C256.211983,225.404016 250.920036,227 243.768,227 L225.84,227 Z M243.408,218.648 C247.39202,218.648 250.271991,217.760009 252.048,215.984 C253.824009,214.207991 254.76,211.256021 254.856,207.128 C254.952,204.247986 255,202.448004 255,201.728 C255,200.959996 254.952,199.184014 254.856,196.4 C254.76,192.46398 253.776009,189.572009 251.904,187.724 C250.031991,185.875991 247.08002,184.952 243.048,184.952 L234.264,184.952 L234.264,218.648 L243.408,218.648 Z M294.888,227.72 C288.359967,227.72 283.296018,226.064017 279.696,222.752 C276.095982,219.439983 274.296,214.424034 274.296,207.704 L274.296,178.4 C274.296,177.871997 274.451998,177.440002 274.764,177.104 C275.076002,176.767998 275.495997,176.6 276.024,176.6 L282.648,176.6 C283.176003,176.6 283.607998,176.767998 283.944,177.104 C284.280002,177.440002 284.448,177.871997 284.448,178.4 L284.448,207.704 C284.448,211.496019 285.347991,214.35199 287.148,216.272 C288.948009,218.19201 291.503983,219.152 294.816,219.152 C298.128017,219.152 300.683991,218.19201 302.484,216.272 C304.284009,214.35199 305.184,211.496019 305.184,207.704 L305.184,178.4 C305.184,177.871997 305.351998,177.440002 305.688,177.104 C306.024002,176.767998 306.455997,176.6 306.984,176.6 L313.608,176.6 C314.136003,176.6 314.555998,176.767998 314.868,177.104 C315.180002,177.440002 315.336,177.871997 315.336,178.4 L315.336,207.704 C315.336,214.424034 313.548018,219.439983 309.972,222.752 C306.395982,226.064017 301.368032,227.72 294.888,227.72 Z M327.864,227 C327.383998,227 326.976002,226.832002 326.64,226.496 C326.303998,226.159998 326.136,225.752002 326.136,225.272 L326.136,178.328 C326.136,177.799997 326.303998,177.380002 326.64,177.068 C326.976002,176.755998 327.383998,176.6 327.864,176.6 L334.776,176.6 C335.304003,176.6 335.723998,176.755998 336.036,177.068 C336.348002,177.380002 336.504,177.799997 336.504,178.328 L336.504,225.272 C336.504,225.752002 336.348002,226.159998 336.036,226.496 C335.723998,226.832002 335.304003,227 334.776,227 L327.864,227 Z M349.464,227 C348.983998,227 348.576002,226.832002 348.24,226.496 C347.903998,226.159998 347.736,225.752002 347.736,225.272 L347.736,178.4 C347.736,177.871997 347.891998,177.440002 348.204,177.104 C348.516002,176.767998 348.935997,176.6 349.464,176.6 L355.08,176.6 C355.992005,176.6 356.687998,177.007996 357.168,177.824 L377.76,209.792 L377.76,178.4 C377.76,177.871997 377.915998,177.440002 378.228,177.104 C378.540002,176.767998 378.959997,176.6 379.488,176.6 L385.68,176.6 C386.208003,176.6 386.639998,176.767998 386.976,177.104 C387.312002,177.440002 387.48,177.871997 387.48,178.4 L387.48,225.2 C387.48,225.728003 387.312002,226.159998 386.976,226.496 C386.639998,226.832002 386.232002,227 385.752,227 L380.064,227 C379.103995,227 378.384002,226.592004 377.904,225.776 L357.384,194.528 L357.384,225.272 C357.384,225.752002 357.228002,226.159998 356.916,226.496 C356.603998,226.832002 356.184003,227 355.656,227 L349.464,227 Z M418.08,227.72 C411.503967,227.72 406.392018,226.064017 402.744,222.752 C399.095982,219.439983 397.176001,214.520033 396.984,207.992 C396.936,206.599993 396.912,204.560013 396.912,201.872 C396.912,199.135986 396.936,197.072007 396.984,195.68 C397.176001,189.295968 399.143981,184.400017 402.888,180.992 C406.632019,177.583983 411.695968,175.88 418.08,175.88 C424.416032,175.88 429.467981,177.583983 433.236,180.992 C437.004019,184.400017 438.983999,189.295968 439.176,195.68 C439.272,198.464014 439.32,200.527993 439.32,201.872 C439.32,203.168006 439.272,205.207986 439.176,207.992 C438.983999,214.520033 437.052018,219.439983 433.38,222.752 C429.707982,226.064017 424.608033,227.72 418.08,227.72 Z M418.08,219.368 C421.296016,219.368 423.839991,218.40801 425.712,216.488 C427.584009,214.56799 428.591999,211.61602 428.736,207.632 C428.832,204.751986 428.88,202.808005 428.88,201.8 C428.88,200.695994 428.832,198.752014 428.736,195.968 C428.591999,192.03198 427.56001,189.09201 425.64,187.148 C423.71999,185.20399 421.200016,184.232 418.08,184.232 C414.911984,184.232 412.36801,185.20399 410.448,187.148 C408.52799,189.09201 407.52,192.03198 407.424,195.968 C407.376,197.360007 407.352,199.303988 407.352,201.8 C407.352,204.248012 407.376,206.191993 407.424,207.632 C407.52,211.56802 408.515991,214.50799 410.412,216.452 C412.308009,218.39601 414.863984,219.368 418.08,219.368 Z M466.824,227 C466.343998,227 465.936002,226.832002 465.6,226.496 C465.263998,226.159998 465.096,225.752002 465.096,225.272 L465.096,178.4 C465.096,177.871997 465.251998,177.440002 465.564,177.104 C465.876002,176.767998 466.295997,176.6 466.824,176.6 L485.472,176.6 C491.37603,176.6 495.995983,177.967986 499.332,180.704 C502.668017,183.440014 504.336,187.327975 504.336,192.368 C504.336,195.872018 503.496008,198.811988 501.816,201.188 C500.135992,203.564012 497.784015,205.279995 494.76,206.336 L505.2,224.696 C505.344001,224.984001 505.416,225.247999 505.416,225.488 C505.416,225.920002 505.260002,226.279999 504.948,226.568 C504.635998,226.856001 504.288002,227 503.904,227 L497.28,227 C496.511996,227 495.912002,226.820002 495.48,226.46 C495.047998,226.099998 494.664002,225.632003 494.328,225.056 L485.112,207.992 L475.248,207.992 L475.248,225.272 C475.248,225.752002 475.080002,226.159998 474.744,226.496 C474.407998,226.832002 473.976003,227 473.448,227 L466.824,227 Z M485.256,199.784 C488.136014,199.784 490.295993,199.148006 491.736,197.876 C493.176007,196.603994 493.896,194.744012 493.896,192.296 C493.896,189.847988 493.176007,187.964007 491.736,186.644 C490.295993,185.323993 488.136014,184.664 485.256,184.664 L475.248,184.664 L475.248,199.784 L485.256,199.784 Z M532.92,227.72 C526.343967,227.72 521.232018,226.064017 517.584,222.752 C513.935982,219.439983 512.016001,214.520033 511.824,207.992 C511.776,206.599993 511.752,204.560013 511.752,201.872 C511.752,199.135986 511.776,197.072007 511.824,195.68 C512.016001,189.295968 513.983981,184.400017 517.728,180.992 C521.472019,177.583983 526.535968,175.88 532.92,175.88 C539.256032,175.88 544.307981,177.583983 548.076,180.992 C551.844019,184.400017 553.823999,189.295968 554.016,195.68 C554.112,198.464014 554.16,200.527993 554.16,201.872 C554.16,203.168006 554.112,205.207986 554.016,207.992 C553.823999,214.520033 551.892018,219.439983 548.22,222.752 C544.547982,226.064017 539.448033,227.72 532.92,227.72 Z M532.92,219.368 C536.136016,219.368 538.679991,218.40801 540.552,216.488 C542.424009,214.56799 543.431999,211.61602 543.576,207.632 C543.672,204.751986 543.72,202.808005 543.72,201.8 C543.72,200.695994 543.672,198.752014 543.576,195.968 C543.431999,192.03198 542.40001,189.09201 540.48,187.148 C538.55999,185.20399 536.040016,184.232 532.92,184.232 C529.751984,184.232 527.20801,185.20399 525.288,187.148 C523.36799,189.09201 522.36,192.03198 522.264,195.968 C522.216,197.360007 522.192,199.303988 522.192,201.8 C522.192,204.248012 522.216,206.191993 522.264,207.632 C522.36,211.56802 523.355991,214.50799 525.252,216.452 C527.148009,218.39601 529.703984,219.368 532.92,219.368 Z M565.248,227 C564.767998,227 564.360002,226.832002 564.024,226.496 C563.687998,226.159998 563.52,225.752002 563.52,225.272 L563.52,178.4 C563.52,177.871997 563.675998,177.440002 563.988,177.104 C564.300002,176.767998 564.719997,176.6 565.248,176.6 L586.128,176.6 C591.744028,176.6 595.943986,177.835988 598.728,180.308 C601.512014,182.780012 602.904,186.151979 602.904,190.424 C602.904,192.920012 602.292006,195.043991 601.068,196.796 C599.843994,198.548009 598.416008,199.807996 596.784,200.576 C598.80001,201.488005 600.503993,202.97599 601.896,205.04 C603.288007,207.10401 603.984,209.455987 603.984,212.096 C603.984,216.560022 602.472015,220.159986 599.448,222.896 C596.423985,225.632014 592.200027,227 586.776,227 L565.248,227 Z M584.832,197.264 C587.280012,197.264 589.163993,196.664006 590.484,195.464 C591.804007,194.263994 592.464,192.65601 592.464,190.64 C592.464,188.62399 591.816006,187.064006 590.52,185.96 C589.223994,184.855994 587.328012,184.304 584.832,184.304 L573.672,184.304 L573.672,197.264 L584.832,197.264 Z M585.552,219.296 C588.048012,219.296 589.991993,218.612007 591.384,217.244 C592.776007,215.875993 593.472,214.136011 593.472,212.024 C593.472,209.911989 592.764007,208.172007 591.348,206.804 C589.931993,205.435993 588.000012,204.752 585.552,204.752 L573.672,204.752 L573.672,219.296 L585.552,219.296 Z M632.424,227.72 C625.847967,227.72 620.736018,226.064017 617.088,222.752 C613.439982,219.439983 611.520001,214.520033 611.328,207.992 C611.28,206.599993 611.256,204.560013 611.256,201.872 C611.256,199.135986 611.28,197.072007 611.328,195.68 C611.520001,189.295968 613.487981,184.400017 617.232,180.992 C620.976019,177.583983 626.039968,175.88 632.424,175.88 C638.760032,175.88 643.811981,177.583983 647.58,180.992 C651.348019,184.400017 653.327999,189.295968 653.52,195.68 C653.616,198.464014 653.664,200.527993 653.664,201.872 C653.664,203.168006 653.616,205.207986 653.52,207.992 C653.327999,214.520033 651.396018,219.439983 647.724,222.752 C644.051982,226.064017 638.952033,227.72 632.424,227.72 Z M632.424,219.368 C635.640016,219.368 638.183991,218.40801 640.056,216.488 C641.928009,214.56799 642.935999,211.61602 643.08,207.632 C643.176,204.751986 643.224,202.808005 643.224,201.8 C643.224,200.695994 643.176,198.752014 643.08,195.968 C642.935999,192.03198 641.90401,189.09201 639.984,187.148 C638.06399,185.20399 635.544016,184.232 632.424,184.232 C629.255984,184.232 626.71201,185.20399 624.792,187.148 C622.87199,189.09201 621.864,192.03198 621.768,195.968 C621.72,197.360007 621.696,199.303988 621.696,201.8 C621.696,204.248012 621.72,206.191993 621.768,207.632 C621.864,211.56802 622.859991,214.50799 624.756,216.452 C626.652009,218.39601 629.207984,219.368 632.424,219.368 Z M674.904,227 C674.423998,227 674.016002,226.832002 673.68,226.496 C673.343998,226.159998 673.176,225.752002 673.176,225.272 L673.176,185.6 L659.856,185.6 C659.375998,185.6 658.968002,185.432002 658.632,185.096 C658.295998,184.759998 658.128,184.328003 658.128,183.8 L658.128,178.4 C658.128,177.871997 658.283998,177.440002 658.596,177.104 C658.908002,176.767998 659.327997,176.6 659.856,176.6 L696.648,176.6 C697.176003,176.6 697.607998,176.767998 697.944,177.104 C698.280002,177.440002 698.448,177.871997 698.448,178.4 L698.448,183.8 C698.448,184.328003 698.280002,184.759998 697.944,185.096 C697.607998,185.432002 697.176003,185.6 696.648,185.6 L683.4,185.6 L683.4,225.272 C683.4,225.752002 683.244002,226.159998 682.932,226.496 C682.619998,226.832002 682.200003,227 681.672,227 L674.904,227 Z M707.448,227 C706.967998,227 706.560002,226.832002 706.224,226.496 C705.887998,226.159998 705.72,225.752002 705.72,225.272 L705.72,178.328 C705.72,177.799997 705.887998,177.380002 706.224,177.068 C706.560002,176.755998 706.967998,176.6 707.448,176.6 L714.36,176.6 C714.888003,176.6 715.307998,176.755998 715.62,177.068 C715.932002,177.380002 716.088,177.799997 716.088,178.328 L716.088,225.272 C716.088,225.752002 715.932002,226.159998 715.62,226.496 C715.307998,226.832002 714.888003,227 714.36,227 L707.448,227 Z M746.76,227.72 C740.135967,227.72 735.012018,226.028017 731.388,222.644 C727.763982,219.259983 725.832001,214.448031 725.592,208.208 C725.544,206.911994 725.52,204.800015 725.52,201.872 C725.52,198.895985 725.544,196.736007 725.592,195.392 C725.832001,189.247969 727.775982,184.460017 731.424,181.028 C735.072018,177.595983 740.183967,175.88 746.76,175.88 C751.032021,175.88 754.751984,176.611993 757.92,178.076 C761.088016,179.540007 763.547991,181.543987 765.3,184.088 C767.052009,186.632013 767.976,189.487984 768.072,192.656 L768.072,192.8 C768.072,193.184002 767.916002,193.507999 767.604,193.772 C767.291998,194.036001 766.944002,194.168 766.56,194.168 L759.576,194.168 C758.999997,194.168 758.568001,194.036001 758.28,193.772 C757.991999,193.507999 757.752001,193.040003 757.56,192.368 C756.839996,189.391985 755.592009,187.292006 753.816,186.068 C752.039991,184.843994 749.688015,184.232 746.76,184.232 C739.895966,184.232 736.320001,188.071962 736.032,195.752 C735.984,197.048006 735.96,199.039987 735.96,201.728 C735.96,204.416013 735.984,206.455993 736.032,207.848 C736.320001,215.528038 739.895966,219.368 746.76,219.368 C749.640014,219.368 751.979991,218.756006 753.78,217.532 C755.580009,216.307994 756.839996,214.208015 757.56,211.232 C757.752001,210.559997 757.991999,210.092001 758.28,209.828 C758.568001,209.563999 758.999997,209.432 759.576,209.432 L766.56,209.432 C766.992002,209.432 767.363998,209.575999 767.676,209.864 C767.988002,210.152001 768.12,210.511998 768.072,210.944 C767.976,214.112016 767.052009,216.967987 765.3,219.512 C763.547991,222.056013 761.088016,224.059993 757.92,225.524 C754.751984,226.988007 751.032021,227.72 746.76,227.72 Z M794.208,227.72 C789.887978,227.72 786.192015,227.072006 783.12,225.776 C780.047985,224.479994 777.720008,222.776011 776.136,220.664 C774.551992,218.551989 773.712,216.248012 773.616,213.752 C773.616,213.367998 773.759999,213.020002 774.048,212.708 C774.336001,212.395998 774.695998,212.24 775.128,212.24 L781.68,212.24 C782.208003,212.24 782.639998,212.359999 782.976,212.6 C783.312002,212.840001 783.623999,213.175998 783.912,213.608 C784.392002,215.240008 785.483991,216.607994 787.188,217.712 C788.892009,218.816006 791.231985,219.368 794.208,219.368 C797.568017,219.368 800.099991,218.804006 801.804,217.676 C803.508009,216.547994 804.36,215.00001 804.36,213.032 C804.36,211.735994 803.928004,210.656004 803.064,209.792 C802.199996,208.927996 800.892009,208.172003 799.14,207.524 C797.387991,206.875997 794.784017,206.096005 791.328,205.184 C785.663972,203.839993 781.512013,202.064011 778.872,199.856 C776.231987,197.647989 774.912,194.480021 774.912,190.352 C774.912,187.567986 775.679992,185.084011 777.216,182.9 C778.752008,180.715989 780.947986,179.000006 783.804,177.752 C786.660014,176.503994 789.983981,175.88 793.776,175.88 C797.76002,175.88 801.203985,176.575993 804.108,177.968 C807.012015,179.360007 809.219992,181.09999 810.732,183.188 C812.244008,185.27601 813.048,187.35199 813.144,189.416 C813.144,189.800002 813.000001,190.147998 812.712,190.46 C812.423999,190.772002 812.064002,190.928 811.632,190.928 L804.792,190.928 C803.735995,190.928 803.016002,190.496004 802.632,189.632 C802.391999,188.095992 801.456008,186.812005 799.824,185.78 C798.191992,184.747995 796.176012,184.232 793.776,184.232 C791.135987,184.232 789.060008,184.735995 787.548,185.744 C786.035992,186.752005 785.28,188.21599 785.28,190.136 C785.28,191.432006 785.663996,192.511996 786.432,193.376 C787.200004,194.240004 788.399992,194.995997 790.032,195.644 C791.664008,196.292003 794.039984,197.023996 797.16,197.84 C801.432021,198.800005 804.827987,199.879994 807.348,201.08 C809.868013,202.280006 811.727994,203.791991 812.928,205.616 C814.128006,207.440009 814.728,209.767986 814.728,212.6 C814.728,215.720016 813.876009,218.419989 812.172,220.7 C810.467991,222.980011 808.068015,224.719994 804.972,225.92 C801.875985,227.120006 798.28802,227.72 794.208,227.72 Z M858.792,227.72 C852.167967,227.72 847.044018,226.028017 843.42,222.644 C839.795982,219.259983 837.864001,214.448031 837.624,208.208 C837.576,206.911994 837.552,204.800015 837.552,201.872 C837.552,198.895985 837.576,196.736007 837.624,195.392 C837.864001,189.247969 839.807982,184.460017 843.456,181.028 C847.104018,177.595983 852.215967,175.88 858.792,175.88 C863.064021,175.88 866.783984,176.611993 869.952,178.076 C873.120016,179.540007 875.579991,181.543987 877.332,184.088 C879.084009,186.632013 880.008,189.487984 880.104,192.656 L880.104,192.8 C880.104,193.184002 879.948002,193.507999 879.636,193.772 C879.323998,194.036001 878.976002,194.168 878.592,194.168 L871.608,194.168 C871.031997,194.168 870.600001,194.036001 870.312,193.772 C870.023999,193.507999 869.784001,193.040003 869.592,192.368 C868.871996,189.391985 867.624009,187.292006 865.848,186.068 C864.071991,184.843994 861.720015,184.232 858.792,184.232 C851.927966,184.232 848.352001,188.071962 848.064,195.752 C848.016,197.048006 847.992,199.039987 847.992,201.728 C847.992,204.416013 848.016,206.455993 848.064,207.848 C848.352001,215.528038 851.927966,219.368 858.792,219.368 C861.672014,219.368 864.011991,218.756006 865.812,217.532 C867.612009,216.307994 868.871996,214.208015 869.592,211.232 C869.784001,210.559997 870.023999,210.092001 870.312,209.828 C870.600001,209.563999 871.031997,209.432 871.608,209.432 L878.592,209.432 C879.024002,209.432 879.395998,209.575999 879.708,209.864 C880.020002,210.152001 880.152,210.511998 880.104,210.944 C880.008,214.112016 879.084009,216.967987 877.332,219.512 C875.579991,222.056013 873.120016,224.059993 869.952,225.524 C866.783984,226.988007 863.064021,227.72 858.792,227.72 Z M885,227 C884.567998,227 884.208001,226.856001 883.92,226.568 C883.631999,226.279999 883.488,225.920002 883.488,225.488 L883.632,224.84 L900.912,178.4 C901.392002,177.199994 902.255994,176.6 903.504,176.6 L911.424,176.6 C912.672006,176.6 913.535998,177.199994 914.016,178.4 L931.296,224.84 L931.44,225.488 C931.44,225.920002 931.284002,226.279999 930.972,226.568 C930.659998,226.856001 930.312002,227 929.928,227 L923.52,227 C922.511995,227 921.816002,226.544005 921.432,225.632 L918.12,216.92 L896.808,216.92 L893.496,225.632 C893.111998,226.544005 892.416005,227 891.408,227 L885,227 Z M899.328,208.568 L915.6,208.568 L907.464,186.392 L899.328,208.568 Z M939.792,227 C939.311998,227 938.904002,226.832002 938.568,226.496 C938.231998,226.159998 938.064,225.752002 938.064,225.272 L938.064,178.4 C938.064,177.871997 938.219998,177.440002 938.532,177.104 C938.844002,176.767998 939.263997,176.6 939.792,176.6 L945.624,176.6 C946.536005,176.6 947.255997,177.055995 947.784,177.968 L961.68,203.744 L975.576,177.968 C976.104003,177.055995 976.823995,176.6 977.736,176.6 L983.496,176.6 C984.024003,176.6 984.455998,176.767998 984.792,177.104 C985.128002,177.440002 985.296,177.871997 985.296,178.4 L985.296,225.272 C985.296,225.800003 985.128002,226.219998 984.792,226.532 C984.455998,226.844002 984.024003,227 983.496,227 L977.304,227 C976.823998,227 976.416002,226.832002 976.08,226.496 C975.743998,226.159998 975.576,225.752002 975.576,225.272 L975.576,194.312 L965.568,213.32 C965.039997,214.376005 964.248005,214.904 963.192,214.904 L960.168,214.904 C959.159995,214.904 958.344003,214.376005 957.72,213.32 L947.712,194.312 L947.712,225.272 C947.712,225.752002 947.556002,226.159998 947.244,226.496 C946.931998,226.832002 946.512003,227 945.984,227 L939.792,227 Z M998.256,227 C997.775998,227 997.368002,226.832002 997.032,226.496 C996.695998,226.159998 996.528,225.752002 996.528,225.272 L996.528,178.4 C996.528,177.871997 996.683998,177.440002 996.996,177.104 C997.308002,176.767998 997.727997,176.6 998.256,176.6 L1017.552,176.6 C1023.36003,176.6 1027.91998,177.967986 1031.232,180.704 C1034.54402,183.440014 1036.2,187.423974 1036.2,192.656 C1036.2,197.840026 1034.54402,201.763987 1031.232,204.428 C1027.91998,207.092013 1023.36003,208.424 1017.552,208.424 L1006.968,208.424 L1006.968,225.272 C1006.968,225.800003 1006.8,226.219998 1006.464,226.532 C1006.128,226.844002 1005.696,227 1005.168,227 L998.256,227 Z M1017.192,200.36 C1019.97601,200.36 1022.09999,199.700007 1023.564,198.38 C1025.02801,197.059993 1025.76,195.128013 1025.76,192.584 C1025.76,190.087988 1025.05201,188.144007 1023.636,186.752 C1022.21999,185.359993 1020.07201,184.664 1017.192,184.664 L1006.824,184.664 L1006.824,200.36 L1017.192,200.36 Z" id="ARDUINO-ROBOTICS-CAM"></path>
        </g>
    </g>
</svg>