
<svg width="1401px" height="53px" viewBox="0 0 1401 53" version="1.1" xmlns="http://www.w3.org/2000/svg" xmlns:xlink="http://www.w3.org/1999/xlink">
    <!-- Generator: Sketch 47.1 (45422) - http://www.bohemiancoding.com/sketch -->
    <desc>Created with Sketch.</desc>
    <defs></defs>
    <g id="Page-1" stroke="none" stroke-width="1" fill="none" fill-rule="evenodd">
        <path d="M2.344,52 C1.8639976,52 1.45600168,51.8320017 1.12,51.496 C0.78399832,51.1599983 0.616,50.7520024 0.616,50.272 L0.616,3.328 C0.616,2.79999736 0.78399832,2.38000156 1.12,2.068 C1.45600168,1.75599844 1.8639976,1.6 2.344,1.6 L9.256,1.6 C9.78400264,1.6 10.2039984,1.75599844 10.516,2.068 C10.8280016,2.38000156 10.984,2.79999736 10.984,3.328 L10.984,50.272 C10.984,50.7520024 10.8280016,51.1599983 10.516,51.496 C10.2039984,51.8320017 9.78400264,52 9.256,52 L2.344,52 Z M23.944,52 C23.4639976,52 23.0560017,51.8320017 22.72,51.496 C22.3839983,51.1599983 22.216,50.7520024 22.216,50.272 L22.216,3.4 C22.216,2.87199736 22.3719984,2.44000168 22.684,2.104 C22.9960016,1.76799832 23.4159974,1.6 23.944,1.6 L42.592,1.6 C48.4960295,1.6 53.1159833,2.96798632 56.452,5.704 C59.7880167,8.44001368 61.456,12.3279748 61.456,17.368 C61.456,20.8720175 60.6160084,23.8119881 58.936,26.188 C57.2559916,28.5640119 54.9040151,30.2799947 51.88,31.336 L62.32,49.696 C62.4640007,49.9840014 62.536,50.2479988 62.536,50.488 C62.536,50.9200022 62.3800016,51.2799986 62.068,51.568 C61.7559984,51.8560014 61.4080019,52 61.024,52 L54.4,52 C53.6319962,52 53.0320022,51.8200018 52.6,51.46 C52.1679978,51.0999982 51.7840017,50.6320029 51.448,50.056 L42.232,32.992 L32.368,32.992 L32.368,50.272 C32.368,50.7520024 32.2000017,51.1599983 31.864,51.496 C31.5279983,51.8320017 31.0960026,52 30.568,52 L23.944,52 Z M42.376,24.784 C45.2560144,24.784 47.4159928,24.1480064 48.856,22.876 C50.2960072,21.6039936 51.016,19.7440122 51.016,17.296 C51.016,14.8479878 50.2960072,12.9640066 48.856,11.644 C47.4159928,10.3239934 45.2560144,9.664 42.376,9.664 L32.368,9.664 L32.368,24.784 L42.376,24.784 Z M83.848,52 C82.4079928,52 81.4720022,51.3280067 81.04,49.984 L65.632,3.76 C65.5839998,3.61599928 65.56,3.40000144 65.56,3.112 C65.56,2.67999784 65.7039986,2.32000144 65.992,2.032 C66.2800014,1.74399856 66.6399978,1.6 67.072,1.6 L73.48,1.6 C74.1040031,1.6 74.6079981,1.76799832 74.992,2.104 C75.3760019,2.44000168 75.6399993,2.79999808 75.784,3.184 L87.808,40.048 L99.904,3.184 C100,2.79999808 100.239998,2.44000168 100.624,2.104 C101.008002,1.76799832 101.511997,1.6 102.136,1.6 L108.616,1.6 C109.000002,1.6 109.347998,1.74399856 109.66,2.032 C109.972002,2.32000144 110.128,2.67999784 110.128,3.112 L109.984,3.76 L94.648,49.984 C94.1679976,51.3280067 93.232007,52 91.84,52 L83.848,52 Z M119.488,52 C119.007998,52 118.600002,51.8320017 118.264,51.496 C117.927998,51.1599983 117.76,50.7520024 117.76,50.272 L117.76,3.328 C117.76,2.79999736 117.927998,2.38000156 118.264,2.068 C118.600002,1.75599844 119.007998,1.6 119.488,1.6 L126.4,1.6 C126.928003,1.6 127.347998,1.75599844 127.66,2.068 C127.972002,2.38000156 128.128,2.79999736 128.128,3.328 L128.128,50.272 C128.128,50.7520024 127.972002,51.1599983 127.66,51.496 C127.347998,51.8320017 126.928003,52 126.4,52 L119.488,52 Z M141.088,52 C140.607998,52 140.200002,51.8320017 139.864,51.496 C139.527998,51.1599983 139.36,50.7520024 139.36,50.272 L139.36,3.4 C139.36,2.87199736 139.515998,2.44000168 139.828,2.104 C140.140002,1.76799832 140.559997,1.6 141.088,1.6 L146.704,1.6 C147.616005,1.6 148.311998,2.00799592 148.792,2.824 L169.384,34.792 L169.384,3.4 C169.384,2.87199736 169.539998,2.44000168 169.852,2.104 C170.164002,1.76799832 170.583997,1.6 171.112,1.6 L177.304,1.6 C177.832003,1.6 178.263998,1.76799832 178.6,2.104 C178.936002,2.44000168 179.104,2.87199736 179.104,3.4 L179.104,50.2 C179.104,50.7280026 178.936002,51.1599983 178.6,51.496 C178.263998,51.8320017 177.856002,52 177.376,52 L171.688,52 C170.727995,52 170.008002,51.5920041 169.528,50.776 L149.008,19.528 L149.008,50.272 C149.008,50.7520024 148.852002,51.1599983 148.54,51.496 C148.227998,51.8320017 147.808003,52 147.28,52 L141.088,52 Z M209.92,52.72 C203.295967,52.72 198.148018,51.016017 194.476,47.608 C190.803982,44.199983 188.848001,39.4480305 188.608,33.352 C188.56,31.959993 188.536,29.7280154 188.536,26.656 C188.536,23.5839846 188.56,21.352007 188.608,19.96 C188.800001,14.0079702 190.767981,9.34001692 194.512,5.956 C198.256019,2.57198308 203.391967,0.88 209.92,0.88 C214.336022,0.88 218.139984,1.63599244 221.332,3.148 C224.524016,4.66000756 226.935992,6.53198884 228.568,8.764 C230.200008,10.9960112 231.064,13.1919892 231.16,15.352 C231.16,15.7840022 231.016001,16.1439986 230.728,16.432 C230.439999,16.7200014 230.056002,16.864 229.576,16.864 L222.016,16.864 C221.535998,16.864 221.176001,16.768001 220.936,16.576 C220.695999,16.383999 220.480001,16.0720022 220.288,15.64 C219.615997,13.8639911 218.440008,12.3520062 216.76,11.104 C215.079992,9.85599376 212.800014,9.232 209.92,9.232 C206.559983,9.232 203.932009,10.131991 202.036,11.932 C200.139991,13.732009 199.144,16.527981 199.048,20.32 C199,21.712007 198.976,23.8239858 198.976,26.656 C198.976,29.4400139 199,31.5519928 199.048,32.992 C199.144,36.8800194 200.15199,39.7479908 202.072,41.596 C203.99201,43.4440092 206.631983,44.368 209.992,44.368 C213.400017,44.368 216.13599,43.4560091 218.2,41.632 C220.26401,39.8079909 221.296,37.0720182 221.296,33.424 L221.296,31.192 L212.512,31.192 C212.031998,31.192 211.624002,31.0240017 211.288,30.688 C210.951998,30.3519983 210.784,29.9440024 210.784,29.464 L210.784,25.504 C210.784,25.0239976 210.951998,24.6160017 211.288,24.28 C211.624002,23.9439983 212.031998,23.776 212.512,23.776 L229.792,23.776 C230.320003,23.776 230.751998,23.9439983 231.088,24.28 C231.424002,24.6160017 231.592,25.0239976 231.592,25.504 L231.592,33.136 C231.592,37.1200199 230.704009,40.5879852 228.928,43.54 C227.151991,46.4920148 224.632016,48.7599921 221.368,50.344 C218.103984,51.9280079 214.288022,52.72 209.92,52.72 Z M253.048,52 C252.567998,52 252.160002,51.8320017 251.824,51.496 C251.487998,51.1599983 251.32,50.7520024 251.32,50.272 L251.32,10.6 L238,10.6 C237.519998,10.6 237.112002,10.4320017 236.776,10.096 C236.439998,9.75999832 236.272,9.32800264 236.272,8.8 L236.272,3.4 C236.272,2.87199736 236.427998,2.44000168 236.74,2.104 C237.052002,1.76799832 237.471997,1.6 238,1.6 L274.792,1.6 C275.320003,1.6 275.751998,1.76799832 276.088,2.104 C276.424002,2.44000168 276.592,2.87199736 276.592,3.4 L276.592,8.8 C276.592,9.32800264 276.424002,9.75999832 276.088,10.096 C275.751998,10.4320017 275.320003,10.6 274.792,10.6 L261.544,10.6 L261.544,50.272 C261.544,50.7520024 261.388002,51.1599983 261.076,51.496 C260.763998,51.8320017 260.344003,52 259.816,52 L253.048,52 Z M302.368,52.72 C295.791967,52.72 290.680018,51.0640166 287.032,47.752 C283.383982,44.4399834 281.464001,39.5200326 281.272,32.992 C281.224,31.599993 281.2,29.5600134 281.2,26.872 C281.2,24.1359863 281.224,22.072007 281.272,20.68 C281.464001,14.2959681 283.431981,9.40001704 287.176,5.992 C290.920019,2.58398296 295.983968,0.88 302.368,0.88 C308.704032,0.88 313.755981,2.58398296 317.524,5.992 C321.292019,9.40001704 323.271999,14.2959681 323.464,20.68 C323.56,23.4640139 323.608,25.5279933 323.608,26.872 C323.608,28.1680065 323.56,30.2079861 323.464,32.992 C323.271999,39.5200326 321.340018,44.4399834 317.668,47.752 C313.995982,51.0640166 308.896033,52.72 302.368,52.72 Z M302.368,44.368 C305.584016,44.368 308.127991,43.4080096 310,41.488 C311.872009,39.5679904 312.879999,36.6160199 313.024,32.632 C313.12,29.7519856 313.168,27.808005 313.168,26.8 C313.168,25.6959945 313.12,23.7520139 313.024,20.968 C312.879999,17.0319803 311.84801,14.0920097 309.928,12.148 C308.00799,10.2039903 305.488016,9.232 302.368,9.232 C299.199984,9.232 296.65601,10.2039903 294.736,12.148 C292.81599,14.0920097 291.808,17.0319803 291.712,20.968 C291.664,22.360007 291.64,24.3039875 291.64,26.8 C291.64,29.2480122 291.664,31.1919928 291.712,32.632 C291.808,36.5680197 292.803991,39.5079903 294.7,41.452 C296.596009,43.3960097 299.151984,44.368 302.368,44.368 Z M334.696,52 C334.215998,52 333.808002,51.8320017 333.472,51.496 C333.135998,51.1599983 332.968,50.7520024 332.968,50.272 L332.968,3.4 C332.968,2.87199736 333.123998,2.44000168 333.436,2.104 C333.748002,1.76799832 334.167997,1.6 334.696,1.6 L340.312,1.6 C341.224005,1.6 341.919998,2.00799592 342.4,2.824 L362.992,34.792 L362.992,3.4 C362.992,2.87199736 363.147998,2.44000168 363.46,2.104 C363.772002,1.76799832 364.191997,1.6 364.72,1.6 L370.912,1.6 C371.440003,1.6 371.871998,1.76799832 372.208,2.104 C372.544002,2.44000168 372.712,2.87199736 372.712,3.4 L372.712,50.2 C372.712,50.7280026 372.544002,51.1599983 372.208,51.496 C371.871998,51.8320017 371.464002,52 370.984,52 L365.296,52 C364.335995,52 363.616002,51.5920041 363.136,50.776 L342.616,19.528 L342.616,50.272 C342.616,50.7520024 342.460002,51.1599983 342.148,51.496 C341.835998,51.8320017 341.416003,52 340.888,52 L334.696,52 Z M413.104,52 C411.663993,52 410.728002,51.3280067 410.296,49.984 L394.888,3.76 C394.84,3.61599928 394.816,3.40000144 394.816,3.112 C394.816,2.67999784 394.959999,2.32000144 395.248,2.032 C395.536001,1.74399856 395.895998,1.6 396.328,1.6 L402.736,1.6 C403.360003,1.6 403.863998,1.76799832 404.248,2.104 C404.632002,2.44000168 404.895999,2.79999808 405.04,3.184 L417.064,40.048 L429.16,3.184 C429.256,2.79999808 429.495998,2.44000168 429.88,2.104 C430.264002,1.76799832 430.767997,1.6 431.392,1.6 L437.872,1.6 C438.256002,1.6 438.603998,1.74399856 438.916,2.032 C439.228002,2.32000144 439.384,2.67999784 439.384,3.112 L439.24,3.76 L423.904,49.984 C423.423998,51.3280067 422.488007,52 421.096,52 L413.104,52 Z M448.744,52 C448.263998,52 447.856002,51.8320017 447.52,51.496 C447.183998,51.1599983 447.016,50.7520024 447.016,50.272 L447.016,3.4 C447.016,2.87199736 447.171998,2.44000168 447.484,2.104 C447.796002,1.76799832 448.215997,1.6 448.744,1.6 L480.496,1.6 C481.024003,1.6 481.455998,1.76799832 481.792,2.104 C482.128002,2.44000168 482.296,2.87199736 482.296,3.4 L482.296,8.224 C482.296,8.75200264 482.128002,9.17199844 481.792,9.484 C481.455998,9.79600156 481.024003,9.952 480.496,9.952 L456.88,9.952 L456.88,22.552 L478.912,22.552 C479.440003,22.552 479.871998,22.7199983 480.208,23.056 C480.544002,23.3920017 480.712,23.8239974 480.712,24.352 L480.712,28.888 C480.712,29.4160026 480.544002,29.8359984 480.208,30.148 C479.871998,30.4600016 479.440003,30.616 478.912,30.616 L456.88,30.616 L456.88,43.648 L481.072,43.648 C481.600003,43.648 482.031998,43.8039984 482.368,44.116 C482.704002,44.4280016 482.872,44.8479974 482.872,45.376 L482.872,50.272 C482.872,50.8000026 482.704002,51.2199984 482.368,51.532 C482.031998,51.8440016 481.600003,52 481.072,52 L448.744,52 Z M488.992,52 C488.607998,52 488.260002,51.8560014 487.948,51.568 C487.635998,51.2799986 487.48,50.9200022 487.48,50.488 C487.48,50.295999 487.575999,50.0080019 487.768,49.624 L503.824,26.296 L488.776,3.976 C488.583999,3.68799856 488.488,3.40000144 488.488,3.112 C488.488,2.67999784 488.643998,2.32000144 488.956,2.032 C489.268002,1.74399856 489.615998,1.6 490,1.6 L497.56,1.6 C498.424004,1.6 499.167997,2.05599544 499.792,2.968 L510.304,18.376 L520.888,2.968 C521.416003,2.05599544 522.159995,1.6 523.12,1.6 L530.248,1.6 C530.632002,1.6 530.979998,1.74399856 531.292,2.032 C531.604002,2.32000144 531.76,2.67999784 531.76,3.112 C531.76,3.30400096 531.664001,3.59199808 531.472,3.976 L516.424,26.296 L532.552,49.624 C532.696001,49.9120014 532.768,50.1999986 532.768,50.488 C532.768,50.9200022 532.624001,51.2799986 532.336,51.568 C532.047999,51.8560014 531.688002,52 531.256,52 L523.552,52 C522.687996,52 521.944003,51.5680043 521.32,50.704 L509.944,34.504 L498.712,50.704 C498.087997,51.5680043 497.344004,52 496.48,52 L488.992,52 Z M557.752,52 C557.271998,52 556.864002,51.8320017 556.528,51.496 C556.191998,51.1599983 556.024,50.7520024 556.024,50.272 L556.024,3.4 C556.024,2.87199736 556.179998,2.44000168 556.492,2.104 C556.804002,1.76799832 557.223997,1.6 557.752,1.6 L576.4,1.6 C582.30403,1.6 586.923983,2.96798632 590.26,5.704 C593.596017,8.44001368 595.264,12.3279748 595.264,17.368 C595.264,20.8720175 594.424008,23.8119881 592.744,26.188 C591.063992,28.5640119 588.712015,30.2799947 585.688,31.336 L596.128,49.696 C596.272001,49.9840014 596.344,50.2479988 596.344,50.488 C596.344,50.9200022 596.188002,51.2799986 595.876,51.568 C595.563998,51.8560014 595.216002,52 594.832,52 L588.208,52 C587.439996,52 586.840002,51.8200018 586.408,51.46 C585.975998,51.0999982 585.592002,50.6320029 585.256,50.056 L576.04,32.992 L566.176,32.992 L566.176,50.272 C566.176,50.7520024 566.008002,51.1599983 565.672,51.496 C565.335998,51.8320017 564.904003,52 564.376,52 L557.752,52 Z M576.184,24.784 C579.064014,24.784 581.223993,24.1480064 582.664,22.876 C584.104007,21.6039936 584.824,19.7440122 584.824,17.296 C584.824,14.8479878 584.104007,12.9640066 582.664,11.644 C581.223993,10.3239934 579.064014,9.664 576.184,9.664 L566.176,9.664 L566.176,24.784 L576.184,24.784 Z M623.848,52.72 C617.271967,52.72 612.160018,51.0640166 608.512,47.752 C604.863982,44.4399834 602.944001,39.5200326 602.752,32.992 C602.704,31.599993 602.68,29.5600134 602.68,26.872 C602.68,24.1359863 602.704,22.072007 602.752,20.68 C602.944001,14.2959681 604.911981,9.40001704 608.656,5.992 C612.400019,2.58398296 617.463968,0.88 623.848,0.88 C630.184032,0.88 635.235981,2.58398296 639.004,5.992 C642.772019,9.40001704 644.751999,14.2959681 644.944,20.68 C645.04,23.4640139 645.088,25.5279933 645.088,26.872 C645.088,28.1680065 645.04,30.2079861 644.944,32.992 C644.751999,39.5200326 642.820018,44.4399834 639.148,47.752 C635.475982,51.0640166 630.376033,52.72 623.848,52.72 Z M623.848,44.368 C627.064016,44.368 629.607991,43.4080096 631.48,41.488 C633.352009,39.5679904 634.359999,36.6160199 634.504,32.632 C634.6,29.7519856 634.648,27.808005 634.648,26.8 C634.648,25.6959945 634.6,23.7520139 634.504,20.968 C634.359999,17.0319803 633.32801,14.0920097 631.408,12.148 C629.48799,10.2039903 626.968016,9.232 623.848,9.232 C620.679984,9.232 618.13601,10.2039903 616.216,12.148 C614.29599,14.0920097 613.288,17.0319803 613.192,20.968 C613.144,22.360007 613.12,24.3039875 613.12,26.8 C613.12,29.2480122 613.144,31.1919928 613.192,32.632 C613.288,36.5680197 614.283991,39.5079903 616.18,41.452 C618.076009,43.3960097 620.631984,44.368 623.848,44.368 Z M656.176,52 C655.695998,52 655.288002,51.8320017 654.952,51.496 C654.615998,51.1599983 654.448,50.7520024 654.448,50.272 L654.448,3.4 C654.448,2.87199736 654.603998,2.44000168 654.916,2.104 C655.228002,1.76799832 655.647997,1.6 656.176,1.6 L677.056,1.6 C682.672028,1.6 686.871986,2.83598764 689.656,5.308 C692.440014,7.78001236 693.832,11.1519786 693.832,15.424 C693.832,17.9200125 693.220006,20.0439912 691.996,21.796 C690.771994,23.5480088 689.344008,24.8079962 687.712,25.576 C689.72801,26.4880046 691.431993,27.9759897 692.824,30.04 C694.216007,32.1040103 694.912,34.4559868 694.912,37.096 C694.912,41.5600223 693.400015,45.1599863 690.376,47.896 C687.351985,50.6320137 683.128027,52 677.704,52 L656.176,52 Z M675.76,22.264 C678.208012,22.264 680.091993,21.664006 681.412,20.464 C682.732007,19.263994 683.392,17.6560101 683.392,15.64 C683.392,13.6239899 682.744006,12.0640055 681.448,10.96 C680.151994,9.85599448 678.256012,9.304 675.76,9.304 L664.6,9.304 L664.6,22.264 L675.76,22.264 Z M676.48,44.296 C678.976012,44.296 680.919993,43.6120068 682.312,42.244 C683.704007,40.8759932 684.4,39.1360106 684.4,37.024 C684.4,34.9119894 683.692007,33.1720068 682.276,31.804 C680.859993,30.4359932 678.928012,29.752 676.48,29.752 L664.6,29.752 L664.6,44.296 L676.48,44.296 Z M723.352,52.72 C716.775967,52.72 711.664018,51.0640166 708.016,47.752 C704.367982,44.4399834 702.448001,39.5200326 702.256,32.992 C702.208,31.599993 702.184,29.5600134 702.184,26.872 C702.184,24.1359863 702.208,22.072007 702.256,20.68 C702.448001,14.2959681 704.415981,9.40001704 708.16,5.992 C711.904019,2.58398296 716.967968,0.88 723.352,0.88 C729.688032,0.88 734.739981,2.58398296 738.508,5.992 C742.276019,9.40001704 744.255999,14.2959681 744.448,20.68 C744.544,23.4640139 744.592,25.5279933 744.592,26.872 C744.592,28.1680065 744.544,30.2079861 744.448,32.992 C744.255999,39.5200326 742.324018,44.4399834 738.652,47.752 C734.979982,51.0640166 729.880033,52.72 723.352,52.72 Z M723.352,44.368 C726.568016,44.368 729.111991,43.4080096 730.984,41.488 C732.856009,39.5679904 733.863999,36.6160199 734.008,32.632 C734.104,29.7519856 734.152,27.808005 734.152,26.8 C734.152,25.6959945 734.104,23.7520139 734.008,20.968 C733.863999,17.0319803 732.83201,14.0920097 730.912,12.148 C728.99199,10.2039903 726.472016,9.232 723.352,9.232 C720.183984,9.232 717.64001,10.2039903 715.72,12.148 C713.79999,14.0920097 712.792,17.0319803 712.696,20.968 C712.648,22.360007 712.624,24.3039875 712.624,26.8 C712.624,29.2480122 712.648,31.1919928 712.696,32.632 C712.792,36.5680197 713.787991,39.5079903 715.684,41.452 C717.580009,43.3960097 720.135984,44.368 723.352,44.368 Z M765.832,52 C765.351998,52 764.944002,51.8320017 764.608,51.496 C764.271998,51.1599983 764.104,50.7520024 764.104,50.272 L764.104,10.6 L750.784,10.6 C750.303998,10.6 749.896002,10.4320017 749.56,10.096 C749.223998,9.75999832 749.056,9.32800264 749.056,8.8 L749.056,3.4 C749.056,2.87199736 749.211998,2.44000168 749.524,2.104 C749.836002,1.76799832 750.255997,1.6 750.784,1.6 L787.576,1.6 C788.104003,1.6 788.535998,1.76799832 788.872,2.104 C789.208002,2.44000168 789.376,2.87199736 789.376,3.4 L789.376,8.8 C789.376,9.32800264 789.208002,9.75999832 788.872,10.096 C788.535998,10.4320017 788.104003,10.6 787.576,10.6 L774.328,10.6 L774.328,50.272 C774.328,50.7520024 774.172002,51.1599983 773.86,51.496 C773.547998,51.8320017 773.128003,52 772.6,52 L765.832,52 Z M798.376,52 C797.895998,52 797.488002,51.8320017 797.152,51.496 C796.815998,51.1599983 796.648,50.7520024 796.648,50.272 L796.648,3.328 C796.648,2.79999736 796.815998,2.38000156 797.152,2.068 C797.488002,1.75599844 797.895998,1.6 798.376,1.6 L805.288,1.6 C805.816003,1.6 806.235998,1.75599844 806.548,2.068 C806.860002,2.38000156 807.016,2.79999736 807.016,3.328 L807.016,50.272 C807.016,50.7520024 806.860002,51.1599983 806.548,51.496 C806.235998,51.8320017 805.816003,52 805.288,52 L798.376,52 Z M837.688,52.72 C831.063967,52.72 825.940018,51.0280169 822.316,47.644 C818.691982,44.2599831 816.760001,39.4480312 816.52,33.208 C816.472,31.9119935 816.448,29.8000146 816.448,26.872 C816.448,23.8959851 816.472,21.7360067 816.52,20.392 C816.760001,14.2479693 818.703982,9.46001716 822.352,6.028 C826.000018,2.59598284 831.111967,0.88 837.688,0.88 C841.960021,0.88 845.679984,1.61199268 848.848,3.076 C852.016016,4.54000732 854.475991,6.54398728 856.228,9.088 C857.980009,11.6320127 858.904,14.4879842 859,17.656 L859,17.8 C859,18.1840019 858.844002,18.5079987 858.532,18.772 C858.219998,19.0360013 857.872002,19.168 857.488,19.168 L850.504,19.168 C849.927997,19.168 849.496001,19.0360013 849.208,18.772 C848.919999,18.5079987 848.680001,18.0400034 848.488,17.368 C847.767996,14.3919851 846.520009,12.2920061 844.744,11.068 C842.967991,9.84399388 840.616015,9.232 837.688,9.232 C830.823966,9.232 827.248001,13.0719616 826.96,20.752 C826.912,22.0480065 826.888,24.0399866 826.888,26.728 C826.888,29.4160134 826.912,31.455993 826.96,32.848 C827.248001,40.5280384 830.823966,44.368 837.688,44.368 C840.568014,44.368 842.907991,43.7560061 844.708,42.532 C846.508009,41.3079939 847.767996,39.2080149 848.488,36.232 C848.680001,35.5599966 848.919999,35.0920013 849.208,34.828 C849.496001,34.5639987 849.927997,34.432 850.504,34.432 L857.488,34.432 C857.920002,34.432 858.291998,34.5759986 858.604,34.864 C858.916002,35.1520014 859.048,35.5119978 859,35.944 C858.904,39.1120158 857.980009,41.9679873 856.228,44.512 C854.475991,47.0560127 852.016016,49.0599927 848.848,50.524 C845.679984,51.9880073 841.960021,52.72 837.688,52.72 Z M885.136,52.72 C880.815978,52.72 877.120015,52.0720065 874.048,50.776 C870.975985,49.4799935 868.648008,47.7760106 867.064,45.664 C865.479992,43.5519894 864.64,41.2480125 864.544,38.752 C864.544,38.3679981 864.687999,38.0200016 864.976,37.708 C865.264001,37.3959984 865.623998,37.24 866.056,37.24 L872.608,37.24 C873.136003,37.24 873.567998,37.3599988 873.904,37.6 C874.240002,37.8400012 874.551999,38.1759978 874.84,38.608 C875.320002,40.2400082 876.411991,41.6079945 878.116,42.712 C879.820009,43.8160055 882.159985,44.368 885.136,44.368 C888.496017,44.368 891.027991,43.8040056 892.732,42.676 C894.436009,41.5479944 895.288,40.0000098 895.288,38.032 C895.288,36.7359935 894.856004,35.6560043 893.992,34.792 C893.127996,33.9279957 891.820009,33.1720032 890.068,32.524 C888.315991,31.8759968 885.712017,31.0960046 882.256,30.184 C876.591972,28.8399933 872.440013,27.064011 869.8,24.856 C867.159987,22.647989 865.84,19.4800206 865.84,15.352 C865.84,12.5679861 866.607992,10.0840109 868.144,7.9 C869.680008,5.71598908 871.875986,4.00000624 874.732,2.752 C877.588014,1.50399376 880.911981,0.88 884.704,0.88 C888.68802,0.88 892.131985,1.57599304 895.036,2.968 C897.940015,4.36000696 900.147992,6.09998956 901.66,8.188 C903.172008,10.2760104 903.976,12.3519897 904.072,14.416 C904.072,14.8000019 903.928001,15.1479984 903.64,15.46 C903.351999,15.7720016 902.992002,15.928 902.56,15.928 L895.72,15.928 C894.663995,15.928 893.944002,15.4960043 893.56,14.632 C893.319999,13.0959923 892.384008,11.8120052 890.752,10.78 C889.119992,9.74799484 887.104012,9.232 884.704,9.232 C882.063987,9.232 879.988008,9.73599496 878.476,10.744 C876.963992,11.752005 876.208,13.2159904 876.208,15.136 C876.208,16.4320065 876.591996,17.5119957 877.36,18.376 C878.128004,19.2400043 879.327992,19.9959968 880.96,20.644 C882.592008,21.2920032 884.967984,22.0239959 888.088,22.84 C892.360021,23.8000048 895.755987,24.879994 898.276,26.08 C900.796013,27.280006 902.655994,28.7919909 903.856,30.616 C905.056006,32.4400091 905.656,34.7679858 905.656,37.6 C905.656,40.7200156 904.804009,43.4199886 903.1,45.7 C901.395991,47.9800114 898.996015,49.719994 895.9,50.92 C892.803985,52.120006 889.21602,52.72 885.136,52.72 Z M949.72,52.72 C943.095967,52.72 937.972018,51.0280169 934.348,47.644 C930.723982,44.2599831 928.792001,39.4480312 928.552,33.208 C928.504,31.9119935 928.48,29.8000146 928.48,26.872 C928.48,23.8959851 928.504,21.7360067 928.552,20.392 C928.792001,14.2479693 930.735982,9.46001716 934.384,6.028 C938.032018,2.59598284 943.143967,0.88 949.72,0.88 C953.992021,0.88 957.711984,1.61199268 960.88,3.076 C964.048016,4.54000732 966.507991,6.54398728 968.26,9.088 C970.012009,11.6320127 970.936,14.4879842 971.032,17.656 L971.032,17.8 C971.032,18.1840019 970.876002,18.5079987 970.564,18.772 C970.251998,19.0360013 969.904002,19.168 969.52,19.168 L962.536,19.168 C961.959997,19.168 961.528001,19.0360013 961.24,18.772 C960.951999,18.5079987 960.712001,18.0400034 960.52,17.368 C959.799996,14.3919851 958.552009,12.2920061 956.776,11.068 C954.999991,9.84399388 952.648015,9.232 949.72,9.232 C942.855966,9.232 939.280001,13.0719616 938.992,20.752 C938.944,22.0480065 938.92,24.0399866 938.92,26.728 C938.92,29.4160134 938.944,31.455993 938.992,32.848 C939.280001,40.5280384 942.855966,44.368 949.72,44.368 C952.600014,44.368 954.939991,43.7560061 956.74,42.532 C958.540009,41.3079939 959.799996,39.2080149 960.52,36.232 C960.712001,35.5599966 960.951999,35.0920013 961.24,34.828 C961.528001,34.5639987 961.959997,34.432 962.536,34.432 L969.52,34.432 C969.952002,34.432 970.323998,34.5759986 970.636,34.864 C970.948002,35.1520014 971.08,35.5119978 971.032,35.944 C970.936,39.1120158 970.012009,41.9679873 968.26,44.512 C966.507991,47.0560127 964.048016,49.0599927 960.88,50.524 C957.711984,51.9880073 953.992021,52.72 949.72,52.72 Z M999.04,52.72 C992.463967,52.72 987.352018,51.0640166 983.704,47.752 C980.055982,44.4399834 978.136001,39.5200326 977.944,32.992 C977.896,31.599993 977.872,29.5600134 977.872,26.872 C977.872,24.1359863 977.896,22.072007 977.944,20.68 C978.136001,14.2959681 980.103981,9.40001704 983.848,5.992 C987.592019,2.58398296 992.655968,0.88 999.04,0.88 C1005.37603,0.88 1010.42798,2.58398296 1014.196,5.992 C1017.96402,9.40001704 1019.944,14.2959681 1020.136,20.68 C1020.232,23.4640139 1020.28,25.5279933 1020.28,26.872 C1020.28,28.1680065 1020.232,30.2079861 1020.136,32.992 C1019.944,39.5200326 1018.01202,44.4399834 1014.34,47.752 C1010.66798,51.0640166 1005.56803,52.72 999.04,52.72 Z M999.04,44.368 C1002.25602,44.368 1004.79999,43.4080096 1006.672,41.488 C1008.54401,39.5679904 1009.552,36.6160199 1009.696,32.632 C1009.792,29.7519856 1009.84,27.808005 1009.84,26.8 C1009.84,25.6959945 1009.792,23.7520139 1009.696,20.968 C1009.552,17.0319803 1008.52001,14.0920097 1006.6,12.148 C1004.67999,10.2039903 1002.16002,9.232 999.04,9.232 C995.871984,9.232 993.32801,10.2039903 991.408,12.148 C989.48799,14.0920097 988.48,17.0319803 988.384,20.968 C988.336,22.360007 988.312,24.3039875 988.312,26.8 C988.312,29.2480122 988.336,31.1919928 988.384,32.632 C988.48,36.5680197 989.475991,39.5079903 991.372,41.452 C993.268009,43.3960097 995.823984,44.368 999.04,44.368 Z M1031.368,52 C1030.888,52 1030.48,51.8320017 1030.144,51.496 C1029.808,51.1599983 1029.64,50.7520024 1029.64,50.272 L1029.64,3.4 C1029.64,2.87199736 1029.796,2.44000168 1030.108,2.104 C1030.42,1.76799832 1030.84,1.6 1031.368,1.6 L1037.2,1.6 C1038.112,1.6 1038.832,2.05599544 1039.36,2.968 L1053.256,28.744 L1067.152,2.968 C1067.68,2.05599544 1068.4,1.6 1069.312,1.6 L1075.072,1.6 C1075.6,1.6 1076.032,1.76799832 1076.368,2.104 C1076.704,2.44000168 1076.872,2.87199736 1076.872,3.4 L1076.872,50.272 C1076.872,50.8000026 1076.704,51.2199984 1076.368,51.532 C1076.032,51.8440016 1075.6,52 1075.072,52 L1068.88,52 C1068.4,52 1067.992,51.8320017 1067.656,51.496 C1067.32,51.1599983 1067.152,50.7520024 1067.152,50.272 L1067.152,19.312 L1057.144,38.32 C1056.616,39.3760053 1055.82401,39.904 1054.768,39.904 L1051.744,39.904 C1050.73599,39.904 1049.92,39.3760053 1049.296,38.32 L1039.288,19.312 L1039.288,50.272 C1039.288,50.7520024 1039.132,51.1599983 1038.82,51.496 C1038.508,51.8320017 1038.088,52 1037.56,52 L1031.368,52 Z M1089.832,52 C1089.352,52 1088.944,51.8320017 1088.608,51.496 C1088.272,51.1599983 1088.104,50.7520024 1088.104,50.272 L1088.104,3.4 C1088.104,2.87199736 1088.26,2.44000168 1088.572,2.104 C1088.884,1.76799832 1089.304,1.6 1089.832,1.6 L1109.128,1.6 C1114.93603,1.6 1119.49598,2.96798632 1122.808,5.704 C1126.12002,8.44001368 1127.776,12.4239738 1127.776,17.656 C1127.776,22.8400259 1126.12002,26.7639867 1122.808,29.428 C1119.49598,32.0920133 1114.93603,33.424 1109.128,33.424 L1098.544,33.424 L1098.544,50.272 C1098.544,50.8000026 1098.376,51.2199984 1098.04,51.532 C1097.704,51.8440016 1097.272,52 1096.744,52 L1089.832,52 Z M1108.768,25.36 C1111.55201,25.36 1113.67599,24.7000066 1115.14,23.38 C1116.60401,22.0599934 1117.336,20.1280127 1117.336,17.584 C1117.336,15.0879875 1116.62801,13.144007 1115.212,11.752 C1113.79599,10.359993 1111.64801,9.664 1108.768,9.664 L1098.4,9.664 L1098.4,25.36 L1108.768,25.36 Z M1137.352,52 C1136.872,52 1136.464,51.8320017 1136.128,51.496 C1135.792,51.1599983 1135.624,50.7520024 1135.624,50.272 L1135.624,3.4 C1135.624,2.87199736 1135.78,2.44000168 1136.092,2.104 C1136.404,1.76799832 1136.824,1.6 1137.352,1.6 L1169.104,1.6 C1169.632,1.6 1170.064,1.76799832 1170.4,2.104 C1170.736,2.44000168 1170.904,2.87199736 1170.904,3.4 L1170.904,8.224 C1170.904,8.75200264 1170.736,9.17199844 1170.4,9.484 C1170.064,9.79600156 1169.632,9.952 1169.104,9.952 L1145.488,9.952 L1145.488,22.552 L1167.52,22.552 C1168.048,22.552 1168.48,22.7199983 1168.816,23.056 C1169.152,23.3920017 1169.32,23.8239974 1169.32,24.352 L1169.32,28.888 C1169.32,29.4160026 1169.152,29.8359984 1168.816,30.148 C1168.48,30.4600016 1168.048,30.616 1167.52,30.616 L1145.488,30.616 L1145.488,43.648 L1169.68,43.648 C1170.208,43.648 1170.64,43.8039984 1170.976,44.116 C1171.312,44.4280016 1171.48,44.8479974 1171.48,45.376 L1171.48,50.272 C1171.48,50.8000026 1171.312,51.2199984 1170.976,51.532 C1170.64,51.8440016 1170.208,52 1169.68,52 L1137.352,52 Z M1193.296,52 C1192.816,52 1192.408,51.8320017 1192.072,51.496 C1191.736,51.1599983 1191.568,50.7520024 1191.568,50.272 L1191.568,10.6 L1178.248,10.6 C1177.768,10.6 1177.36,10.4320017 1177.024,10.096 C1176.688,9.75999832 1176.52,9.32800264 1176.52,8.8 L1176.52,3.4 C1176.52,2.87199736 1176.676,2.44000168 1176.988,2.104 C1177.3,1.76799832 1177.72,1.6 1178.248,1.6 L1215.04,1.6 C1215.568,1.6 1216,1.76799832 1216.336,2.104 C1216.672,2.44000168 1216.84,2.87199736 1216.84,3.4 L1216.84,8.8 C1216.84,9.32800264 1216.672,9.75999832 1216.336,10.096 C1216,10.4320017 1215.568,10.6 1215.04,10.6 L1201.792,10.6 L1201.792,50.272 C1201.792,50.7520024 1201.636,51.1599983 1201.324,51.496 C1201.012,51.8320017 1200.592,52 1200.064,52 L1193.296,52 Z M1225.84,52 C1225.36,52 1224.952,51.8320017 1224.616,51.496 C1224.28,51.1599983 1224.112,50.7520024 1224.112,50.272 L1224.112,3.328 C1224.112,2.79999736 1224.28,2.38000156 1224.616,2.068 C1224.952,1.75599844 1225.36,1.6 1225.84,1.6 L1232.752,1.6 C1233.28,1.6 1233.7,1.75599844 1234.012,2.068 C1234.324,2.38000156 1234.48,2.79999736 1234.48,3.328 L1234.48,50.272 C1234.48,50.7520024 1234.324,51.1599983 1234.012,51.496 C1233.7,51.8320017 1233.28,52 1232.752,52 L1225.84,52 Z M1258.528,52 C1258.048,52 1257.64,51.8320017 1257.304,51.496 C1256.968,51.1599983 1256.8,50.7520024 1256.8,50.272 L1256.8,10.6 L1243.48,10.6 C1243,10.6 1242.592,10.4320017 1242.256,10.096 C1241.92,9.75999832 1241.752,9.32800264 1241.752,8.8 L1241.752,3.4 C1241.752,2.87199736 1241.908,2.44000168 1242.22,2.104 C1242.532,1.76799832 1242.952,1.6 1243.48,1.6 L1280.272,1.6 C1280.8,1.6 1281.232,1.76799832 1281.568,2.104 C1281.904,2.44000168 1282.072,2.87199736 1282.072,3.4 L1282.072,8.8 C1282.072,9.32800264 1281.904,9.75999832 1281.568,10.096 C1281.232,10.4320017 1280.8,10.6 1280.272,10.6 L1267.024,10.6 L1267.024,50.272 C1267.024,50.7520024 1266.868,51.1599983 1266.556,51.496 C1266.244,51.8320017 1265.824,52 1265.296,52 L1258.528,52 Z M1291.072,52 C1290.592,52 1290.184,51.8320017 1289.848,51.496 C1289.512,51.1599983 1289.344,50.7520024 1289.344,50.272 L1289.344,3.328 C1289.344,2.79999736 1289.512,2.38000156 1289.848,2.068 C1290.184,1.75599844 1290.592,1.6 1291.072,1.6 L1297.984,1.6 C1298.512,1.6 1298.932,1.75599844 1299.244,2.068 C1299.556,2.38000156 1299.712,2.79999736 1299.712,3.328 L1299.712,50.272 C1299.712,50.7520024 1299.556,51.1599983 1299.244,51.496 C1298.932,51.8320017 1298.512,52 1297.984,52 L1291.072,52 Z M1330.384,52.72 C1323.80797,52.72 1318.69602,51.0640166 1315.048,47.752 C1311.39998,44.4399834 1309.48,39.5200326 1309.288,32.992 C1309.24,31.599993 1309.216,29.5600134 1309.216,26.872 C1309.216,24.1359863 1309.24,22.072007 1309.288,20.68 C1309.48,14.2959681 1311.44798,9.40001704 1315.192,5.992 C1318.93602,2.58398296 1323.99997,0.88 1330.384,0.88 C1336.72003,0.88 1341.77198,2.58398296 1345.54,5.992 C1349.30802,9.40001704 1351.288,14.2959681 1351.48,20.68 C1351.576,23.4640139 1351.624,25.5279933 1351.624,26.872 C1351.624,28.1680065 1351.576,30.2079861 1351.48,32.992 C1351.288,39.5200326 1349.35602,44.4399834 1345.684,47.752 C1342.01198,51.0640166 1336.91203,52.72 1330.384,52.72 Z M1330.384,44.368 C1333.60002,44.368 1336.14399,43.4080096 1338.016,41.488 C1339.88801,39.5679904 1340.896,36.6160199 1341.04,32.632 C1341.136,29.7519856 1341.184,27.808005 1341.184,26.8 C1341.184,25.6959945 1341.136,23.7520139 1341.04,20.968 C1340.896,17.0319803 1339.86401,14.0920097 1337.944,12.148 C1336.02399,10.2039903 1333.50402,9.232 1330.384,9.232 C1327.21598,9.232 1324.67201,10.2039903 1322.752,12.148 C1320.83199,14.0920097 1319.824,17.0319803 1319.728,20.968 C1319.68,22.360007 1319.656,24.3039875 1319.656,26.8 C1319.656,29.2480122 1319.68,31.1919928 1319.728,32.632 C1319.824,36.5680197 1320.81999,39.5079903 1322.716,41.452 C1324.61201,43.3960097 1327.16798,44.368 1330.384,44.368 Z M1362.712,52 C1362.232,52 1361.824,51.8320017 1361.488,51.496 C1361.152,51.1599983 1360.984,50.7520024 1360.984,50.272 L1360.984,3.4 C1360.984,2.87199736 1361.14,2.44000168 1361.452,2.104 C1361.764,1.76799832 1362.184,1.6 1362.712,1.6 L1368.328,1.6 C1369.24,1.6 1369.936,2.00799592 1370.416,2.824 L1391.008,34.792 L1391.008,3.4 C1391.008,2.87199736 1391.164,2.44000168 1391.476,2.104 C1391.788,1.76799832 1392.208,1.6 1392.736,1.6 L1398.928,1.6 C1399.456,1.6 1399.888,1.76799832 1400.224,2.104 C1400.56,2.44000168 1400.728,2.87199736 1400.728,3.4 L1400.728,50.2 C1400.728,50.7280026 1400.56,51.1599983 1400.224,51.496 C1399.888,51.8320017 1399.48,52 1399,52 L1393.312,52 C1392.352,52 1391.632,51.5920041 1391.152,50.776 L1370.632,19.528 L1370.632,50.272 C1370.632,50.7520024 1370.476,51.1599983 1370.164,51.496 C1369.852,51.8320017 1369.432,52 1368.904,52 L1362.712,52 Z" id="IRVINGTON-VEX-ROBOTI" fill="#FFFFFF"></path>
    </g>
</svg>