<?xml version="1.0" encoding="UTF-8"?>
<svg width="292px" height="110px" viewBox="0 0 292 110" version="1.1" xmlns="http://www.w3.org/2000/svg" xmlns:xlink="http://www.w3.org/1999/xlink">
    <!-- Generator: Sketch 47.1 (45422) - http://www.bohemiancoding.com/sketch -->
    <title>presentedby_ihs</title>
    <desc>Created with Sketch.</desc>
    <defs></defs>
    <g id="Page-1" stroke="none" stroke-width="1" fill="none" fill-rule="evenodd">
        <g id="presentedby_ihs" fill-rule="nonzero" fill="#FFFFFF">
            <g id="logo-white" transform="translate(0.000000, 33.000000)">
                <g id="ROBOTICS" transform="translate(1.000000, 33.000000)">
                    <g id="path0_fill-link">
                        <path d="M17.78,1 C22.7,1 26.48,2.16 29.12,4.48 C31.76,6.8 33.08,10.02 33.08,14.14 C33.08,17.06 32.4,19.56 31.04,21.64 C29.68,23.68 27.72,25.2 25.16,26.2 L33.44,41.02 C33.56,41.26 33.62,41.48 33.62,41.68 C33.62,42.04 33.48,42.36 33.2,42.64 C32.96,42.88 32.66,43 32.3,43 L27.2,43 C26.04,43 25.18,42.46 24.62,41.38 L16.76,27.4 L8.78,27.4 L8.78,41.38 C8.78,41.82 8.62,42.2 8.3,42.52 C7.98,42.84 7.6,43 7.16,43 L2.3,43 C1.86,43 1.48,42.84 1.16,42.52 C0.84,42.2 0.68,41.82 0.68,41.38 L0.68,2.62 C0.68,2.18 0.84,1.8 1.16,1.48 C1.48,1.16 1.86,1 2.3,1 L17.78,1 Z M17.48,19.9 C19.92,19.9 21.78,19.48 23.06,18.64 C24.34,17.76 24.98,16.26 24.98,14.14 C24.98,12.02 24.34,10.56 23.06,9.76 C21.82,8.92 19.96,8.5 17.48,8.5 L8.78,8.5 L8.78,19.9 L17.48,19.9 Z M57.0753,0.4 C62.6753,0.4 66.9553,1.9 69.9153,4.9 C72.8753,7.9 74.4753,11.82 74.7153,16.66 C74.7953,18.5 74.8353,20.1 74.8353,21.46 C74.8353,23.26 74.7953,25.24 74.7153,27.4 C74.4753,32.2 72.8753,36.1 69.9153,39.1 C66.9553,42.1 62.6753,43.6 57.0753,43.6 C51.4753,43.6 47.1953,42.1 44.2353,39.1 C41.2753,36.1 39.6753,32.2 39.4353,27.4 C39.3553,25.24 39.3153,23.26 39.3153,21.46 C39.3153,20.1 39.3553,18.5 39.4353,16.66 C39.6753,11.86 41.2753,7.96 44.2353,4.96 C47.1953,1.92 51.4753,0.4 57.0753,0.4 Z M57.0753,7.9 C54.2753,7.9 52.0153,8.7 50.2953,10.3 C48.6153,11.9 47.6953,14.12 47.5353,16.96 C47.4553,18.96 47.4153,20.64 47.4153,22 C47.4153,23.4 47.4553,25.1 47.5353,27.1 C47.6953,29.94 48.6153,32.16 50.2953,33.76 C52.0153,35.32 54.2753,36.1 57.0753,36.1 C59.8753,36.1 62.1153,35.32 63.7953,33.76 C65.5153,32.16 66.4553,29.94 66.6153,27.1 C66.6953,26.1 66.7353,24.4 66.7353,22 C66.7353,19.64 66.6953,17.96 66.6153,16.96 C66.4553,14.12 65.5153,11.9 63.7953,10.3 C62.1153,8.7 59.8753,7.9 57.0753,7.9 Z M84.2727,43 C83.8327,43 83.4527,42.84 83.1327,42.52 C82.8127,42.2 82.6527,41.82 82.6527,41.38 L82.6527,2.62 C82.6527,2.18 82.8127,1.8 83.1327,1.48 C83.4527,1.16 83.8327,1 84.2727,1 L101.973,1 C105.133,1 107.713,1.62 109.713,2.86 C111.753,4.1 113.213,5.62 114.093,7.42 C115.013,9.22 115.473,11.02 115.473,12.82 C115.473,14.9 115.013,16.64 114.093,18.04 C113.173,19.4 112.253,20.38 111.333,20.98 C112.773,21.94 113.953,23.22 114.873,24.82 C115.833,26.38 116.313,28.24 116.313,30.4 C116.313,32.48 115.793,34.5 114.753,36.46 C113.753,38.38 112.273,39.96 110.313,41.2 C108.353,42.4 106.033,43 103.353,43 L84.2727,43 Z M90.7527,8.5 L90.7527,17.74 L101.373,17.74 C103.413,17.74 104.913,17.36 105.873,16.6 C106.873,15.84 107.373,14.68 107.373,13.12 C107.373,11.56 106.873,10.4 105.873,9.64 C104.913,8.88 103.413,8.5 101.373,8.5 L90.7527,8.5 Z M101.853,35.5 C103.973,35.5 105.553,35.04 106.593,34.12 C107.673,33.2 108.213,31.96 108.213,30.4 C108.213,28.84 107.653,27.6 106.533,26.68 C105.453,25.72 103.893,25.24 101.853,25.24 L90.7527,25.24 L90.7527,35.5 L101.853,35.5 Z M139.985,0.4 C145.585,0.4 149.865,1.9 152.825,4.9 C155.785,7.9 157.385,11.82 157.625,16.66 C157.705,18.5 157.745,20.1 157.745,21.46 C157.745,23.26 157.705,25.24 157.625,27.4 C157.385,32.2 155.785,36.1 152.825,39.1 C149.865,42.1 145.585,43.6 139.985,43.6 C134.385,43.6 130.105,42.1 127.145,39.1 C124.185,36.1 122.585,32.2 122.345,27.4 C122.265,25.24 122.225,23.26 122.225,21.46 C122.225,20.1 122.265,18.5 122.345,16.66 C122.585,11.86 124.185,7.96 127.145,4.96 C130.105,1.92 134.385,0.4 139.985,0.4 Z M139.985,7.9 C137.185,7.9 134.925,8.7 133.205,10.3 C131.525,11.9 130.605,14.12 130.445,16.96 C130.365,18.96 130.325,20.64 130.325,22 C130.325,23.4 130.365,25.1 130.445,27.1 C130.605,29.94 131.525,32.16 133.205,33.76 C134.925,35.32 137.185,36.1 139.985,36.1 C142.785,36.1 145.025,35.32 146.705,33.76 C148.425,32.16 149.365,29.94 149.525,27.1 C149.605,26.1 149.645,24.4 149.645,22 C149.645,19.64 149.605,17.96 149.525,16.96 C149.365,14.12 148.425,11.9 146.705,10.3 C145.025,8.7 142.785,7.9 139.985,7.9 Z M192.703,1 C193.142,1 193.522,1.16 193.843,1.48 C194.162,1.8 194.322,2.18 194.322,2.62 L194.322,6.88 C194.322,7.32 194.162,7.7 193.843,8.02 C193.522,8.34 193.142,8.5 192.703,8.5 L181.902,8.5 L181.902,41.38 C181.902,41.82 181.743,42.2 181.423,42.52 C181.103,42.84 180.722,43 180.283,43 L175.423,43 C174.983,43 174.603,42.84 174.283,42.52 C173.963,42.2 173.803,41.82 173.803,41.38 L173.803,8.5 L163.002,8.5 C162.563,8.5 162.182,8.34 161.862,8.02 C161.543,7.7 161.382,7.32 161.382,6.88 L161.382,2.62 C161.382,2.18 161.543,1.8 161.862,1.48 C162.182,1.16 162.563,1 163.002,1 L192.703,1 Z M201.929,43 C201.489,43 201.109,42.84 200.789,42.52 C200.469,42.2 200.309,41.82 200.309,41.38 L200.309,2.62 C200.309,2.18 200.469,1.8 200.789,1.48 C201.109,1.16 201.489,1 201.929,1 L206.789,1 C207.229,1 207.609,1.16 207.929,1.48 C208.249,1.8 208.409,2.18 208.409,2.62 L208.409,41.38 C208.409,41.82 208.249,42.2 207.929,42.52 C207.609,42.84 207.229,43 206.789,43 L201.929,43 Z M250.17,28.12 C250.65,28.12 251.05,28.28 251.37,28.6 C251.69,28.88 251.83,29.26 251.79,29.74 C251.63,32.06 250.89,34.28 249.57,36.4 C248.29,38.52 246.33,40.26 243.69,41.62 C241.09,42.94 237.83,43.6 233.91,43.6 C228.55,43.6 224.35,42.1 221.31,39.1 C218.27,36.06 216.59,32.04 216.27,27.04 C216.19,25.04 216.15,23.36 216.15,22 C216.15,20.64 216.19,18.96 216.27,16.96 C216.59,11.96 218.27,7.96 221.31,4.96 C224.35,1.92 228.55,0.4 233.91,0.4 C237.83,0.4 241.09,1.08 243.69,2.44 C246.33,3.76 248.29,5.48 249.57,7.6 C250.89,9.72 251.63,11.94 251.79,14.26 C251.83,14.74 251.69,15.14 251.37,15.46 C251.05,15.74 250.65,15.88 250.17,15.88 L245.31,15.88 C244.91,15.88 244.53,15.74 244.17,15.46 C243.81,15.18 243.59,14.8 243.51,14.32 C243.19,12.52 242.23,11 240.63,9.76 C239.07,8.52 236.83,7.9 233.91,7.9 C230.95,7.9 228.65,8.74 227.01,10.42 C225.41,12.1 224.53,14.28 224.37,16.96 C224.29,18.96 224.25,20.64 224.25,22 C224.25,23.36 224.29,25.04 224.37,27.04 C224.53,29.72 225.41,31.9 227.01,33.58 C228.65,35.26 230.95,36.1 233.91,36.1 C236.83,36.1 239.09,35.48 240.69,34.24 C242.29,33 243.25,31.48 243.57,29.68 C243.65,29.2 243.85,28.82 244.17,28.54 C244.53,28.26 244.91,28.12 245.31,28.12 L250.17,28.12 Z M289.625,11.44 C289.665,11.92 289.525,12.32 289.205,12.64 C288.885,12.92 288.485,13.06 288.005,13.06 L283.805,13.06 C283.165,13.06 282.665,12.94 282.305,12.7 C281.945,12.46 281.625,12.1 281.345,11.62 C280.665,10.5 279.685,9.6 278.405,8.92 C277.125,8.24 275.385,7.9 273.185,7.9 C271.025,7.9 269.205,8.34 267.725,9.22 C266.245,10.1 265.505,11.28 265.505,12.76 C265.505,13.96 265.845,14.9 266.525,15.58 C267.245,16.22 268.345,16.76 269.825,17.2 C271.305,17.64 273.725,18.22 277.085,18.94 C281.925,19.98 285.425,21.44 287.585,23.32 C289.745,25.2 290.825,27.78 290.825,31.06 C290.825,33.46 290.125,35.62 288.725,37.54 C287.325,39.42 285.305,40.9 282.665,41.98 C280.065,43.06 277.005,43.6 273.485,43.6 C270.485,43.6 267.685,43.12 265.085,42.16 C262.485,41.2 260.385,39.84 258.785,38.08 C257.185,36.28 256.325,34.24 256.205,31.96 C256.165,31.48 256.305,31.1 256.625,30.82 C256.945,30.5 257.345,30.34 257.825,30.34 L262.025,30.34 C262.665,30.34 263.165,30.46 263.525,30.7 C263.925,30.94 264.245,31.3 264.485,31.78 C265.165,33.1 266.145,34.16 267.425,34.96 C268.745,35.72 270.765,36.1 273.485,36.1 C276.125,36.1 278.325,35.68 280.085,34.84 C281.845,34 282.725,32.74 282.725,31.06 C282.725,30.1 282.385,29.34 281.705,28.78 C281.025,28.18 280.065,27.7 278.825,27.34 C277.585,26.94 275.705,26.44 273.185,25.84 C272.185,25.64 270.885,25.34 269.285,24.94 C265.085,23.9 262.045,22.48 260.165,20.68 C258.325,18.88 257.405,16.24 257.405,12.76 C257.405,10.4 258.085,8.28 259.445,6.4 C260.845,4.52 262.745,3.06 265.145,2.02 C267.545,0.94 270.225,0.4 273.185,0.4 C276.545,0.4 279.445,0.98 281.885,2.14 C284.365,3.26 286.245,4.68 287.525,6.4 C288.805,8.12 289.505,9.8 289.625,11.44 Z" id="path0_fill"></path>
                    </g>
                </g>
                <g id="IRVINGTON">
                    <g id="path1_fill-link">
                        <path d="M0.955,25 C0.69833,25 0.47667,24.9067 0.29,24.72 C0.10333,24.5333 0.01,24.3117 0.01,24.055 L0.01,1.445 C0.01,1.18833 0.10333,0.96667 0.29,0.78 C0.47667,0.59333 0.69833,0.5 0.955,0.5 L2.39,0.5 C2.64667,0.5 2.86833,0.59333 3.055,0.78 C3.24167,0.96667 3.335,1.18833 3.335,1.445 L3.335,24.055 C3.335,24.3117 3.24167,24.5333 3.055,24.72 C2.86833,24.9067 2.64667,25 2.39,25 L0.955,25 Z M18.7561,0.5 C21.2061,0.5 23.2244,1.10667 24.8111,2.32 C26.3977,3.51 27.1911,5.3183 27.1911,7.745 C27.1911,9.565 26.7361,11.0467 25.8261,12.19 C24.9161,13.3333 23.6911,14.15 22.1511,14.64 L27.4361,23.845 C27.5061,23.985 27.5411,24.1133 27.5411,24.23 C27.5411,24.44 27.4594,24.6267 27.2961,24.79 C27.1561,24.93 26.9811,25 26.7711,25 L25.2661,25 C24.6127,25 24.1111,24.685 23.7611,24.055 L18.6861,15.13 L12.6661,15.13 L12.6661,24.055 C12.6661,24.3117 12.5727,24.5333 12.3861,24.72 C12.1994,24.9067 11.9777,25 11.7211,25 L10.2861,25 C10.0294,25 9.8077,24.9067 9.6211,24.72 C9.4344,24.5333 9.3411,24.3117 9.3411,24.055 L9.3411,1.445 C9.3411,1.18833 9.4344,0.96667 9.6211,0.78 C9.8077,0.59333 10.0294,0.5 10.2861,0.5 L18.7561,0.5 Z M18.5811,11.98 C22.1044,11.98 23.8661,10.5683 23.8661,7.745 C23.8661,6.2983 23.4227,5.26 22.5361,4.63 C21.6494,3.9767 20.3311,3.65 18.5811,3.65 L12.6661,3.65 L12.6661,11.98 L18.5811,11.98 Z M46.4028,1.375 C46.6128,0.79167 47.0678,0.5 47.7678,0.5 L49.0628,0.5 C49.2728,0.5 49.4478,0.58167 49.5878,0.745 C49.7511,0.885 49.8328,1.06 49.8328,1.27 C49.8328,1.38667 49.8094,1.50333 49.7628,1.62 L42.2028,23.6 C42.0628,24.0433 41.8294,24.3933 41.5028,24.65 C41.1994,24.8833 40.8144,25 40.3478,25 L38.9478,25 C38.0378,25 37.4311,24.5333 37.1278,23.6 L29.5328,1.62 C29.4861,1.50333 29.4628,1.38667 29.4628,1.27 C29.4628,1.06 29.5328,0.885 29.6728,0.745 C29.8361,0.58167 30.0228,0.5 30.2328,0.5 L31.5278,0.5 C32.2278,0.5 32.6828,0.79167 32.8928,1.375 L39.6478,21.5 L46.4028,1.375 Z M54.9589,25 C54.7022,25 54.4806,24.9067 54.2939,24.72 C54.1072,24.5333 54.0139,24.3117 54.0139,24.055 L54.0139,1.445 C54.0139,1.18833 54.1072,0.96667 54.2939,0.78 C54.4806,0.59333 54.7022,0.5 54.9589,0.5 L56.3939,0.5 C56.6506,0.5 56.8722,0.59333 57.0589,0.78 C57.2456,0.96667 57.3389,1.18833 57.3389,1.445 L57.3389,24.055 C57.3389,24.3117 57.2456,24.5333 57.0589,24.72 C56.8722,24.9067 56.6506,25 56.3939,25 L54.9589,25 Z M79.445,25 C79.1416,25 78.885,24.9067 78.675,24.72 C78.465,24.5333 78.255,24.2767 78.045,23.95 L66.67,6.835 L66.67,24.055 C66.67,24.3117 66.5766,24.5333 66.39,24.72 C66.2033,24.9067 65.9816,25 65.725,25 L64.29,25 C64.0333,25 63.8116,24.9067 63.625,24.72 C63.4383,24.5333 63.345,24.3117 63.345,24.055 L63.345,1.445 C63.345,1.18833 63.4383,0.96667 63.625,0.78 C63.8116,0.59333 64.0333,0.5 64.29,0.5 L65.515,0.5 C65.8183,0.5 66.075,0.59333 66.285,0.78 C66.495,0.96667 66.705,1.22333 66.915,1.55 L78.29,18.665 L78.29,1.445 C78.29,1.18833 78.3833,0.96667 78.57,0.78 C78.7566,0.59333 78.9783,0.5 79.235,0.5 L80.67,0.5 C80.9266,0.5 81.1483,0.59333 81.335,0.78 C81.5216,0.96667 81.615,1.18833 81.615,1.445 L81.615,24.055 C81.615,24.3117 81.5216,24.5333 81.335,24.72 C81.1483,24.9067 80.9266,25 80.67,25 L79.445,25 Z M96.7467,0.15 C98.73,0.15 100.445,0.52333 101.892,1.27 C103.338,1.99333 104.435,2.8917 105.182,3.965 C105.952,5.015 106.36,5.995 106.407,6.905 C106.43,7.115 106.36,7.3017 106.197,7.465 C106.033,7.605 105.847,7.675 105.637,7.675 L104.202,7.675 C103.665,7.675 103.327,7.5467 103.187,7.29 C102.51,5.9833 101.693,4.9917 100.737,4.315 C99.803,3.6383 98.473,3.3 96.7467,3.3 C94.7867,3.3 93.2001,3.86 91.9867,4.98 C90.7734,6.0767 90.1317,7.6633 90.0617,9.74 C90.0384,10.44 90.0267,11.4083 90.0267,12.645 C90.0267,13.8817 90.0384,14.85 90.0617,15.55 C90.1317,17.7433 90.7617,19.4 91.9517,20.52 C93.1651,21.64 94.7634,22.2 96.7467,22.2 C98.777,22.2 100.398,21.675 101.612,20.625 C102.825,19.5517 103.432,17.8717 103.432,15.585 L103.432,14.605 L98.392,14.605 C98.135,14.605 97.913,14.5117 97.727,14.325 C97.54,14.1383 97.447,13.9167 97.447,13.66 L97.447,12.4 C97.447,12.1433 97.54,11.9217 97.727,11.735 C97.913,11.5483 98.135,11.455 98.392,11.455 L105.812,11.455 C106.068,11.455 106.29,11.5483 106.477,11.735 C106.663,11.9217 106.757,12.1433 106.757,12.4 L106.757,15.725 C106.757,17.5917 106.36,19.26 105.567,20.73 C104.773,22.1767 103.618,23.3083 102.102,24.125 C100.608,24.9417 98.823,25.35 96.7467,25.35 C93.5267,25.35 91.0767,24.4633 89.3967,22.69 C87.7167,20.8933 86.8301,18.5717 86.7367,15.725 C86.7134,15.025 86.7017,13.9983 86.7017,12.645 C86.7017,11.2917 86.7134,10.265 86.7367,9.565 C86.8067,7.7683 87.2034,6.17 87.9267,4.77 C88.6734,3.3467 89.7817,2.2267 91.2517,1.41 C92.7451,0.57 94.5767,0.15 96.7467,0.15 Z M126.386,0.5 C126.642,0.5 126.864,0.59333 127.051,0.78 C127.237,0.96667 127.331,1.18833 127.331,1.445 L127.331,2.705 C127.331,2.9617 127.237,3.1833 127.051,3.37 C126.864,3.5567 126.642,3.65 126.386,3.65 L119.841,3.65 L119.841,24.055 C119.841,24.3117 119.747,24.5333 119.561,24.72 C119.374,24.9067 119.152,25 118.896,25 L117.461,25 C117.204,25 116.982,24.9067 116.796,24.72 C116.609,24.5333 116.516,24.3117 116.516,24.055 L116.516,3.65 L109.971,3.65 C109.714,3.65 109.492,3.5567 109.306,3.37 C109.119,3.1833 109.026,2.9617 109.026,2.705 L109.026,1.445 C109.026,1.18833 109.119,0.96667 109.306,0.78 C109.492,0.59333 109.714,0.5 109.971,0.5 L126.386,0.5 Z M139.326,0.15 C141.31,0.15 143.025,0.57 144.471,1.41 C145.918,2.25 147.015,3.3933 147.761,4.84 C148.531,6.2633 148.94,7.8617 148.986,9.635 C149.033,11.035 149.056,12.0733 149.056,12.75 C149.056,13.4267 149.033,14.465 148.986,15.865 C148.916,17.6383 148.496,19.2483 147.726,20.695 C146.98,22.1183 145.883,23.25 144.436,24.09 C143.013,24.93 141.31,25.35 139.326,25.35 C137.343,25.35 135.628,24.93 134.181,24.09 C132.758,23.25 131.661,22.1183 130.891,20.695 C130.145,19.2483 129.736,17.6383 129.666,15.865 C129.643,15.165 129.631,14.1267 129.631,12.75 C129.631,11.3733 129.643,10.335 129.666,9.635 C129.713,7.8617 130.11,6.2633 130.856,4.84 C131.626,3.3933 132.735,2.25 134.181,1.41 C135.628,0.57 137.343,0.15 139.326,0.15 Z M139.326,3.3 C137.46,3.3 135.955,3.8483 134.811,4.945 C133.668,6.0417 133.061,7.6633 132.991,9.81 C132.968,10.51 132.956,11.49 132.956,12.75 C132.956,14.01 132.968,14.99 132.991,15.69 C133.061,17.8367 133.668,19.4583 134.811,20.555 C135.955,21.6517 137.46,22.2 139.326,22.2 C141.193,22.2 142.698,21.6517 143.841,20.555 C144.985,19.4583 145.591,17.8367 145.661,15.69 C145.708,14.29 145.731,13.31 145.731,12.75 C145.731,12.19 145.708,11.21 145.661,9.81 C145.591,7.6633 144.985,6.0417 143.841,4.945 C142.698,3.8483 141.193,3.3 139.326,3.3 Z M170.192,25 C169.889,25 169.632,24.9067 169.422,24.72 C169.212,24.5333 169.002,24.2767 168.792,23.95 L157.417,6.835 L157.417,24.055 C157.417,24.3117 157.324,24.5333 157.137,24.72 C156.95,24.9067 156.729,25 156.472,25 L155.037,25 C154.78,25 154.559,24.9067 154.372,24.72 C154.185,24.5333 154.092,24.3117 154.092,24.055 L154.092,1.445 C154.092,1.18833 154.185,0.96667 154.372,0.78 C154.559,0.59333 154.78,0.5 155.037,0.5 L156.262,0.5 C156.565,0.5 156.822,0.59333 157.032,0.78 C157.242,0.96667 157.452,1.22333 157.662,1.55 L169.037,18.665 L169.037,1.445 C169.037,1.18833 169.13,0.96667 169.317,0.78 C169.504,0.59333 169.725,0.5 169.982,0.5 L171.417,0.5 C171.674,0.5 171.895,0.59333 172.082,0.78 C172.269,0.96667 172.362,1.18833 172.362,1.445 L172.362,24.055 C172.362,24.3117 172.269,24.5333 172.082,24.72 C171.895,24.9067 171.674,25 171.417,25 L170.192,25 Z" id="path1_fill"></path>
                    </g>
                </g>
            </g>
            <path d="M88.44,18 C88.306666,18 88.2000004,17.9600004 88.12,17.88 C88.0399996,17.7999996 88,17.693334 88,17.56 L88,4.24 C88,4.106666 88.0399996,4.0000004 88.12,3.92 C88.2000004,3.8399996 88.306666,3.8 88.44,3.8 L88.78,3.8 C88.913334,3.8 89.0199996,3.8399996 89.1,3.92 C89.1800004,4.0000004 89.22,4.106666 89.22,4.24 L89.22,5.18 C89.9933372,4.1266614 91.113326,3.6 92.58,3.6 C94.0200072,3.6 95.0833299,4.0566621 95.77,4.97 C96.4566701,5.8833379 96.8199998,7.00666 96.86,8.34 C96.8733334,8.473334 96.88,8.6933318 96.88,9 C96.88,9.3066682 96.8733334,9.526666 96.86,9.66 C96.8199998,10.99334 96.4566701,12.1166621 95.77,13.03 C95.0833299,13.9433379 94.0200072,14.4 92.58,14.4 C91.1266594,14.4 90.0066706,13.8733386 89.22,12.82 L89.22,17.56 C89.22,17.693334 89.1800004,17.7999996 89.1,17.88 C89.0199996,17.9600004 88.913334,18 88.78,18 L88.44,18 Z M92.46,13.24 C93.5400054,13.24 94.3299975,12.8966701 94.83,12.21 C95.3300025,11.5233299 95.5999998,10.6400054 95.64,9.56 C95.6533334,9.426666 95.66,9.2400012 95.66,9 C95.66,7.7599938 95.4200024,6.7433373 94.94,5.95 C94.4599976,5.1566627 93.6333392,4.76 92.46,4.76 C91.4066614,4.76 90.613336,5.1099965 90.08,5.81 C89.546664,6.5100035 89.2600002,7.3333286 89.22,8.28 L89.2,9.06 L89.22,9.84 C89.2333334,10.4133362 89.3599988,10.9566641 89.6,11.47 C89.8400012,11.9833359 90.1999976,12.406665 90.68,12.74 C91.1600024,13.073335 91.7533298,13.24 92.46,13.24 Z M100.04,14.2 C99.906666,14.2 99.8000004,14.1600004 99.72,14.08 C99.6399996,13.9999996 99.6,13.893334 99.6,13.76 L99.6,4.26 C99.6,4.126666 99.6399996,4.0166671 99.72,3.93 C99.8000004,3.8433329 99.906666,3.8 100.04,3.8 L100.36,3.8 C100.493334,3.8 100.603333,3.8433329 100.69,3.93 C100.776667,4.0166671 100.82,4.126666 100.82,4.26 L100.82,5.18 C101.300002,4.2599954 102.20666,3.8 103.54,3.8 L104.28,3.8 C104.413334,3.8 104.52,3.8399996 104.6,3.92 C104.68,4.0000004 104.72,4.106666 104.72,4.24 L104.72,4.52 C104.72,4.653334 104.68,4.7599996 104.6,4.84 C104.52,4.9200004 104.413334,4.96 104.28,4.96 L103.42,4.96 C102.619996,4.96 101.986669,5.193331 101.52,5.66 C101.053331,6.126669 100.82,6.759996 100.82,7.56 L100.82,13.76 C100.82,13.893334 100.776667,13.9999996 100.69,14.08 C100.603333,14.1600004 100.493334,14.2 100.36,14.2 L100.04,14.2 Z M110.18,14.4 C108.913327,14.4 107.893337,13.9833375 107.12,13.15 C106.346663,12.3166625 105.906667,11.200007 105.8,9.8 L105.78,9 L105.8,8.2 C105.906667,6.8133264 106.343329,5.7000042 107.11,4.86 C107.876671,4.0199958 108.899994,3.6 110.18,3.6 C111.566674,3.6 112.649996,4.0599954 113.43,4.98 C114.210004,5.9000046 114.6,7.159992 114.6,8.76 L114.6,9.06 C114.6,9.193334 114.556667,9.2999996 114.47,9.38 C114.383333,9.4600004 114.273334,9.5 114.14,9.5 L107.02,9.5 L107.02,9.7 C107.046667,10.3266698 107.189999,10.9099973 107.45,11.45 C107.710001,11.9900027 108.073331,12.4233317 108.54,12.75 C109.006669,13.0766683 109.55333,13.24 110.18,13.24 C110.913337,13.24 111.509998,13.0966681 111.97,12.81 C112.430002,12.5233319 112.759999,12.2333348 112.96,11.94 C113.080001,11.7799992 113.17,11.6800002 113.23,11.64 C113.29,11.5999998 113.399999,11.58 113.56,11.58 L113.88,11.58 C114.000001,11.58 114.1,11.613333 114.18,11.68 C114.26,11.746667 114.3,11.8333328 114.3,11.94 C114.3,12.2200014 114.123335,12.5566647 113.77,12.95 C113.416665,13.3433353 112.92667,13.6833319 112.3,13.97 C111.67333,14.2566681 110.966671,14.4 110.18,14.4 Z M113.38,8.38 L113.38,8.3 C113.38,7.2733282 113.090003,6.42667 112.51,5.76 C111.929997,5.09333 111.153338,4.76 110.18,4.76 C109.206662,4.76 108.436669,5.09333 107.87,5.76 C107.30333,6.42667 107.02,7.2733282 107.02,8.3 L107.02,8.38 L113.38,8.38 Z M120.54,14.4 C119.673329,14.4 118.943336,14.2533348 118.35,13.96 C117.756664,13.6666652 117.310001,13.3333352 117.01,12.96 C116.709999,12.5866648 116.56,12.2866678 116.56,12.06 C116.56,11.9399994 116.606666,11.8433337 116.7,11.77 C116.793334,11.6966663 116.893333,11.66 117,11.66 L117.3,11.66 C117.393334,11.66 117.47,11.6766665 117.53,11.71 C117.59,11.7433335 117.66,11.8133328 117.74,11.92 C118.033335,12.3333354 118.389998,12.6566655 118.81,12.89 C119.230002,13.1233345 119.806663,13.24 120.54,13.24 C121.366671,13.24 122.033331,13.0833349 122.54,12.77 C123.046669,12.4566651 123.3,12.0066696 123.3,11.42 C123.3,11.0599982 123.196668,10.7666678 122.99,10.54 C122.783332,10.3133322 122.450002,10.1166675 121.99,9.95 C121.529998,9.7833325 120.846671,9.5933344 119.94,9.38 C118.753327,9.113332 117.943336,8.746669 117.51,8.28 C117.076665,7.813331 116.86,7.2200036 116.86,6.5 C116.86,6.0066642 116.996665,5.5400022 117.27,5.1 C117.543335,4.6599978 117.949997,4.3000014 118.49,4.02 C119.030003,3.7399986 119.679996,3.6 120.44,3.6 C121.240004,3.6 121.916664,3.7366653 122.47,4.01 C123.023336,4.2833347 123.436665,4.5999982 123.71,4.96 C123.983335,5.3200018 124.12,5.6133322 124.12,5.84 C124.12,5.9600006 124.076667,6.0566663 123.99,6.13 C123.903333,6.2033337 123.800001,6.24 123.68,6.24 L123.38,6.24 C123.193332,6.24 123.046667,6.1533342 122.94,5.98 C122.673332,5.579998 122.370002,5.2766677 122.03,5.07 C121.689998,4.8633323 121.160004,4.76 120.44,4.76 C119.666663,4.76 119.080002,4.9199984 118.68,5.24 C118.279998,5.5600016 118.08,5.9799974 118.08,6.5 C118.08,6.8200016 118.159999,7.0866656 118.32,7.3 C118.480001,7.5133344 118.779998,7.7099991 119.22,7.89 C119.660002,8.0700009 120.299996,8.2533324 121.14,8.44 C122.380006,8.7200014 123.253331,9.093331 123.76,9.56 C124.266669,10.026669 124.52,10.6466628 124.52,11.42 C124.52,11.9666694 124.366668,12.4666644 124.06,12.92 C123.753332,13.3733356 123.300003,13.733332 122.7,14 C122.099997,14.266668 121.380004,14.4 120.54,14.4 Z M130.94,14.4 C129.673327,14.4 128.653337,13.9833375 127.88,13.15 C127.106663,12.3166625 126.666667,11.200007 126.56,9.8 L126.54,9 L126.56,8.2 C126.666667,6.8133264 127.10333,5.7000042 127.87,4.86 C128.636671,4.0199958 129.659994,3.6 130.94,3.6 C132.326674,3.6 133.409996,4.0599954 134.19,4.98 C134.970004,5.9000046 135.36,7.159992 135.36,8.76 L135.36,9.06 C135.36,9.193334 135.316667,9.2999996 135.23,9.38 C135.143333,9.4600004 135.033334,9.5 134.9,9.5 L127.78,9.5 L127.78,9.7 C127.806667,10.3266698 127.949999,10.9099973 128.21,11.45 C128.470001,11.9900027 128.833331,12.4233317 129.3,12.75 C129.766669,13.0766683 130.31333,13.24 130.94,13.24 C131.673337,13.24 132.269998,13.0966681 132.73,12.81 C133.190002,12.5233319 133.519999,12.2333348 133.72,11.94 C133.840001,11.7799992 133.93,11.6800002 133.99,11.64 C134.05,11.5999998 134.159999,11.58 134.32,11.58 L134.64,11.58 C134.760001,11.58 134.86,11.613333 134.94,11.68 C135.02,11.746667 135.06,11.8333328 135.06,11.94 C135.06,12.2200014 134.883335,12.5566647 134.53,12.95 C134.176665,13.3433353 133.68667,13.6833319 133.06,13.97 C132.43333,14.2566681 131.726671,14.4 130.94,14.4 Z M134.14,8.38 L134.14,8.3 C134.14,7.2733282 133.850003,6.42667 133.27,5.76 C132.689997,5.09333 131.913338,4.76 130.94,4.76 C129.966662,4.76 129.196669,5.09333 128.63,5.76 C128.063331,6.42667 127.78,7.2733282 127.78,8.3 L127.78,8.38 L134.14,8.38 Z M138.44,14.2 C138.306666,14.2 138.2,14.1600004 138.12,14.08 C138.04,13.9999996 138,13.893334 138,13.76 L138,4.24 C138,4.106666 138.04,4.0000004 138.12,3.92 C138.2,3.8399996 138.306666,3.8 138.44,3.8 L138.78,3.8 C138.913334,3.8 139.02,3.8399996 139.1,3.92 C139.18,4.0000004 139.22,4.106666 139.22,4.24 L139.22,5.18 C139.620002,4.6599974 140.076664,4.266668 140.59,4 C141.103336,3.733332 141.766663,3.6 142.58,3.6 C143.886673,3.6 144.89333,4.0166625 145.6,4.85 C146.30667,5.6833375 146.66,6.7599934 146.66,8.08 L146.66,13.76 C146.66,13.893334 146.62,13.9999996 146.54,14.08 C146.46,14.1600004 146.353334,14.2 146.22,14.2 L145.88,14.2 C145.746666,14.2 145.64,14.1600004 145.56,14.08 C145.48,13.9999996 145.44,13.893334 145.44,13.76 L145.44,8.18 C145.44,7.0999946 145.176669,6.260003 144.65,5.66 C144.123331,5.059997 143.366672,4.76 142.38,4.76 C141.419995,4.76 140.653336,5.0633303 140.08,5.67 C139.506664,6.2766697 139.22,7.113328 139.22,8.18 L139.22,13.76 C139.22,13.893334 139.18,13.9999996 139.1,14.08 C139.02,14.1600004 138.913334,14.2 138.78,14.2 L138.44,14.2 Z M153.14,14.2 C152.153328,14.2 151.453335,13.9033363 151.04,13.31 C150.626665,12.7166637 150.42,11.9000052 150.42,10.86 L150.42,4.96 L148.86,4.96 C148.726666,4.96 148.62,4.9200004 148.54,4.84 C148.46,4.7599996 148.42,4.653334 148.42,4.52 L148.42,4.24 C148.42,4.106666 148.46,4.0000004 148.54,3.92 C148.62,3.8399996 148.726666,3.8 148.86,3.8 L150.42,3.8 L150.42,0.44 C150.42,0.306666 150.46,0.2000004 150.54,0.12 C150.62,0.0399996 150.726666,0 150.86,0 L151.2,0 C151.333334,0 151.44,0.0399996 151.52,0.12 C151.6,0.2000004 151.64,0.306666 151.64,0.44 L151.64,3.8 L154.12,3.8 C154.253334,3.8 154.36,3.8399996 154.44,3.92 C154.52,4.0000004 154.56,4.106666 154.56,4.24 L154.56,4.52 C154.56,4.653334 154.52,4.7599996 154.44,4.84 C154.36,4.9200004 154.253334,4.96 154.12,4.96 L151.64,4.96 L151.64,10.78 C151.64,11.5266704 151.763332,12.0899981 152.01,12.47 C152.256668,12.8500019 152.666664,13.04 153.24,13.04 L154.32,13.04 C154.453334,13.04 154.56,13.0799996 154.64,13.16 C154.72,13.2400004 154.76,13.346666 154.76,13.48 L154.76,13.76 C154.76,13.893334 154.72,13.9999996 154.64,14.08 C154.56,14.1600004 154.453334,14.2 154.32,14.2 L153.14,14.2 Z M160.68,14.4 C159.413327,14.4 158.393337,13.9833375 157.62,13.15 C156.846663,12.3166625 156.406667,11.200007 156.3,9.8 L156.28,9 L156.3,8.2 C156.406667,6.8133264 156.843329,5.7000042 157.61,4.86 C158.37667,4.0199958 159.399994,3.6 160.68,3.6 C162.066674,3.6 163.149996,4.0599954 163.93,4.98 C164.710004,5.9000046 165.1,7.159992 165.1,8.76 L165.1,9.06 C165.1,9.193334 165.056667,9.2999996 164.97,9.38 C164.883333,9.4600004 164.773334,9.5 164.64,9.5 L157.52,9.5 L157.52,9.7 C157.546667,10.3266698 157.689999,10.9099973 157.95,11.45 C158.210001,11.9900027 158.573331,12.4233317 159.04,12.75 C159.506669,13.0766683 160.05333,13.24 160.68,13.24 C161.413337,13.24 162.009998,13.0966681 162.47,12.81 C162.930002,12.5233319 163.259999,12.2333348 163.46,11.94 C163.580001,11.7799992 163.67,11.6800002 163.73,11.64 C163.79,11.5999998 163.899999,11.58 164.06,11.58 L164.38,11.58 C164.500001,11.58 164.6,11.613333 164.68,11.68 C164.76,11.746667 164.8,11.8333328 164.8,11.94 C164.8,12.2200014 164.623335,12.5566647 164.27,12.95 C163.916665,13.3433353 163.42667,13.6833319 162.8,13.97 C162.17333,14.2566681 161.466671,14.4 160.68,14.4 Z M163.88,8.38 L163.88,8.3 C163.88,7.2733282 163.590003,6.42667 163.01,5.76 C162.429997,5.09333 161.653338,4.76 160.68,4.76 C159.706662,4.76 158.936669,5.09333 158.37,5.76 C157.80333,6.42667 157.52,7.2733282 157.52,8.3 L157.52,8.38 L163.88,8.38 Z M171.5,14.4 C170.059993,14.4 168.99667,13.9300047 168.31,12.99 C167.62333,12.0499953 167.26,10.9066734 167.22,9.56 L167.2,9 L167.22,8.44 C167.26,7.0933266 167.62333,5.9500047 168.31,5.01 C168.99667,4.0699953 170.059993,3.6 171.5,3.6 C172.953341,3.6 174.073329,4.1266614 174.86,5.18 L174.86,0.44 C174.86,0.306666 174.9,0.2000004 174.98,0.12 C175.06,0.0399996 175.166666,0 175.3,0 L175.64,0 C175.773334,0 175.88,0.0399996 175.96,0.12 C176.04,0.2000004 176.08,0.306666 176.08,0.44 L176.08,13.76 C176.08,13.893334 176.04,13.9999996 175.96,14.08 C175.88,14.1600004 175.773334,14.2 175.64,14.2 L175.3,14.2 C175.166666,14.2 175.06,14.1600004 174.98,14.08 C174.9,13.9999996 174.86,13.893334 174.86,13.76 L174.86,12.82 C174.086663,13.8733386 172.966674,14.4 171.5,14.4 Z M171.62,13.24 C172.673339,13.24 173.466664,12.8900035 174,12.19 C174.533336,11.4899965 174.82,10.6666714 174.86,9.72 C174.873333,9.586666 174.88,9.3266686 174.88,8.94 C174.88,8.5533314 174.873333,8.293334 174.86,8.16 C174.846667,7.5866638 174.720001,7.0433359 174.48,6.53 C174.239999,6.0166641 173.880002,5.593335 173.4,5.26 C172.919998,4.926665 172.32667,4.76 171.62,4.76 C170.539995,4.76 169.750002,5.1033299 169.25,5.79 C168.749998,6.4766701 168.48,7.3599946 168.44,8.44 L168.42,9 C168.42,10.2400062 168.659998,11.2566627 169.14,12.05 C169.620002,12.8433373 170.446661,13.24 171.62,13.24 Z M189.1,14.4 C187.633326,14.4 186.513337,13.8733386 185.74,12.82 L185.74,13.76 C185.74,13.893334 185.7,13.9999996 185.62,14.08 C185.54,14.1600004 185.433334,14.2 185.3,14.2 L184.96,14.2 C184.826666,14.2 184.72,14.1600004 184.64,14.08 C184.56,13.9999996 184.52,13.893334 184.52,13.76 L184.52,0.44 C184.52,0.306666 184.56,0.2000004 184.64,0.12 C184.72,0.0399996 184.826666,0 184.96,0 L185.3,0 C185.433334,0 185.54,0.0399996 185.62,0.12 C185.7,0.2000004 185.74,0.306666 185.74,0.44 L185.74,5.18 C186.526671,4.1266614 187.646659,3.6 189.1,3.6 C190.540007,3.6 191.60333,4.0699953 192.29,5.01 C192.97667,5.9500047 193.34,7.0933266 193.38,8.44 C193.393333,8.573334 193.4,8.7599988 193.4,9 C193.4,9.2400012 193.393333,9.426666 193.38,9.56 C193.34,10.9066734 192.97667,12.0499953 192.29,12.99 C191.60333,13.9300047 190.540007,14.4 189.1,14.4 Z M188.98,13.24 C190.060005,13.24 190.849998,12.8966701 191.35,12.21 C191.850003,11.5233299 192.12,10.6400054 192.16,9.56 C192.173333,9.426666 192.18,9.2400012 192.18,9 C192.18,7.7599938 191.940002,6.7433373 191.46,5.95 C190.979998,5.1566627 190.153339,4.76 188.98,4.76 C188.27333,4.76 187.680002,4.926665 187.2,5.26 C186.719998,5.593335 186.360001,6.0166641 186.12,6.53 C185.879999,7.0433359 185.753333,7.5866638 185.74,8.16 L185.72,8.94 L185.74,9.72 C185.78,10.6666714 186.066664,11.4899965 186.6,12.19 C187.133336,12.8900035 187.926661,13.24 188.98,13.24 Z M197.48,18 C197.373333,18 197.28,17.9600004 197.2,17.88 C197.12,17.7999996 197.08,17.7066672 197.08,17.6 C197.08,17.533333 197.12,17.400001 197.2,17.2 L198.74,13.6 L194.92,4.6 C194.84,4.399999 194.8,4.266667 194.8,4.2 C194.8,4.0933328 194.84,4.0000004 194.92,3.92 C195,3.8399996 195.093333,3.8 195.2,3.8 L195.62,3.8 C195.833334,3.8 195.986666,3.899999 196.08,4.1 L199.44,12.02 L202.88,4.1 C202.986667,3.899999 203.139999,3.8 203.34,3.8 L203.74,3.8 C203.846667,3.8 203.94,3.8399996 204.02,3.92 C204.1,4.0000004 204.14,4.0933328 204.14,4.2 C204.14,4.266667 204.1,4.399999 204.02,4.6 L198.34,17.7 C198.246666,17.900001 198.093334,18 197.88,18 L197.48,18 Z" id="presented-by"></path>
        </g>
    </g>
</svg>